<?xml version="1.0" standalone="no"?>
<!DOCTYPE svg PUBLIC "-//W3C//DTD SVG 1.1//EN" "http://www.w3.org/Graphics/SVG/1.1/DTD/svg11.dtd">
<svg width="46mm" height="114mm" viewBox="0 -114 46 114" xmlns="http://www.w3.org/2000/svg" version="1.1">
<title>OpenSCAD Model</title>
<path d="
M 45.4264,-113.566 L 38.4264,-113.566 L 41.9264,-110.066 z
M 37.8553,-113.566 L 30.8553,-113.566 L 34.3553,-110.066 z
M 30.2843,-113.566 L 23.2843,-113.566 L 26.7843,-110.066 z
M 22.7132,-113.566 L 15.7132,-113.566 L 19.2132,-110.066 z
M 15.1421,-113.566 L 8.14214,-113.566 L 11.6421,-110.066 z
M 7.57107,-113.566 L 0.571068,-113.566 L 4.07107,-110.066 z
M 18.9777,-109.745 L 15.4421,-113.28 L 11.9066,-109.745 L 15.4421,-106.209 z
M 41.6909,-109.745 L 38.1553,-113.28 L 34.6198,-109.745 L 38.1553,-106.209 z
M 11.4066,-109.745 L 7.87107,-113.28 L 4.33553,-109.745 L 7.87107,-106.209 z
M 34.1198,-109.745 L 30.5843,-113.28 L 27.0487,-109.745 L 30.5843,-106.209 z
M 26.5487,-109.745 L 23.0132,-113.28 L 19.4777,-109.745 L 23.0132,-106.209 z
M 45.7264,-113.245 L 42.2264,-109.745 L 45.7264,-106.245 z
M 3.8,-109.745 L 0.3,-113.245 L 0.3,-106.245 z
M 15.1777,-105.995 L 11.6421,-109.53 L 8.1066,-105.995 L 11.6421,-102.459 z
M 7.6066,-105.995 L 4.07107,-109.53 L 0.535534,-105.995 L 4.07107,-102.459 z
M 45.4619,-105.995 L 41.9264,-109.53 L 38.3909,-105.995 L 41.9264,-102.459 z
M 37.8909,-105.995 L 34.3553,-109.53 L 30.8198,-105.995 L 34.3553,-102.459 z
M 30.3198,-105.995 L 26.7843,-109.53 L 23.2487,-105.995 L 26.7843,-102.459 z
M 22.7487,-105.995 L 19.2132,-109.53 L 15.6777,-105.995 L 19.2132,-102.459 z
M 18.9777,-102.174 L 15.4421,-105.709 L 11.9066,-102.174 L 15.4421,-98.6383 z
M 34.1198,-102.174 L 30.5843,-105.709 L 27.0487,-102.174 L 30.5843,-98.6383 z
M 26.5487,-102.174 L 23.0132,-105.709 L 19.4777,-102.174 L 23.0132,-98.6383 z
M 11.4066,-102.174 L 7.87107,-105.709 L 4.33553,-102.174 L 7.87107,-98.6383 z
M 41.6909,-102.174 L 38.1553,-105.709 L 34.6198,-102.174 L 38.1553,-98.6383 z
M 45.7264,-105.674 L 42.2264,-102.174 L 45.7264,-98.6739 z
M 3.8,-102.174 L 0.3,-105.674 L 0.3,-98.6739 z
M 30.3198,-98.4239 L 26.7843,-101.959 L 23.2487,-98.4239 L 26.7843,-94.8883 z
M 37.8909,-98.4239 L 34.3553,-101.959 L 30.8198,-98.4239 L 34.3553,-94.8883 z
M 22.7487,-98.4239 L 19.2132,-101.959 L 15.6777,-98.4239 L 19.2132,-94.8883 z
M 15.1777,-98.4239 L 11.6421,-101.959 L 8.1066,-98.4239 L 11.6421,-94.8883 z
M 45.4619,-98.4239 L 41.9264,-101.959 L 38.3909,-98.4239 L 41.9264,-94.8883 z
M 7.6066,-98.4239 L 4.07107,-101.959 L 0.535534,-98.4239 L 4.07107,-94.8883 z
M 11.4066,-94.6028 L 7.87107,-98.1383 L 4.33553,-94.6028 L 7.87107,-91.0673 z
M 41.6909,-94.6028 L 38.1553,-98.1383 L 34.6198,-94.6028 L 38.1553,-91.0673 z
M 26.5487,-94.6028 L 23.0132,-98.1383 L 19.4777,-94.6028 L 23.0132,-91.0673 z
M 34.1198,-94.6028 L 30.5843,-98.1383 L 27.0487,-94.6028 L 30.5843,-91.0673 z
M 18.9777,-94.6028 L 15.4421,-98.1383 L 11.9066,-94.6028 L 15.4421,-91.0673 z
M 45.7264,-98.1028 L 42.2264,-94.6028 L 45.7264,-91.1028 z
M 3.8,-94.6028 L 0.3,-98.1028 L 0.3,-91.1028 z
M 45.4619,-90.8528 L 41.9264,-94.3883 L 38.3909,-90.8528 L 41.9264,-87.3173 z
M 22.7487,-90.8528 L 19.2132,-94.3883 L 15.6777,-90.8528 L 19.2132,-87.3173 z
M 30.3198,-90.8528 L 26.7843,-94.3883 L 23.2487,-90.8528 L 26.7843,-87.3173 z
M 7.6066,-90.8528 L 4.07107,-94.3883 L 0.535534,-90.8528 L 4.07107,-87.3173 z
M 37.8909,-90.8528 L 34.3553,-94.3883 L 30.8198,-90.8528 L 34.3553,-87.3173 z
M 15.1777,-90.8528 L 11.6421,-94.3883 L 8.1066,-90.8528 L 11.6421,-87.3173 z
M 26.5487,-87.0317 L 23.0132,-90.5673 L 19.4777,-87.0317 L 23.0132,-83.4962 z
M 41.6909,-87.0317 L 38.1553,-90.5673 L 34.6198,-87.0317 L 38.1553,-83.4962 z
M 11.4066,-87.0317 L 7.87107,-90.5673 L 4.33553,-87.0317 L 7.87107,-83.4962 z
M 34.1198,-87.0317 L 30.5843,-90.5673 L 27.0487,-87.0317 L 30.5843,-83.4962 z
M 18.9777,-87.0317 L 15.4421,-90.5673 L 11.9066,-87.0317 L 15.4421,-83.4962 z
M 45.7264,-90.5317 L 42.2264,-87.0317 L 45.7264,-83.5317 z
M 3.8,-87.0317 L 0.3,-90.5317 L 0.3,-83.5317 z
M 15.1777,-83.2817 L 11.6421,-86.8173 L 8.1066,-83.2817 L 11.6421,-79.7462 z
M 37.8909,-83.2817 L 34.3553,-86.8173 L 30.8198,-83.2817 L 34.3553,-79.7462 z
M 30.3198,-83.2817 L 26.7843,-86.8173 L 23.2487,-83.2817 L 26.7843,-79.7462 z
M 22.7487,-83.2817 L 19.2132,-86.8173 L 15.6777,-83.2817 L 19.2132,-79.7462 z
M 7.6066,-83.2817 L 4.07107,-86.8173 L 0.535534,-83.2817 L 4.07107,-79.7462 z
M 45.4619,-83.2817 L 41.9264,-86.8173 L 38.3909,-83.2817 L 41.9264,-79.7462 z
M 11.4066,-79.4607 L 7.87107,-82.9962 L 4.33553,-79.4607 L 7.87107,-75.9251 z
M 34.1198,-79.4607 L 30.5843,-82.9962 L 27.0487,-79.4607 L 30.5843,-75.9251 z
M 26.5487,-79.4607 L 23.0132,-82.9962 L 19.4777,-79.4607 L 23.0132,-75.9251 z
M 41.6909,-79.4607 L 38.1553,-82.9962 L 34.6198,-79.4607 L 38.1553,-75.9251 z
M 18.9777,-79.4607 L 15.4421,-82.9962 L 11.9066,-79.4607 L 15.4421,-75.9251 z
M 3.8,-79.4607 L 0.3,-82.9607 L 0.3,-75.9607 z
M 45.7264,-82.9607 L 42.2264,-79.4607 L 45.7264,-75.9607 z
M 15.1777,-75.7107 L 11.6421,-79.2462 L 8.1066,-75.7107 L 11.6421,-72.1751 z
M 45.4619,-75.7107 L 41.9264,-79.2462 L 38.3909,-75.7107 L 41.9264,-72.1751 z
M 7.6066,-75.7107 L 4.07107,-79.2462 L 0.535534,-75.7107 L 4.07107,-72.1751 z
M 30.3198,-75.7107 L 26.7843,-79.2462 L 23.2487,-75.7107 L 26.7843,-72.1751 z
M 37.8909,-75.7107 L 34.3553,-79.2462 L 30.8198,-75.7107 L 34.3553,-72.1751 z
M 22.7487,-75.7107 L 19.2132,-79.2462 L 15.6777,-75.7107 L 19.2132,-72.1751 z
M 18.9777,-71.8896 L 15.4421,-75.4251 L 11.9066,-71.8896 L 15.4421,-68.3541 z
M 26.5487,-71.8896 L 23.0132,-75.4251 L 19.4777,-71.8896 L 23.0132,-68.3541 z
M 11.4066,-71.8896 L 7.87107,-75.4251 L 4.33553,-71.8896 L 7.87107,-68.3541 z
M 41.6909,-71.8896 L 38.1553,-75.4251 L 34.6198,-71.8896 L 38.1553,-68.3541 z
M 34.1198,-71.8896 L 30.5843,-75.4251 L 27.0487,-71.8896 L 30.5843,-68.3541 z
M 3.8,-71.8896 L 0.3,-75.3896 L 0.3,-68.3896 z
M 45.7264,-75.3896 L 42.2264,-71.8896 L 45.7264,-68.3896 z
M 37.8909,-68.1396 L 34.3553,-71.6751 L 30.8198,-68.1396 L 34.3553,-64.6041 z
M 15.1777,-68.1396 L 11.6421,-71.6751 L 8.1066,-68.1396 L 11.6421,-64.6041 z
M 30.3198,-68.1396 L 26.7843,-71.6751 L 23.2487,-68.1396 L 26.7843,-64.6041 z
M 22.7487,-68.1396 L 19.2132,-71.6751 L 15.6777,-68.1396 L 19.2132,-64.6041 z
M 7.6066,-68.1396 L 4.07107,-71.6751 L 0.535534,-68.1396 L 4.07107,-64.6041 z
M 45.4619,-68.1396 L 41.9264,-71.6751 L 38.3909,-68.1396 L 41.9264,-64.6041 z
M 34.1198,-64.3185 L 30.5843,-67.8541 L 27.0487,-64.3185 L 30.5843,-60.783 z
M 18.9777,-64.3185 L 15.4421,-67.8541 L 11.9066,-64.3185 L 15.4421,-60.783 z
M 41.6909,-64.3185 L 38.1553,-67.8541 L 34.6198,-64.3185 L 38.1553,-60.783 z
M 11.4066,-64.3185 L 7.87107,-67.8541 L 4.33553,-64.3185 L 7.87107,-60.783 z
M 26.5487,-64.3185 L 23.0132,-67.8541 L 19.4777,-64.3185 L 23.0132,-60.783 z
M 3.8,-64.3185 L 0.3,-67.8185 L 0.3,-60.8185 z
M 45.7264,-67.8185 L 42.2264,-64.3185 L 45.7264,-60.8185 z
M 30.3198,-60.5685 L 26.7843,-64.1041 L 23.2487,-60.5685 L 26.7843,-57.033 z
M 37.8909,-60.5685 L 34.3553,-64.1041 L 30.8198,-60.5685 L 34.3553,-57.033 z
M 45.4619,-60.5685 L 41.9264,-64.1041 L 38.3909,-60.5685 L 41.9264,-57.033 z
M 7.6066,-60.5685 L 4.07107,-64.1041 L 0.535534,-60.5685 L 4.07107,-57.033 z
M 15.1777,-60.5685 L 11.6421,-64.1041 L 8.1066,-60.5685 L 11.6421,-57.033 z
M 22.7487,-60.5685 L 19.2132,-64.1041 L 15.6777,-60.5685 L 19.2132,-57.033 z
M 18.9777,-56.7475 L 15.4421,-60.283 L 11.9066,-56.7475 L 15.4421,-53.2119 z
M 11.4066,-56.7475 L 7.87107,-60.283 L 4.33553,-56.7475 L 7.87107,-53.2119 z
M 26.5487,-56.7475 L 23.0132,-60.283 L 19.4777,-56.7475 L 23.0132,-53.2119 z
M 41.6909,-56.7475 L 38.1553,-60.283 L 34.6198,-56.7475 L 38.1553,-53.2119 z
M 34.1198,-56.7475 L 30.5843,-60.283 L 27.0487,-56.7475 L 30.5843,-53.2119 z
M 45.7264,-60.2475 L 42.2264,-56.7475 L 45.7264,-53.2475 z
M 3.8,-56.7475 L 0.3,-60.2475 L 0.3,-53.2475 z
M 37.8909,-52.9975 L 34.3553,-56.533 L 30.8198,-52.9975 L 34.3553,-49.4619 z
M 45.4619,-52.9975 L 41.9264,-56.533 L 38.3909,-52.9975 L 41.9264,-49.4619 z
M 15.1777,-52.9975 L 11.6421,-56.533 L 8.1066,-52.9975 L 11.6421,-49.4619 z
M 30.3198,-52.9975 L 26.7843,-56.533 L 23.2487,-52.9975 L 26.7843,-49.4619 z
M 7.6066,-52.9975 L 4.07107,-56.533 L 0.535534,-52.9975 L 4.07107,-49.4619 z
M 22.7487,-52.9975 L 19.2132,-56.533 L 15.6777,-52.9975 L 19.2132,-49.4619 z
M 34.1198,-49.1764 L 30.5843,-52.7119 L 27.0487,-49.1764 L 30.5843,-45.6409 z
M 18.9777,-49.1764 L 15.4421,-52.7119 L 11.9066,-49.1764 L 15.4421,-45.6409 z
M 41.6909,-49.1764 L 38.1553,-52.7119 L 34.6198,-49.1764 L 38.1553,-45.6409 z
M 11.4066,-49.1764 L 7.87107,-52.7119 L 4.33553,-49.1764 L 7.87107,-45.6409 z
M 26.5487,-49.1764 L 23.0132,-52.7119 L 19.4777,-49.1764 L 23.0132,-45.6409 z
M 45.7264,-52.6764 L 42.2264,-49.1764 L 45.7264,-45.6764 z
M 3.8,-49.1764 L 0.3,-52.6764 L 0.3,-45.6764 z
M 37.8909,-45.4264 L 34.3553,-48.9619 L 30.8198,-45.4264 L 34.3553,-41.8909 z
M 7.6066,-45.4264 L 4.07107,-48.9619 L 0.535534,-45.4264 L 4.07107,-41.8909 z
M 22.7487,-45.4264 L 19.2132,-48.9619 L 15.6777,-45.4264 L 19.2132,-41.8909 z
M 30.3198,-45.4264 L 26.7843,-48.9619 L 23.2487,-45.4264 L 26.7843,-41.8909 z
M 45.4619,-45.4264 L 41.9264,-48.9619 L 38.3909,-45.4264 L 41.9264,-41.8909 z
M 15.1777,-45.4264 L 11.6421,-48.9619 L 8.1066,-45.4264 L 11.6421,-41.8909 z
M 11.4066,-41.6053 L 7.87107,-45.1409 L 4.33553,-41.6053 L 7.87107,-38.0698 z
M 26.5487,-41.6053 L 23.0132,-45.1409 L 19.4777,-41.6053 L 23.0132,-38.0698 z
M 41.6909,-41.6053 L 38.1553,-45.1409 L 34.6198,-41.6053 L 38.1553,-38.0698 z
M 18.9777,-41.6053 L 15.4421,-45.1409 L 11.9066,-41.6053 L 15.4421,-38.0698 z
M 34.1198,-41.6053 L 30.5843,-45.1409 L 27.0487,-41.6053 L 30.5843,-38.0698 z
M 3.8,-41.6053 L 0.3,-45.1053 L 0.3,-38.1053 z
M 45.7264,-45.1053 L 42.2264,-41.6053 L 45.7264,-38.1053 z
M 15.1777,-37.8553 L 11.6421,-41.3909 L 8.1066,-37.8553 L 11.6421,-34.3198 z
M 7.6066,-37.8553 L 4.07107,-41.3909 L 0.535534,-37.8553 L 4.07107,-34.3198 z
M 22.7487,-37.8553 L 19.2132,-41.3909 L 15.6777,-37.8553 L 19.2132,-34.3198 z
M 30.3198,-37.8553 L 26.7843,-41.3909 L 23.2487,-37.8553 L 26.7843,-34.3198 z
M 37.8909,-37.8553 L 34.3553,-41.3909 L 30.8198,-37.8553 L 34.3553,-34.3198 z
M 45.4619,-37.8553 L 41.9264,-41.3909 L 38.3909,-37.8553 L 41.9264,-34.3198 z
M 41.6909,-34.0343 L 38.1553,-37.5698 L 34.6198,-34.0343 L 38.1553,-30.4987 z
M 11.4066,-34.0343 L 7.87107,-37.5698 L 4.33553,-34.0343 L 7.87107,-30.4987 z
M 18.9777,-34.0343 L 15.4421,-37.5698 L 11.9066,-34.0343 L 15.4421,-30.4987 z
M 26.5487,-34.0343 L 23.0132,-37.5698 L 19.4777,-34.0343 L 23.0132,-30.4987 z
M 34.1198,-34.0343 L 30.5843,-37.5698 L 27.0487,-34.0343 L 30.5843,-30.4987 z
M 45.7264,-37.5343 L 42.2264,-34.0343 L 45.7264,-30.5343 z
M 3.8,-34.0343 L 0.3,-37.5343 L 0.3,-30.5343 z
M 15.1777,-30.2843 L 11.6421,-33.8198 L 8.1066,-30.2843 L 11.6421,-26.7487 z
M 7.6066,-30.2843 L 4.07107,-33.8198 L 0.535534,-30.2843 L 4.07107,-26.7487 z
M 37.8909,-30.2843 L 34.3553,-33.8198 L 30.8198,-30.2843 L 34.3553,-26.7487 z
M 45.4619,-30.2843 L 41.9264,-33.8198 L 38.3909,-30.2843 L 41.9264,-26.7487 z
M 30.3198,-30.2843 L 26.7843,-33.8198 L 23.2487,-30.2843 L 26.7843,-26.7487 z
M 22.7487,-30.2843 L 19.2132,-33.8198 L 15.6777,-30.2843 L 19.2132,-26.7487 z
M 11.4066,-26.4632 L 7.87107,-29.9987 L 4.33553,-26.4632 L 7.87107,-22.9277 z
M 41.6909,-26.4632 L 38.1553,-29.9987 L 34.6198,-26.4632 L 38.1553,-22.9277 z
M 18.9777,-26.4632 L 15.4421,-29.9987 L 11.9066,-26.4632 L 15.4421,-22.9277 z
M 26.5487,-26.4632 L 23.0132,-29.9987 L 19.4777,-26.4632 L 23.0132,-22.9277 z
M 34.1198,-26.4632 L 30.5843,-29.9987 L 27.0487,-26.4632 L 30.5843,-22.9277 z
M 45.7264,-29.9632 L 42.2264,-26.4632 L 45.7264,-22.9632 z
M 3.8,-26.4632 L 0.3,-29.9632 L 0.3,-22.9632 z
M 45.4619,-22.7132 L 41.9264,-26.2487 L 38.3909,-22.7132 L 41.9264,-19.1777 z
M 7.6066,-22.7132 L 4.07107,-26.2487 L 0.535534,-22.7132 L 4.07107,-19.1777 z
M 37.8909,-22.7132 L 34.3553,-26.2487 L 30.8198,-22.7132 L 34.3553,-19.1777 z
M 22.7487,-22.7132 L 19.2132,-26.2487 L 15.6777,-22.7132 L 19.2132,-19.1777 z
M 30.3198,-22.7132 L 26.7843,-26.2487 L 23.2487,-22.7132 L 26.7843,-19.1777 z
M 15.1777,-22.7132 L 11.6421,-26.2487 L 8.1066,-22.7132 L 11.6421,-19.1777 z
M 41.6909,-18.8921 L 38.1553,-22.4277 L 34.6198,-18.8921 L 38.1553,-15.3566 z
M 11.4066,-18.8921 L 7.87107,-22.4277 L 4.33553,-18.8921 L 7.87107,-15.3566 z
M 26.5487,-18.8921 L 23.0132,-22.4277 L 19.4777,-18.8921 L 23.0132,-15.3566 z
M 34.1198,-18.8921 L 30.5843,-22.4277 L 27.0487,-18.8921 L 30.5843,-15.3566 z
M 18.9777,-18.8921 L 15.4421,-22.4277 L 11.9066,-18.8921 L 15.4421,-15.3566 z
M 3.8,-18.8921 L 0.3,-22.3921 L 0.3,-15.3921 z
M 45.7264,-22.3921 L 42.2264,-18.8921 L 45.7264,-15.3921 z
M 45.4619,-15.1421 L 41.9264,-18.6777 L 38.3909,-15.1421 L 41.9264,-11.6066 z
M 15.1777,-15.1421 L 11.6421,-18.6777 L 8.1066,-15.1421 L 11.6421,-11.6066 z
M 22.7487,-15.1421 L 19.2132,-18.6777 L 15.6777,-15.1421 L 19.2132,-11.6066 z
M 30.3198,-15.1421 L 26.7843,-18.6777 L 23.2487,-15.1421 L 26.7843,-11.6066 z
M 37.8909,-15.1421 L 34.3553,-18.6777 L 30.8198,-15.1421 L 34.3553,-11.6066 z
M 7.6066,-15.1421 L 4.07107,-18.6777 L 0.535534,-15.1421 L 4.07107,-11.6066 z
M 41.6909,-11.3211 L 38.1553,-14.8566 L 34.6198,-11.3211 L 38.1553,-7.78553 z
M 34.1198,-11.3211 L 30.5843,-14.8566 L 27.0487,-11.3211 L 30.5843,-7.78553 z
M 18.9777,-11.3211 L 15.4421,-14.8566 L 11.9066,-11.3211 L 15.4421,-7.78553 z
M 26.5487,-11.3211 L 23.0132,-14.8566 L 19.4777,-11.3211 L 23.0132,-7.78553 z
M 11.4066,-11.3211 L 7.87107,-14.8566 L 4.33553,-11.3211 L 7.87107,-7.78553 z
M 3.8,-11.3211 L 0.3,-14.8211 L 0.3,-7.82107 z
M 45.7264,-14.8211 L 42.2264,-11.3211 L 45.7264,-7.82107 z
M 22.7487,-7.57107 L 19.2132,-11.1066 L 15.6777,-7.57107 L 19.2132,-4.03553 z
M 45.4619,-7.57107 L 41.9264,-11.1066 L 38.3909,-7.57107 L 41.9264,-4.03553 z
M 7.6066,-7.57107 L 4.07107,-11.1066 L 0.535534,-7.57107 L 4.07107,-4.03553 z
M 37.8909,-7.57107 L 34.3553,-11.1066 L 30.8198,-7.57107 L 34.3553,-4.03553 z
M 30.3198,-7.57107 L 26.7843,-11.1066 L 23.2487,-7.57107 L 26.7843,-4.03553 z
M 15.1777,-7.57107 L 11.6421,-11.1066 L 8.1066,-7.57107 L 11.6421,-4.03553 z
M 34.1198,-3.75 L 30.5843,-7.28553 L 27.0487,-3.75 L 30.5843,-0.214466 z
M 18.9777,-3.75 L 15.4421,-7.28553 L 11.9066,-3.75 L 15.4421,-0.214466 z
M 11.4066,-3.75 L 7.87107,-7.28553 L 4.33553,-3.75 L 7.87107,-0.214466 z
M 41.6909,-3.75 L 38.1553,-7.28553 L 34.6198,-3.75 L 38.1553,-0.214466 z
M 26.5487,-3.75 L 23.0132,-7.28553 L 19.4777,-3.75 L 23.0132,-0.214466 z
M 45.7264,-7.25 L 42.2264,-3.75 L 45.7264,-0.25 z
M 3.8,-3.75 L 0.3,-7.25 L 0.3,-0.25 z
M 34.3553,-3.5 L 30.8553,-0 L 37.8553,-0 z
M 26.7843,-3.5 L 23.2843,-0 L 30.2843,-0 z
M 19.2132,-3.5 L 15.7132,-0 L 22.7132,-0 z
M 11.6421,-3.5 L 8.14214,-0 L 15.1421,-0 z
M 4.07107,-3.5 L 0.571068,-0 L 7.57107,-0 z
M 41.9264,-3.5 L 38.4264,-0 L 45.4264,-0 z
" stroke="black" fill="lightgray" stroke-width="0.5"/>
</svg>
