999
DXF from OpenSCAD
  0
SECTION
  2
HEADER
  9
$ACADVER
  1
AC1006
  9
$INSBASE
 10
0.0
 20
0.0
 30
0.0
  9
$EXTMIN
 10
0.3
 20
0
  9
$EXTMAX
 10
45.7264
 20
113.566
  9
$LINMIN
 10
0.3
 20
0
  9
$LINMAX
 10
45.7264
 20
113.566
  0
ENDSEC
  0
SECTION
  2
TABLES
  0
TABLE
  2
LTYPE
 70
1
  0
LTYPE
  2
CONTINUOUS
 70
64
  3
Solid line
 72
65
 73
0
 40
0.000000
  0
ENDTAB
  0
TABLE
  2
LAYER
 70
6
  0
LAYER
  2
0
 70
64
 62
7
  6
CONTINUOUS
  0
ENDTAB
  0
TABLE
  2
STYLE
 70
0
  0
ENDTAB
  0
ENDSEC
  0
SECTION
  2
BLOCKS
  0
ENDSEC
  0
SECTION
  2
ENTITIES
  0
LWPOLYLINE
100
AcDbEntity
  8
0
100
AcDbPolyline
 90
3
 70
1
 10
45.4264
 20
113.566
 10
38.4264
 20
113.566
 10
41.9264
 20
110.066
  0
LWPOLYLINE
100
AcDbEntity
  8
0
100
AcDbPolyline
 90
3
 70
1
 10
37.8553
 20
113.566
 10
30.8553
 20
113.566
 10
34.3553
 20
110.066
  0
LWPOLYLINE
100
AcDbEntity
  8
0
100
AcDbPolyline
 90
3
 70
1
 10
30.2843
 20
113.566
 10
23.2843
 20
113.566
 10
26.7843
 20
110.066
  0
LWPOLYLINE
100
AcDbEntity
  8
0
100
AcDbPolyline
 90
3
 70
1
 10
22.7132
 20
113.566
 10
15.7132
 20
113.566
 10
19.2132
 20
110.066
  0
LWPOLYLINE
100
AcDbEntity
  8
0
100
AcDbPolyline
 90
3
 70
1
 10
15.1421
 20
113.566
 10
8.14214
 20
113.566
 10
11.6421
 20
110.066
  0
LWPOLYLINE
100
AcDbEntity
  8
0
100
AcDbPolyline
 90
3
 70
1
 10
7.57107
 20
113.566
 10
0.571068
 20
113.566
 10
4.07107
 20
110.066
  0
LWPOLYLINE
100
AcDbEntity
  8
0
100
AcDbPolyline
 90
4
 70
1
 10
18.9777
 20
109.745
 10
15.4421
 20
113.28
 10
11.9066
 20
109.745
 10
15.4421
 20
106.209
  0
LWPOLYLINE
100
AcDbEntity
  8
0
100
AcDbPolyline
 90
4
 70
1
 10
41.6909
 20
109.745
 10
38.1553
 20
113.28
 10
34.6198
 20
109.745
 10
38.1553
 20
106.209
  0
LWPOLYLINE
100
AcDbEntity
  8
0
100
AcDbPolyline
 90
4
 70
1
 10
11.4066
 20
109.745
 10
7.87107
 20
113.28
 10
4.33553
 20
109.745
 10
7.87107
 20
106.209
  0
LWPOLYLINE
100
AcDbEntity
  8
0
100
AcDbPolyline
 90
4
 70
1
 10
34.1198
 20
109.745
 10
30.5843
 20
113.28
 10
27.0487
 20
109.745
 10
30.5843
 20
106.209
  0
LWPOLYLINE
100
AcDbEntity
  8
0
100
AcDbPolyline
 90
4
 70
1
 10
26.5487
 20
109.745
 10
23.0132
 20
113.28
 10
19.4777
 20
109.745
 10
23.0132
 20
106.209
  0
LWPOLYLINE
100
AcDbEntity
  8
0
100
AcDbPolyline
 90
3
 70
1
 10
45.7264
 20
113.245
 10
42.2264
 20
109.745
 10
45.7264
 20
106.245
  0
LWPOLYLINE
100
AcDbEntity
  8
0
100
AcDbPolyline
 90
3
 70
1
 10
3.8
 20
109.745
 10
0.3
 20
113.245
 10
0.3
 20
106.245
  0
LWPOLYLINE
100
AcDbEntity
  8
0
100
AcDbPolyline
 90
4
 70
1
 10
15.1777
 20
105.995
 10
11.6421
 20
109.53
 10
8.1066
 20
105.995
 10
11.6421
 20
102.459
  0
LWPOLYLINE
100
AcDbEntity
  8
0
100
AcDbPolyline
 90
4
 70
1
 10
7.6066
 20
105.995
 10
4.07107
 20
109.53
 10
0.535534
 20
105.995
 10
4.07107
 20
102.459
  0
LWPOLYLINE
100
AcDbEntity
  8
0
100
AcDbPolyline
 90
4
 70
1
 10
45.4619
 20
105.995
 10
41.9264
 20
109.53
 10
38.3909
 20
105.995
 10
41.9264
 20
102.459
  0
LWPOLYLINE
100
AcDbEntity
  8
0
100
AcDbPolyline
 90
4
 70
1
 10
37.8909
 20
105.995
 10
34.3553
 20
109.53
 10
30.8198
 20
105.995
 10
34.3553
 20
102.459
  0
LWPOLYLINE
100
AcDbEntity
  8
0
100
AcDbPolyline
 90
4
 70
1
 10
30.3198
 20
105.995
 10
26.7843
 20
109.53
 10
23.2487
 20
105.995
 10
26.7843
 20
102.459
  0
LWPOLYLINE
100
AcDbEntity
  8
0
100
AcDbPolyline
 90
4
 70
1
 10
22.7487
 20
105.995
 10
19.2132
 20
109.53
 10
15.6777
 20
105.995
 10
19.2132
 20
102.459
  0
LWPOLYLINE
100
AcDbEntity
  8
0
100
AcDbPolyline
 90
4
 70
1
 10
18.9777
 20
102.174
 10
15.4421
 20
105.709
 10
11.9066
 20
102.174
 10
15.4421
 20
98.6383
  0
LWPOLYLINE
100
AcDbEntity
  8
0
100
AcDbPolyline
 90
4
 70
1
 10
34.1198
 20
102.174
 10
30.5843
 20
105.709
 10
27.0487
 20
102.174
 10
30.5843
 20
98.6383
  0
LWPOLYLINE
100
AcDbEntity
  8
0
100
AcDbPolyline
 90
4
 70
1
 10
26.5487
 20
102.174
 10
23.0132
 20
105.709
 10
19.4777
 20
102.174
 10
23.0132
 20
98.6383
  0
LWPOLYLINE
100
AcDbEntity
  8
0
100
AcDbPolyline
 90
4
 70
1
 10
11.4066
 20
102.174
 10
7.87107
 20
105.709
 10
4.33553
 20
102.174
 10
7.87107
 20
98.6383
  0
LWPOLYLINE
100
AcDbEntity
  8
0
100
AcDbPolyline
 90
4
 70
1
 10
41.6909
 20
102.174
 10
38.1553
 20
105.709
 10
34.6198
 20
102.174
 10
38.1553
 20
98.6383
  0
LWPOLYLINE
100
AcDbEntity
  8
0
100
AcDbPolyline
 90
3
 70
1
 10
45.7264
 20
105.674
 10
42.2264
 20
102.174
 10
45.7264
 20
98.6739
  0
LWPOLYLINE
100
AcDbEntity
  8
0
100
AcDbPolyline
 90
3
 70
1
 10
3.8
 20
102.174
 10
0.3
 20
105.674
 10
0.3
 20
98.6739
  0
LWPOLYLINE
100
AcDbEntity
  8
0
100
AcDbPolyline
 90
4
 70
1
 10
30.3198
 20
98.4239
 10
26.7843
 20
101.959
 10
23.2487
 20
98.4239
 10
26.7843
 20
94.8883
  0
LWPOLYLINE
100
AcDbEntity
  8
0
100
AcDbPolyline
 90
4
 70
1
 10
37.8909
 20
98.4239
 10
34.3553
 20
101.959
 10
30.8198
 20
98.4239
 10
34.3553
 20
94.8883
  0
LWPOLYLINE
100
AcDbEntity
  8
0
100
AcDbPolyline
 90
4
 70
1
 10
22.7487
 20
98.4239
 10
19.2132
 20
101.959
 10
15.6777
 20
98.4239
 10
19.2132
 20
94.8883
  0
LWPOLYLINE
100
AcDbEntity
  8
0
100
AcDbPolyline
 90
4
 70
1
 10
15.1777
 20
98.4239
 10
11.6421
 20
101.959
 10
8.1066
 20
98.4239
 10
11.6421
 20
94.8883
  0
LWPOLYLINE
100
AcDbEntity
  8
0
100
AcDbPolyline
 90
4
 70
1
 10
45.4619
 20
98.4239
 10
41.9264
 20
101.959
 10
38.3909
 20
98.4239
 10
41.9264
 20
94.8883
  0
LWPOLYLINE
100
AcDbEntity
  8
0
100
AcDbPolyline
 90
4
 70
1
 10
7.6066
 20
98.4239
 10
4.07107
 20
101.959
 10
0.535534
 20
98.4239
 10
4.07107
 20
94.8883
  0
LWPOLYLINE
100
AcDbEntity
  8
0
100
AcDbPolyline
 90
4
 70
1
 10
11.4066
 20
94.6028
 10
7.87107
 20
98.1383
 10
4.33553
 20
94.6028
 10
7.87107
 20
91.0673
  0
LWPOLYLINE
100
AcDbEntity
  8
0
100
AcDbPolyline
 90
4
 70
1
 10
41.6909
 20
94.6028
 10
38.1553
 20
98.1383
 10
34.6198
 20
94.6028
 10
38.1553
 20
91.0673
  0
LWPOLYLINE
100
AcDbEntity
  8
0
100
AcDbPolyline
 90
4
 70
1
 10
26.5487
 20
94.6028
 10
23.0132
 20
98.1383
 10
19.4777
 20
94.6028
 10
23.0132
 20
91.0673
  0
LWPOLYLINE
100
AcDbEntity
  8
0
100
AcDbPolyline
 90
4
 70
1
 10
34.1198
 20
94.6028
 10
30.5843
 20
98.1383
 10
27.0487
 20
94.6028
 10
30.5843
 20
91.0673
  0
LWPOLYLINE
100
AcDbEntity
  8
0
100
AcDbPolyline
 90
4
 70
1
 10
18.9777
 20
94.6028
 10
15.4421
 20
98.1383
 10
11.9066
 20
94.6028
 10
15.4421
 20
91.0673
  0
LWPOLYLINE
100
AcDbEntity
  8
0
100
AcDbPolyline
 90
3
 70
1
 10
45.7264
 20
98.1028
 10
42.2264
 20
94.6028
 10
45.7264
 20
91.1028
  0
LWPOLYLINE
100
AcDbEntity
  8
0
100
AcDbPolyline
 90
3
 70
1
 10
3.8
 20
94.6028
 10
0.3
 20
98.1028
 10
0.3
 20
91.1028
  0
LWPOLYLINE
100
AcDbEntity
  8
0
100
AcDbPolyline
 90
4
 70
1
 10
45.4619
 20
90.8528
 10
41.9264
 20
94.3883
 10
38.3909
 20
90.8528
 10
41.9264
 20
87.3173
  0
LWPOLYLINE
100
AcDbEntity
  8
0
100
AcDbPolyline
 90
4
 70
1
 10
22.7487
 20
90.8528
 10
19.2132
 20
94.3883
 10
15.6777
 20
90.8528
 10
19.2132
 20
87.3173
  0
LWPOLYLINE
100
AcDbEntity
  8
0
100
AcDbPolyline
 90
4
 70
1
 10
30.3198
 20
90.8528
 10
26.7843
 20
94.3883
 10
23.2487
 20
90.8528
 10
26.7843
 20
87.3173
  0
LWPOLYLINE
100
AcDbEntity
  8
0
100
AcDbPolyline
 90
4
 70
1
 10
7.6066
 20
90.8528
 10
4.07107
 20
94.3883
 10
0.535534
 20
90.8528
 10
4.07107
 20
87.3173
  0
LWPOLYLINE
100
AcDbEntity
  8
0
100
AcDbPolyline
 90
4
 70
1
 10
37.8909
 20
90.8528
 10
34.3553
 20
94.3883
 10
30.8198
 20
90.8528
 10
34.3553
 20
87.3173
  0
LWPOLYLINE
100
AcDbEntity
  8
0
100
AcDbPolyline
 90
4
 70
1
 10
15.1777
 20
90.8528
 10
11.6421
 20
94.3883
 10
8.1066
 20
90.8528
 10
11.6421
 20
87.3173
  0
LWPOLYLINE
100
AcDbEntity
  8
0
100
AcDbPolyline
 90
4
 70
1
 10
26.5487
 20
87.0317
 10
23.0132
 20
90.5673
 10
19.4777
 20
87.0317
 10
23.0132
 20
83.4962
  0
LWPOLYLINE
100
AcDbEntity
  8
0
100
AcDbPolyline
 90
4
 70
1
 10
41.6909
 20
87.0317
 10
38.1553
 20
90.5673
 10
34.6198
 20
87.0317
 10
38.1553
 20
83.4962
  0
LWPOLYLINE
100
AcDbEntity
  8
0
100
AcDbPolyline
 90
4
 70
1
 10
11.4066
 20
87.0317
 10
7.87107
 20
90.5673
 10
4.33553
 20
87.0317
 10
7.87107
 20
83.4962
  0
LWPOLYLINE
100
AcDbEntity
  8
0
100
AcDbPolyline
 90
4
 70
1
 10
34.1198
 20
87.0317
 10
30.5843
 20
90.5673
 10
27.0487
 20
87.0317
 10
30.5843
 20
83.4962
  0
LWPOLYLINE
100
AcDbEntity
  8
0
100
AcDbPolyline
 90
4
 70
1
 10
18.9777
 20
87.0317
 10
15.4421
 20
90.5673
 10
11.9066
 20
87.0317
 10
15.4421
 20
83.4962
  0
LWPOLYLINE
100
AcDbEntity
  8
0
100
AcDbPolyline
 90
3
 70
1
 10
45.7264
 20
90.5317
 10
42.2264
 20
87.0317
 10
45.7264
 20
83.5317
  0
LWPOLYLINE
100
AcDbEntity
  8
0
100
AcDbPolyline
 90
3
 70
1
 10
3.8
 20
87.0317
 10
0.3
 20
90.5317
 10
0.3
 20
83.5317
  0
LWPOLYLINE
100
AcDbEntity
  8
0
100
AcDbPolyline
 90
4
 70
1
 10
15.1777
 20
83.2817
 10
11.6421
 20
86.8173
 10
8.1066
 20
83.2817
 10
11.6421
 20
79.7462
  0
LWPOLYLINE
100
AcDbEntity
  8
0
100
AcDbPolyline
 90
4
 70
1
 10
37.8909
 20
83.2817
 10
34.3553
 20
86.8173
 10
30.8198
 20
83.2817
 10
34.3553
 20
79.7462
  0
LWPOLYLINE
100
AcDbEntity
  8
0
100
AcDbPolyline
 90
4
 70
1
 10
30.3198
 20
83.2817
 10
26.7843
 20
86.8173
 10
23.2487
 20
83.2817
 10
26.7843
 20
79.7462
  0
LWPOLYLINE
100
AcDbEntity
  8
0
100
AcDbPolyline
 90
4
 70
1
 10
22.7487
 20
83.2817
 10
19.2132
 20
86.8173
 10
15.6777
 20
83.2817
 10
19.2132
 20
79.7462
  0
LWPOLYLINE
100
AcDbEntity
  8
0
100
AcDbPolyline
 90
4
 70
1
 10
7.6066
 20
83.2817
 10
4.07107
 20
86.8173
 10
0.535534
 20
83.2817
 10
4.07107
 20
79.7462
  0
LWPOLYLINE
100
AcDbEntity
  8
0
100
AcDbPolyline
 90
4
 70
1
 10
45.4619
 20
83.2817
 10
41.9264
 20
86.8173
 10
38.3909
 20
83.2817
 10
41.9264
 20
79.7462
  0
LWPOLYLINE
100
AcDbEntity
  8
0
100
AcDbPolyline
 90
4
 70
1
 10
11.4066
 20
79.4607
 10
7.87107
 20
82.9962
 10
4.33553
 20
79.4607
 10
7.87107
 20
75.9251
  0
LWPOLYLINE
100
AcDbEntity
  8
0
100
AcDbPolyline
 90
4
 70
1
 10
34.1198
 20
79.4607
 10
30.5843
 20
82.9962
 10
27.0487
 20
79.4607
 10
30.5843
 20
75.9251
  0
LWPOLYLINE
100
AcDbEntity
  8
0
100
AcDbPolyline
 90
4
 70
1
 10
26.5487
 20
79.4607
 10
23.0132
 20
82.9962
 10
19.4777
 20
79.4607
 10
23.0132
 20
75.9251
  0
LWPOLYLINE
100
AcDbEntity
  8
0
100
AcDbPolyline
 90
4
 70
1
 10
41.6909
 20
79.4607
 10
38.1553
 20
82.9962
 10
34.6198
 20
79.4607
 10
38.1553
 20
75.9251
  0
LWPOLYLINE
100
AcDbEntity
  8
0
100
AcDbPolyline
 90
4
 70
1
 10
18.9777
 20
79.4607
 10
15.4421
 20
82.9962
 10
11.9066
 20
79.4607
 10
15.4421
 20
75.9251
  0
LWPOLYLINE
100
AcDbEntity
  8
0
100
AcDbPolyline
 90
3
 70
1
 10
3.8
 20
79.4607
 10
0.3
 20
82.9607
 10
0.3
 20
75.9607
  0
LWPOLYLINE
100
AcDbEntity
  8
0
100
AcDbPolyline
 90
3
 70
1
 10
45.7264
 20
82.9607
 10
42.2264
 20
79.4607
 10
45.7264
 20
75.9607
  0
LWPOLYLINE
100
AcDbEntity
  8
0
100
AcDbPolyline
 90
4
 70
1
 10
15.1777
 20
75.7107
 10
11.6421
 20
79.2462
 10
8.1066
 20
75.7107
 10
11.6421
 20
72.1751
  0
LWPOLYLINE
100
AcDbEntity
  8
0
100
AcDbPolyline
 90
4
 70
1
 10
45.4619
 20
75.7107
 10
41.9264
 20
79.2462
 10
38.3909
 20
75.7107
 10
41.9264
 20
72.1751
  0
LWPOLYLINE
100
AcDbEntity
  8
0
100
AcDbPolyline
 90
4
 70
1
 10
7.6066
 20
75.7107
 10
4.07107
 20
79.2462
 10
0.535534
 20
75.7107
 10
4.07107
 20
72.1751
  0
LWPOLYLINE
100
AcDbEntity
  8
0
100
AcDbPolyline
 90
4
 70
1
 10
30.3198
 20
75.7107
 10
26.7843
 20
79.2462
 10
23.2487
 20
75.7107
 10
26.7843
 20
72.1751
  0
LWPOLYLINE
100
AcDbEntity
  8
0
100
AcDbPolyline
 90
4
 70
1
 10
37.8909
 20
75.7107
 10
34.3553
 20
79.2462
 10
30.8198
 20
75.7107
 10
34.3553
 20
72.1751
  0
LWPOLYLINE
100
AcDbEntity
  8
0
100
AcDbPolyline
 90
4
 70
1
 10
22.7487
 20
75.7107
 10
19.2132
 20
79.2462
 10
15.6777
 20
75.7107
 10
19.2132
 20
72.1751
  0
LWPOLYLINE
100
AcDbEntity
  8
0
100
AcDbPolyline
 90
4
 70
1
 10
18.9777
 20
71.8896
 10
15.4421
 20
75.4251
 10
11.9066
 20
71.8896
 10
15.4421
 20
68.3541
  0
LWPOLYLINE
100
AcDbEntity
  8
0
100
AcDbPolyline
 90
4
 70
1
 10
26.5487
 20
71.8896
 10
23.0132
 20
75.4251
 10
19.4777
 20
71.8896
 10
23.0132
 20
68.3541
  0
LWPOLYLINE
100
AcDbEntity
  8
0
100
AcDbPolyline
 90
4
 70
1
 10
11.4066
 20
71.8896
 10
7.87107
 20
75.4251
 10
4.33553
 20
71.8896
 10
7.87107
 20
68.3541
  0
LWPOLYLINE
100
AcDbEntity
  8
0
100
AcDbPolyline
 90
4
 70
1
 10
41.6909
 20
71.8896
 10
38.1553
 20
75.4251
 10
34.6198
 20
71.8896
 10
38.1553
 20
68.3541
  0
LWPOLYLINE
100
AcDbEntity
  8
0
100
AcDbPolyline
 90
4
 70
1
 10
34.1198
 20
71.8896
 10
30.5843
 20
75.4251
 10
27.0487
 20
71.8896
 10
30.5843
 20
68.3541
  0
LWPOLYLINE
100
AcDbEntity
  8
0
100
AcDbPolyline
 90
3
 70
1
 10
3.8
 20
71.8896
 10
0.3
 20
75.3896
 10
0.3
 20
68.3896
  0
LWPOLYLINE
100
AcDbEntity
  8
0
100
AcDbPolyline
 90
3
 70
1
 10
45.7264
 20
75.3896
 10
42.2264
 20
71.8896
 10
45.7264
 20
68.3896
  0
LWPOLYLINE
100
AcDbEntity
  8
0
100
AcDbPolyline
 90
4
 70
1
 10
37.8909
 20
68.1396
 10
34.3553
 20
71.6751
 10
30.8198
 20
68.1396
 10
34.3553
 20
64.6041
  0
LWPOLYLINE
100
AcDbEntity
  8
0
100
AcDbPolyline
 90
4
 70
1
 10
15.1777
 20
68.1396
 10
11.6421
 20
71.6751
 10
8.1066
 20
68.1396
 10
11.6421
 20
64.6041
  0
LWPOLYLINE
100
AcDbEntity
  8
0
100
AcDbPolyline
 90
4
 70
1
 10
30.3198
 20
68.1396
 10
26.7843
 20
71.6751
 10
23.2487
 20
68.1396
 10
26.7843
 20
64.6041
  0
LWPOLYLINE
100
AcDbEntity
  8
0
100
AcDbPolyline
 90
4
 70
1
 10
22.7487
 20
68.1396
 10
19.2132
 20
71.6751
 10
15.6777
 20
68.1396
 10
19.2132
 20
64.6041
  0
LWPOLYLINE
100
AcDbEntity
  8
0
100
AcDbPolyline
 90
4
 70
1
 10
7.6066
 20
68.1396
 10
4.07107
 20
71.6751
 10
0.535534
 20
68.1396
 10
4.07107
 20
64.6041
  0
LWPOLYLINE
100
AcDbEntity
  8
0
100
AcDbPolyline
 90
4
 70
1
 10
45.4619
 20
68.1396
 10
41.9264
 20
71.6751
 10
38.3909
 20
68.1396
 10
41.9264
 20
64.6041
  0
LWPOLYLINE
100
AcDbEntity
  8
0
100
AcDbPolyline
 90
4
 70
1
 10
34.1198
 20
64.3185
 10
30.5843
 20
67.8541
 10
27.0487
 20
64.3185
 10
30.5843
 20
60.783
  0
LWPOLYLINE
100
AcDbEntity
  8
0
100
AcDbPolyline
 90
4
 70
1
 10
18.9777
 20
64.3185
 10
15.4421
 20
67.8541
 10
11.9066
 20
64.3185
 10
15.4421
 20
60.783
  0
LWPOLYLINE
100
AcDbEntity
  8
0
100
AcDbPolyline
 90
4
 70
1
 10
41.6909
 20
64.3185
 10
38.1553
 20
67.8541
 10
34.6198
 20
64.3185
 10
38.1553
 20
60.783
  0
LWPOLYLINE
100
AcDbEntity
  8
0
100
AcDbPolyline
 90
4
 70
1
 10
11.4066
 20
64.3185
 10
7.87107
 20
67.8541
 10
4.33553
 20
64.3185
 10
7.87107
 20
60.783
  0
LWPOLYLINE
100
AcDbEntity
  8
0
100
AcDbPolyline
 90
4
 70
1
 10
26.5487
 20
64.3185
 10
23.0132
 20
67.8541
 10
19.4777
 20
64.3185
 10
23.0132
 20
60.783
  0
LWPOLYLINE
100
AcDbEntity
  8
0
100
AcDbPolyline
 90
3
 70
1
 10
3.8
 20
64.3185
 10
0.3
 20
67.8185
 10
0.3
 20
60.8185
  0
LWPOLYLINE
100
AcDbEntity
  8
0
100
AcDbPolyline
 90
3
 70
1
 10
45.7264
 20
67.8185
 10
42.2264
 20
64.3185
 10
45.7264
 20
60.8185
  0
LWPOLYLINE
100
AcDbEntity
  8
0
100
AcDbPolyline
 90
4
 70
1
 10
30.3198
 20
60.5685
 10
26.7843
 20
64.1041
 10
23.2487
 20
60.5685
 10
26.7843
 20
57.033
  0
LWPOLYLINE
100
AcDbEntity
  8
0
100
AcDbPolyline
 90
4
 70
1
 10
37.8909
 20
60.5685
 10
34.3553
 20
64.1041
 10
30.8198
 20
60.5685
 10
34.3553
 20
57.033
  0
LWPOLYLINE
100
AcDbEntity
  8
0
100
AcDbPolyline
 90
4
 70
1
 10
45.4619
 20
60.5685
 10
41.9264
 20
64.1041
 10
38.3909
 20
60.5685
 10
41.9264
 20
57.033
  0
LWPOLYLINE
100
AcDbEntity
  8
0
100
AcDbPolyline
 90
4
 70
1
 10
7.6066
 20
60.5685
 10
4.07107
 20
64.1041
 10
0.535534
 20
60.5685
 10
4.07107
 20
57.033
  0
LWPOLYLINE
100
AcDbEntity
  8
0
100
AcDbPolyline
 90
4
 70
1
 10
15.1777
 20
60.5685
 10
11.6421
 20
64.1041
 10
8.1066
 20
60.5685
 10
11.6421
 20
57.033
  0
LWPOLYLINE
100
AcDbEntity
  8
0
100
AcDbPolyline
 90
4
 70
1
 10
22.7487
 20
60.5685
 10
19.2132
 20
64.1041
 10
15.6777
 20
60.5685
 10
19.2132
 20
57.033
  0
LWPOLYLINE
100
AcDbEntity
  8
0
100
AcDbPolyline
 90
4
 70
1
 10
18.9777
 20
56.7475
 10
15.4421
 20
60.283
 10
11.9066
 20
56.7475
 10
15.4421
 20
53.2119
  0
LWPOLYLINE
100
AcDbEntity
  8
0
100
AcDbPolyline
 90
4
 70
1
 10
11.4066
 20
56.7475
 10
7.87107
 20
60.283
 10
4.33553
 20
56.7475
 10
7.87107
 20
53.2119
  0
LWPOLYLINE
100
AcDbEntity
  8
0
100
AcDbPolyline
 90
4
 70
1
 10
26.5487
 20
56.7475
 10
23.0132
 20
60.283
 10
19.4777
 20
56.7475
 10
23.0132
 20
53.2119
  0
LWPOLYLINE
100
AcDbEntity
  8
0
100
AcDbPolyline
 90
4
 70
1
 10
41.6909
 20
56.7475
 10
38.1553
 20
60.283
 10
34.6198
 20
56.7475
 10
38.1553
 20
53.2119
  0
LWPOLYLINE
100
AcDbEntity
  8
0
100
AcDbPolyline
 90
4
 70
1
 10
34.1198
 20
56.7475
 10
30.5843
 20
60.283
 10
27.0487
 20
56.7475
 10
30.5843
 20
53.2119
  0
LWPOLYLINE
100
AcDbEntity
  8
0
100
AcDbPolyline
 90
3
 70
1
 10
45.7264
 20
60.2475
 10
42.2264
 20
56.7475
 10
45.7264
 20
53.2475
  0
LWPOLYLINE
100
AcDbEntity
  8
0
100
AcDbPolyline
 90
3
 70
1
 10
3.8
 20
56.7475
 10
0.3
 20
60.2475
 10
0.3
 20
53.2475
  0
LWPOLYLINE
100
AcDbEntity
  8
0
100
AcDbPolyline
 90
4
 70
1
 10
37.8909
 20
52.9975
 10
34.3553
 20
56.533
 10
30.8198
 20
52.9975
 10
34.3553
 20
49.4619
  0
LWPOLYLINE
100
AcDbEntity
  8
0
100
AcDbPolyline
 90
4
 70
1
 10
45.4619
 20
52.9975
 10
41.9264
 20
56.533
 10
38.3909
 20
52.9975
 10
41.9264
 20
49.4619
  0
LWPOLYLINE
100
AcDbEntity
  8
0
100
AcDbPolyline
 90
4
 70
1
 10
15.1777
 20
52.9975
 10
11.6421
 20
56.533
 10
8.1066
 20
52.9975
 10
11.6421
 20
49.4619
  0
LWPOLYLINE
100
AcDbEntity
  8
0
100
AcDbPolyline
 90
4
 70
1
 10
30.3198
 20
52.9975
 10
26.7843
 20
56.533
 10
23.2487
 20
52.9975
 10
26.7843
 20
49.4619
  0
LWPOLYLINE
100
AcDbEntity
  8
0
100
AcDbPolyline
 90
4
 70
1
 10
7.6066
 20
52.9975
 10
4.07107
 20
56.533
 10
0.535534
 20
52.9975
 10
4.07107
 20
49.4619
  0
LWPOLYLINE
100
AcDbEntity
  8
0
100
AcDbPolyline
 90
4
 70
1
 10
22.7487
 20
52.9975
 10
19.2132
 20
56.533
 10
15.6777
 20
52.9975
 10
19.2132
 20
49.4619
  0
LWPOLYLINE
100
AcDbEntity
  8
0
100
AcDbPolyline
 90
4
 70
1
 10
34.1198
 20
49.1764
 10
30.5843
 20
52.7119
 10
27.0487
 20
49.1764
 10
30.5843
 20
45.6409
  0
LWPOLYLINE
100
AcDbEntity
  8
0
100
AcDbPolyline
 90
4
 70
1
 10
18.9777
 20
49.1764
 10
15.4421
 20
52.7119
 10
11.9066
 20
49.1764
 10
15.4421
 20
45.6409
  0
LWPOLYLINE
100
AcDbEntity
  8
0
100
AcDbPolyline
 90
4
 70
1
 10
41.6909
 20
49.1764
 10
38.1553
 20
52.7119
 10
34.6198
 20
49.1764
 10
38.1553
 20
45.6409
  0
LWPOLYLINE
100
AcDbEntity
  8
0
100
AcDbPolyline
 90
4
 70
1
 10
11.4066
 20
49.1764
 10
7.87107
 20
52.7119
 10
4.33553
 20
49.1764
 10
7.87107
 20
45.6409
  0
LWPOLYLINE
100
AcDbEntity
  8
0
100
AcDbPolyline
 90
4
 70
1
 10
26.5487
 20
49.1764
 10
23.0132
 20
52.7119
 10
19.4777
 20
49.1764
 10
23.0132
 20
45.6409
  0
LWPOLYLINE
100
AcDbEntity
  8
0
100
AcDbPolyline
 90
3
 70
1
 10
45.7264
 20
52.6764
 10
42.2264
 20
49.1764
 10
45.7264
 20
45.6764
  0
LWPOLYLINE
100
AcDbEntity
  8
0
100
AcDbPolyline
 90
3
 70
1
 10
3.8
 20
49.1764
 10
0.3
 20
52.6764
 10
0.3
 20
45.6764
  0
LWPOLYLINE
100
AcDbEntity
  8
0
100
AcDbPolyline
 90
4
 70
1
 10
37.8909
 20
45.4264
 10
34.3553
 20
48.9619
 10
30.8198
 20
45.4264
 10
34.3553
 20
41.8909
  0
LWPOLYLINE
100
AcDbEntity
  8
0
100
AcDbPolyline
 90
4
 70
1
 10
7.6066
 20
45.4264
 10
4.07107
 20
48.9619
 10
0.535534
 20
45.4264
 10
4.07107
 20
41.8909
  0
LWPOLYLINE
100
AcDbEntity
  8
0
100
AcDbPolyline
 90
4
 70
1
 10
22.7487
 20
45.4264
 10
19.2132
 20
48.9619
 10
15.6777
 20
45.4264
 10
19.2132
 20
41.8909
  0
LWPOLYLINE
100
AcDbEntity
  8
0
100
AcDbPolyline
 90
4
 70
1
 10
30.3198
 20
45.4264
 10
26.7843
 20
48.9619
 10
23.2487
 20
45.4264
 10
26.7843
 20
41.8909
  0
LWPOLYLINE
100
AcDbEntity
  8
0
100
AcDbPolyline
 90
4
 70
1
 10
45.4619
 20
45.4264
 10
41.9264
 20
48.9619
 10
38.3909
 20
45.4264
 10
41.9264
 20
41.8909
  0
LWPOLYLINE
100
AcDbEntity
  8
0
100
AcDbPolyline
 90
4
 70
1
 10
15.1777
 20
45.4264
 10
11.6421
 20
48.9619
 10
8.1066
 20
45.4264
 10
11.6421
 20
41.8909
  0
LWPOLYLINE
100
AcDbEntity
  8
0
100
AcDbPolyline
 90
4
 70
1
 10
11.4066
 20
41.6053
 10
7.87107
 20
45.1409
 10
4.33553
 20
41.6053
 10
7.87107
 20
38.0698
  0
LWPOLYLINE
100
AcDbEntity
  8
0
100
AcDbPolyline
 90
4
 70
1
 10
26.5487
 20
41.6053
 10
23.0132
 20
45.1409
 10
19.4777
 20
41.6053
 10
23.0132
 20
38.0698
  0
LWPOLYLINE
100
AcDbEntity
  8
0
100
AcDbPolyline
 90
4
 70
1
 10
41.6909
 20
41.6053
 10
38.1553
 20
45.1409
 10
34.6198
 20
41.6053
 10
38.1553
 20
38.0698
  0
LWPOLYLINE
100
AcDbEntity
  8
0
100
AcDbPolyline
 90
4
 70
1
 10
18.9777
 20
41.6053
 10
15.4421
 20
45.1409
 10
11.9066
 20
41.6053
 10
15.4421
 20
38.0698
  0
LWPOLYLINE
100
AcDbEntity
  8
0
100
AcDbPolyline
 90
4
 70
1
 10
34.1198
 20
41.6053
 10
30.5843
 20
45.1409
 10
27.0487
 20
41.6053
 10
30.5843
 20
38.0698
  0
LWPOLYLINE
100
AcDbEntity
  8
0
100
AcDbPolyline
 90
3
 70
1
 10
3.8
 20
41.6053
 10
0.3
 20
45.1053
 10
0.3
 20
38.1053
  0
LWPOLYLINE
100
AcDbEntity
  8
0
100
AcDbPolyline
 90
3
 70
1
 10
45.7264
 20
45.1053
 10
42.2264
 20
41.6053
 10
45.7264
 20
38.1053
  0
LWPOLYLINE
100
AcDbEntity
  8
0
100
AcDbPolyline
 90
4
 70
1
 10
15.1777
 20
37.8553
 10
11.6421
 20
41.3909
 10
8.1066
 20
37.8553
 10
11.6421
 20
34.3198
  0
LWPOLYLINE
100
AcDbEntity
  8
0
100
AcDbPolyline
 90
4
 70
1
 10
7.6066
 20
37.8553
 10
4.07107
 20
41.3909
 10
0.535534
 20
37.8553
 10
4.07107
 20
34.3198
  0
LWPOLYLINE
100
AcDbEntity
  8
0
100
AcDbPolyline
 90
4
 70
1
 10
22.7487
 20
37.8553
 10
19.2132
 20
41.3909
 10
15.6777
 20
37.8553
 10
19.2132
 20
34.3198
  0
LWPOLYLINE
100
AcDbEntity
  8
0
100
AcDbPolyline
 90
4
 70
1
 10
30.3198
 20
37.8553
 10
26.7843
 20
41.3909
 10
23.2487
 20
37.8553
 10
26.7843
 20
34.3198
  0
LWPOLYLINE
100
AcDbEntity
  8
0
100
AcDbPolyline
 90
4
 70
1
 10
37.8909
 20
37.8553
 10
34.3553
 20
41.3909
 10
30.8198
 20
37.8553
 10
34.3553
 20
34.3198
  0
LWPOLYLINE
100
AcDbEntity
  8
0
100
AcDbPolyline
 90
4
 70
1
 10
45.4619
 20
37.8553
 10
41.9264
 20
41.3909
 10
38.3909
 20
37.8553
 10
41.9264
 20
34.3198
  0
LWPOLYLINE
100
AcDbEntity
  8
0
100
AcDbPolyline
 90
4
 70
1
 10
41.6909
 20
34.0343
 10
38.1553
 20
37.5698
 10
34.6198
 20
34.0343
 10
38.1553
 20
30.4987
  0
LWPOLYLINE
100
AcDbEntity
  8
0
100
AcDbPolyline
 90
4
 70
1
 10
11.4066
 20
34.0343
 10
7.87107
 20
37.5698
 10
4.33553
 20
34.0343
 10
7.87107
 20
30.4987
  0
LWPOLYLINE
100
AcDbEntity
  8
0
100
AcDbPolyline
 90
4
 70
1
 10
18.9777
 20
34.0343
 10
15.4421
 20
37.5698
 10
11.9066
 20
34.0343
 10
15.4421
 20
30.4987
  0
LWPOLYLINE
100
AcDbEntity
  8
0
100
AcDbPolyline
 90
4
 70
1
 10
26.5487
 20
34.0343
 10
23.0132
 20
37.5698
 10
19.4777
 20
34.0343
 10
23.0132
 20
30.4987
  0
LWPOLYLINE
100
AcDbEntity
  8
0
100
AcDbPolyline
 90
4
 70
1
 10
34.1198
 20
34.0343
 10
30.5843
 20
37.5698
 10
27.0487
 20
34.0343
 10
30.5843
 20
30.4987
  0
LWPOLYLINE
100
AcDbEntity
  8
0
100
AcDbPolyline
 90
3
 70
1
 10
45.7264
 20
37.5343
 10
42.2264
 20
34.0343
 10
45.7264
 20
30.5343
  0
LWPOLYLINE
100
AcDbEntity
  8
0
100
AcDbPolyline
 90
3
 70
1
 10
3.8
 20
34.0343
 10
0.3
 20
37.5343
 10
0.3
 20
30.5343
  0
LWPOLYLINE
100
AcDbEntity
  8
0
100
AcDbPolyline
 90
4
 70
1
 10
15.1777
 20
30.2843
 10
11.6421
 20
33.8198
 10
8.1066
 20
30.2843
 10
11.6421
 20
26.7487
  0
LWPOLYLINE
100
AcDbEntity
  8
0
100
AcDbPolyline
 90
4
 70
1
 10
7.6066
 20
30.2843
 10
4.07107
 20
33.8198
 10
0.535534
 20
30.2843
 10
4.07107
 20
26.7487
  0
LWPOLYLINE
100
AcDbEntity
  8
0
100
AcDbPolyline
 90
4
 70
1
 10
37.8909
 20
30.2843
 10
34.3553
 20
33.8198
 10
30.8198
 20
30.2843
 10
34.3553
 20
26.7487
  0
LWPOLYLINE
100
AcDbEntity
  8
0
100
AcDbPolyline
 90
4
 70
1
 10
45.4619
 20
30.2843
 10
41.9264
 20
33.8198
 10
38.3909
 20
30.2843
 10
41.9264
 20
26.7487
  0
LWPOLYLINE
100
AcDbEntity
  8
0
100
AcDbPolyline
 90
4
 70
1
 10
30.3198
 20
30.2843
 10
26.7843
 20
33.8198
 10
23.2487
 20
30.2843
 10
26.7843
 20
26.7487
  0
LWPOLYLINE
100
AcDbEntity
  8
0
100
AcDbPolyline
 90
4
 70
1
 10
22.7487
 20
30.2843
 10
19.2132
 20
33.8198
 10
15.6777
 20
30.2843
 10
19.2132
 20
26.7487
  0
LWPOLYLINE
100
AcDbEntity
  8
0
100
AcDbPolyline
 90
4
 70
1
 10
11.4066
 20
26.4632
 10
7.87107
 20
29.9987
 10
4.33553
 20
26.4632
 10
7.87107
 20
22.9277
  0
LWPOLYLINE
100
AcDbEntity
  8
0
100
AcDbPolyline
 90
4
 70
1
 10
41.6909
 20
26.4632
 10
38.1553
 20
29.9987
 10
34.6198
 20
26.4632
 10
38.1553
 20
22.9277
  0
LWPOLYLINE
100
AcDbEntity
  8
0
100
AcDbPolyline
 90
4
 70
1
 10
18.9777
 20
26.4632
 10
15.4421
 20
29.9987
 10
11.9066
 20
26.4632
 10
15.4421
 20
22.9277
  0
LWPOLYLINE
100
AcDbEntity
  8
0
100
AcDbPolyline
 90
4
 70
1
 10
26.5487
 20
26.4632
 10
23.0132
 20
29.9987
 10
19.4777
 20
26.4632
 10
23.0132
 20
22.9277
  0
LWPOLYLINE
100
AcDbEntity
  8
0
100
AcDbPolyline
 90
4
 70
1
 10
34.1198
 20
26.4632
 10
30.5843
 20
29.9987
 10
27.0487
 20
26.4632
 10
30.5843
 20
22.9277
  0
LWPOLYLINE
100
AcDbEntity
  8
0
100
AcDbPolyline
 90
3
 70
1
 10
45.7264
 20
29.9632
 10
42.2264
 20
26.4632
 10
45.7264
 20
22.9632
  0
LWPOLYLINE
100
AcDbEntity
  8
0
100
AcDbPolyline
 90
3
 70
1
 10
3.8
 20
26.4632
 10
0.3
 20
29.9632
 10
0.3
 20
22.9632
  0
LWPOLYLINE
100
AcDbEntity
  8
0
100
AcDbPolyline
 90
4
 70
1
 10
45.4619
 20
22.7132
 10
41.9264
 20
26.2487
 10
38.3909
 20
22.7132
 10
41.9264
 20
19.1777
  0
LWPOLYLINE
100
AcDbEntity
  8
0
100
AcDbPolyline
 90
4
 70
1
 10
7.6066
 20
22.7132
 10
4.07107
 20
26.2487
 10
0.535534
 20
22.7132
 10
4.07107
 20
19.1777
  0
LWPOLYLINE
100
AcDbEntity
  8
0
100
AcDbPolyline
 90
4
 70
1
 10
37.8909
 20
22.7132
 10
34.3553
 20
26.2487
 10
30.8198
 20
22.7132
 10
34.3553
 20
19.1777
  0
LWPOLYLINE
100
AcDbEntity
  8
0
100
AcDbPolyline
 90
4
 70
1
 10
22.7487
 20
22.7132
 10
19.2132
 20
26.2487
 10
15.6777
 20
22.7132
 10
19.2132
 20
19.1777
  0
LWPOLYLINE
100
AcDbEntity
  8
0
100
AcDbPolyline
 90
4
 70
1
 10
30.3198
 20
22.7132
 10
26.7843
 20
26.2487
 10
23.2487
 20
22.7132
 10
26.7843
 20
19.1777
  0
LWPOLYLINE
100
AcDbEntity
  8
0
100
AcDbPolyline
 90
4
 70
1
 10
15.1777
 20
22.7132
 10
11.6421
 20
26.2487
 10
8.1066
 20
22.7132
 10
11.6421
 20
19.1777
  0
LWPOLYLINE
100
AcDbEntity
  8
0
100
AcDbPolyline
 90
4
 70
1
 10
41.6909
 20
18.8921
 10
38.1553
 20
22.4277
 10
34.6198
 20
18.8921
 10
38.1553
 20
15.3566
  0
LWPOLYLINE
100
AcDbEntity
  8
0
100
AcDbPolyline
 90
4
 70
1
 10
11.4066
 20
18.8921
 10
7.87107
 20
22.4277
 10
4.33553
 20
18.8921
 10
7.87107
 20
15.3566
  0
LWPOLYLINE
100
AcDbEntity
  8
0
100
AcDbPolyline
 90
4
 70
1
 10
26.5487
 20
18.8921
 10
23.0132
 20
22.4277
 10
19.4777
 20
18.8921
 10
23.0132
 20
15.3566
  0
LWPOLYLINE
100
AcDbEntity
  8
0
100
AcDbPolyline
 90
4
 70
1
 10
34.1198
 20
18.8921
 10
30.5843
 20
22.4277
 10
27.0487
 20
18.8921
 10
30.5843
 20
15.3566
  0
LWPOLYLINE
100
AcDbEntity
  8
0
100
AcDbPolyline
 90
4
 70
1
 10
18.9777
 20
18.8921
 10
15.4421
 20
22.4277
 10
11.9066
 20
18.8921
 10
15.4421
 20
15.3566
  0
LWPOLYLINE
100
AcDbEntity
  8
0
100
AcDbPolyline
 90
3
 70
1
 10
3.8
 20
18.8921
 10
0.3
 20
22.3921
 10
0.3
 20
15.3921
  0
LWPOLYLINE
100
AcDbEntity
  8
0
100
AcDbPolyline
 90
3
 70
1
 10
45.7264
 20
22.3921
 10
42.2264
 20
18.8921
 10
45.7264
 20
15.3921
  0
LWPOLYLINE
100
AcDbEntity
  8
0
100
AcDbPolyline
 90
4
 70
1
 10
45.4619
 20
15.1421
 10
41.9264
 20
18.6777
 10
38.3909
 20
15.1421
 10
41.9264
 20
11.6066
  0
LWPOLYLINE
100
AcDbEntity
  8
0
100
AcDbPolyline
 90
4
 70
1
 10
15.1777
 20
15.1421
 10
11.6421
 20
18.6777
 10
8.1066
 20
15.1421
 10
11.6421
 20
11.6066
  0
LWPOLYLINE
100
AcDbEntity
  8
0
100
AcDbPolyline
 90
4
 70
1
 10
22.7487
 20
15.1421
 10
19.2132
 20
18.6777
 10
15.6777
 20
15.1421
 10
19.2132
 20
11.6066
  0
LWPOLYLINE
100
AcDbEntity
  8
0
100
AcDbPolyline
 90
4
 70
1
 10
30.3198
 20
15.1421
 10
26.7843
 20
18.6777
 10
23.2487
 20
15.1421
 10
26.7843
 20
11.6066
  0
LWPOLYLINE
100
AcDbEntity
  8
0
100
AcDbPolyline
 90
4
 70
1
 10
37.8909
 20
15.1421
 10
34.3553
 20
18.6777
 10
30.8198
 20
15.1421
 10
34.3553
 20
11.6066
  0
LWPOLYLINE
100
AcDbEntity
  8
0
100
AcDbPolyline
 90
4
 70
1
 10
7.6066
 20
15.1421
 10
4.07107
 20
18.6777
 10
0.535534
 20
15.1421
 10
4.07107
 20
11.6066
  0
LWPOLYLINE
100
AcDbEntity
  8
0
100
AcDbPolyline
 90
4
 70
1
 10
41.6909
 20
11.3211
 10
38.1553
 20
14.8566
 10
34.6198
 20
11.3211
 10
38.1553
 20
7.78553
  0
LWPOLYLINE
100
AcDbEntity
  8
0
100
AcDbPolyline
 90
4
 70
1
 10
34.1198
 20
11.3211
 10
30.5843
 20
14.8566
 10
27.0487
 20
11.3211
 10
30.5843
 20
7.78553
  0
LWPOLYLINE
100
AcDbEntity
  8
0
100
AcDbPolyline
 90
4
 70
1
 10
18.9777
 20
11.3211
 10
15.4421
 20
14.8566
 10
11.9066
 20
11.3211
 10
15.4421
 20
7.78553
  0
LWPOLYLINE
100
AcDbEntity
  8
0
100
AcDbPolyline
 90
4
 70
1
 10
26.5487
 20
11.3211
 10
23.0132
 20
14.8566
 10
19.4777
 20
11.3211
 10
23.0132
 20
7.78553
  0
LWPOLYLINE
100
AcDbEntity
  8
0
100
AcDbPolyline
 90
4
 70
1
 10
11.4066
 20
11.3211
 10
7.87107
 20
14.8566
 10
4.33553
 20
11.3211
 10
7.87107
 20
7.78553
  0
LWPOLYLINE
100
AcDbEntity
  8
0
100
AcDbPolyline
 90
3
 70
1
 10
3.8
 20
11.3211
 10
0.3
 20
14.8211
 10
0.3
 20
7.82107
  0
LWPOLYLINE
100
AcDbEntity
  8
0
100
AcDbPolyline
 90
3
 70
1
 10
45.7264
 20
14.8211
 10
42.2264
 20
11.3211
 10
45.7264
 20
7.82107
  0
LWPOLYLINE
100
AcDbEntity
  8
0
100
AcDbPolyline
 90
4
 70
1
 10
22.7487
 20
7.57107
 10
19.2132
 20
11.1066
 10
15.6777
 20
7.57107
 10
19.2132
 20
4.03553
  0
LWPOLYLINE
100
AcDbEntity
  8
0
100
AcDbPolyline
 90
4
 70
1
 10
45.4619
 20
7.57107
 10
41.9264
 20
11.1066
 10
38.3909
 20
7.57107
 10
41.9264
 20
4.03553
  0
LWPOLYLINE
100
AcDbEntity
  8
0
100
AcDbPolyline
 90
4
 70
1
 10
7.6066
 20
7.57107
 10
4.07107
 20
11.1066
 10
0.535534
 20
7.57107
 10
4.07107
 20
4.03553
  0
LWPOLYLINE
100
AcDbEntity
  8
0
100
AcDbPolyline
 90
4
 70
1
 10
37.8909
 20
7.57107
 10
34.3553
 20
11.1066
 10
30.8198
 20
7.57107
 10
34.3553
 20
4.03553
  0
LWPOLYLINE
100
AcDbEntity
  8
0
100
AcDbPolyline
 90
4
 70
1
 10
30.3198
 20
7.57107
 10
26.7843
 20
11.1066
 10
23.2487
 20
7.57107
 10
26.7843
 20
4.03553
  0
LWPOLYLINE
100
AcDbEntity
  8
0
100
AcDbPolyline
 90
4
 70
1
 10
15.1777
 20
7.57107
 10
11.6421
 20
11.1066
 10
8.1066
 20
7.57107
 10
11.6421
 20
4.03553
  0
LWPOLYLINE
100
AcDbEntity
  8
0
100
AcDbPolyline
 90
4
 70
1
 10
34.1198
 20
3.75
 10
30.5843
 20
7.28553
 10
27.0487
 20
3.75
 10
30.5843
 20
0.214466
  0
LWPOLYLINE
100
AcDbEntity
  8
0
100
AcDbPolyline
 90
4
 70
1
 10
18.9777
 20
3.75
 10
15.4421
 20
7.28553
 10
11.9066
 20
3.75
 10
15.4421
 20
0.214466
  0
LWPOLYLINE
100
AcDbEntity
  8
0
100
AcDbPolyline
 90
4
 70
1
 10
11.4066
 20
3.75
 10
7.87107
 20
7.28553
 10
4.33553
 20
3.75
 10
7.87107
 20
0.214466
  0
LWPOLYLINE
100
AcDbEntity
  8
0
100
AcDbPolyline
 90
4
 70
1
 10
41.6909
 20
3.75
 10
38.1553
 20
7.28553
 10
34.6198
 20
3.75
 10
38.1553
 20
0.214466
  0
LWPOLYLINE
100
AcDbEntity
  8
0
100
AcDbPolyline
 90
4
 70
1
 10
26.5487
 20
3.75
 10
23.0132
 20
7.28553
 10
19.4777
 20
3.75
 10
23.0132
 20
0.214466
  0
LWPOLYLINE
100
AcDbEntity
  8
0
100
AcDbPolyline
 90
3
 70
1
 10
45.7264
 20
7.25
 10
42.2264
 20
3.75
 10
45.7264
 20
0.25
  0
LWPOLYLINE
100
AcDbEntity
  8
0
100
AcDbPolyline
 90
3
 70
1
 10
3.8
 20
3.75
 10
0.3
 20
7.25
 10
0.3
 20
0.25
  0
LWPOLYLINE
100
AcDbEntity
  8
0
100
AcDbPolyline
 90
3
 70
1
 10
34.3553
 20
3.5
 10
30.8553
 20
0
 10
37.8553
 20
0
  0
LWPOLYLINE
100
AcDbEntity
  8
0
100
AcDbPolyline
 90
3
 70
1
 10
26.7843
 20
3.5
 10
23.2843
 20
0
 10
30.2843
 20
0
  0
LWPOLYLINE
100
AcDbEntity
  8
0
100
AcDbPolyline
 90
3
 70
1
 10
19.2132
 20
3.5
 10
15.7132
 20
0
 10
22.7132
 20
0
  0
LWPOLYLINE
100
AcDbEntity
  8
0
100
AcDbPolyline
 90
3
 70
1
 10
11.6421
 20
3.5
 10
8.14214
 20
0
 10
15.1421
 20
0
  0
LWPOLYLINE
100
AcDbEntity
  8
0
100
AcDbPolyline
 90
3
 70
1
 10
4.07107
 20
3.5
 10
0.571068
 20
0
 10
7.57107
 20
0
  0
LWPOLYLINE
100
AcDbEntity
  8
0
100
AcDbPolyline
 90
3
 70
1
 10
41.9264
 20
3.5
 10
38.4264
 20
0
 10
45.4264
 20
0
  0
ENDSEC
  0
EOF
