%TF.GenerationSoftware,KiCad,Pcbnew,7.0.1*%
%TF.CreationDate,2023-03-19T16:13:25+09:00*%
%TF.ProjectId,keypad16,6b657970-6164-4313-962e-6b696361645f,rev?*%
%TF.SameCoordinates,Original*%
%TF.FileFunction,Drillmap*%
%TF.FilePolarity,Positive*%
%FSLAX45Y45*%
G04 Gerber Fmt 4.5, Leading zero omitted, Abs format (unit mm)*
G04 Created by KiCad (PCBNEW 7.0.1) date 2023-03-19 16:13:25*
%MOMM*%
%LPD*%
G01*
G04 APERTURE LIST*
%ADD10C,0.100000*%
%ADD11C,0.200000*%
G04 APERTURE END LIST*
D10*
X2350000Y-3620000D02*
X11850000Y-3620000D01*
X11850000Y-13120000D01*
X2350000Y-13120000D01*
X2350000Y-3620000D01*
D11*
X2592619Y-13437524D02*
X2592619Y-13237524D01*
X2592619Y-13237524D02*
X2640238Y-13237524D01*
X2640238Y-13237524D02*
X2668810Y-13247048D01*
X2668810Y-13247048D02*
X2687857Y-13266095D01*
X2687857Y-13266095D02*
X2697381Y-13285143D01*
X2697381Y-13285143D02*
X2706905Y-13323238D01*
X2706905Y-13323238D02*
X2706905Y-13351809D01*
X2706905Y-13351809D02*
X2697381Y-13389905D01*
X2697381Y-13389905D02*
X2687857Y-13408952D01*
X2687857Y-13408952D02*
X2668810Y-13428000D01*
X2668810Y-13428000D02*
X2640238Y-13437524D01*
X2640238Y-13437524D02*
X2592619Y-13437524D01*
X2792619Y-13437524D02*
X2792619Y-13304190D01*
X2792619Y-13342286D02*
X2802143Y-13323238D01*
X2802143Y-13323238D02*
X2811667Y-13313714D01*
X2811667Y-13313714D02*
X2830714Y-13304190D01*
X2830714Y-13304190D02*
X2849762Y-13304190D01*
X2916428Y-13437524D02*
X2916428Y-13304190D01*
X2916428Y-13237524D02*
X2906905Y-13247048D01*
X2906905Y-13247048D02*
X2916428Y-13256571D01*
X2916428Y-13256571D02*
X2925952Y-13247048D01*
X2925952Y-13247048D02*
X2916428Y-13237524D01*
X2916428Y-13237524D02*
X2916428Y-13256571D01*
X3040238Y-13437524D02*
X3021190Y-13428000D01*
X3021190Y-13428000D02*
X3011667Y-13408952D01*
X3011667Y-13408952D02*
X3011667Y-13237524D01*
X3145000Y-13437524D02*
X3125952Y-13428000D01*
X3125952Y-13428000D02*
X3116428Y-13408952D01*
X3116428Y-13408952D02*
X3116428Y-13237524D01*
X3373571Y-13437524D02*
X3373571Y-13237524D01*
X3373571Y-13237524D02*
X3440238Y-13380381D01*
X3440238Y-13380381D02*
X3506905Y-13237524D01*
X3506905Y-13237524D02*
X3506905Y-13437524D01*
X3687857Y-13437524D02*
X3687857Y-13332762D01*
X3687857Y-13332762D02*
X3678333Y-13313714D01*
X3678333Y-13313714D02*
X3659286Y-13304190D01*
X3659286Y-13304190D02*
X3621190Y-13304190D01*
X3621190Y-13304190D02*
X3602143Y-13313714D01*
X3687857Y-13428000D02*
X3668809Y-13437524D01*
X3668809Y-13437524D02*
X3621190Y-13437524D01*
X3621190Y-13437524D02*
X3602143Y-13428000D01*
X3602143Y-13428000D02*
X3592619Y-13408952D01*
X3592619Y-13408952D02*
X3592619Y-13389905D01*
X3592619Y-13389905D02*
X3602143Y-13370857D01*
X3602143Y-13370857D02*
X3621190Y-13361333D01*
X3621190Y-13361333D02*
X3668809Y-13361333D01*
X3668809Y-13361333D02*
X3687857Y-13351809D01*
X3783095Y-13304190D02*
X3783095Y-13504190D01*
X3783095Y-13313714D02*
X3802143Y-13304190D01*
X3802143Y-13304190D02*
X3840238Y-13304190D01*
X3840238Y-13304190D02*
X3859286Y-13313714D01*
X3859286Y-13313714D02*
X3868809Y-13323238D01*
X3868809Y-13323238D02*
X3878333Y-13342286D01*
X3878333Y-13342286D02*
X3878333Y-13399428D01*
X3878333Y-13399428D02*
X3868809Y-13418476D01*
X3868809Y-13418476D02*
X3859286Y-13428000D01*
X3859286Y-13428000D02*
X3840238Y-13437524D01*
X3840238Y-13437524D02*
X3802143Y-13437524D01*
X3802143Y-13437524D02*
X3783095Y-13428000D01*
X3964048Y-13418476D02*
X3973571Y-13428000D01*
X3973571Y-13428000D02*
X3964048Y-13437524D01*
X3964048Y-13437524D02*
X3954524Y-13428000D01*
X3954524Y-13428000D02*
X3964048Y-13418476D01*
X3964048Y-13418476D02*
X3964048Y-13437524D01*
X3964048Y-13313714D02*
X3973571Y-13323238D01*
X3973571Y-13323238D02*
X3964048Y-13332762D01*
X3964048Y-13332762D02*
X3954524Y-13323238D01*
X3954524Y-13323238D02*
X3964048Y-13313714D01*
X3964048Y-13313714D02*
X3964048Y-13332762D01*
M02*
