%TF.GenerationSoftware,KiCad,Pcbnew,7.0.1*%
%TF.CreationDate,2023-03-19T16:13:32+09:00*%
%TF.ProjectId,keypad16,6b657970-6164-4313-962e-6b696361645f,rev?*%
%TF.SameCoordinates,Original*%
%TF.FileFunction,Soldermask,Top*%
%TF.FilePolarity,Negative*%
%FSLAX46Y46*%
G04 Gerber Fmt 4.6, Leading zero omitted, Abs format (unit mm)*
G04 Created by KiCad (PCBNEW 7.0.1) date 2023-03-19 16:13:32*
%MOMM*%
%LPD*%
G01*
G04 APERTURE LIST*
G04 Aperture macros list*
%AMRoundRect*
0 Rectangle with rounded corners*
0 $1 Rounding radius*
0 $2 $3 $4 $5 $6 $7 $8 $9 X,Y pos of 4 corners*
0 Add a 4 corners polygon primitive as box body*
4,1,4,$2,$3,$4,$5,$6,$7,$8,$9,$2,$3,0*
0 Add four circle primitives for the rounded corners*
1,1,$1+$1,$2,$3*
1,1,$1+$1,$4,$5*
1,1,$1+$1,$6,$7*
1,1,$1+$1,$8,$9*
0 Add four rect primitives between the rounded corners*
20,1,$1+$1,$2,$3,$4,$5,0*
20,1,$1+$1,$4,$5,$6,$7,0*
20,1,$1+$1,$6,$7,$8,$9,0*
20,1,$1+$1,$8,$9,$2,$3,0*%
G04 Aperture macros list end*
%ADD10RoundRect,0.228000X-0.228000X0.918500X-0.228000X-0.918500X0.228000X-0.918500X0.228000X0.918500X0*%
%ADD11RoundRect,0.228000X-0.228000X0.915000X-0.228000X-0.915000X0.228000X-0.915000X0.228000X0.915000X0*%
%ADD12C,3.800000*%
%ADD13R,1.700000X1.700000*%
%ADD14O,1.700000X1.700000*%
%ADD15RoundRect,0.225000X0.225000X0.250000X-0.225000X0.250000X-0.225000X-0.250000X0.225000X-0.250000X0*%
%ADD16RoundRect,0.062500X-0.375000X-0.062500X0.375000X-0.062500X0.375000X0.062500X-0.375000X0.062500X0*%
%ADD17RoundRect,0.062500X-0.062500X-0.375000X0.062500X-0.375000X0.062500X0.375000X-0.062500X0.375000X0*%
%ADD18R,2.050000X7.550000*%
%ADD19RoundRect,0.140000X-0.140000X-0.170000X0.140000X-0.170000X0.140000X0.170000X-0.140000X0.170000X0*%
%ADD20C,1.700000*%
%ADD21C,4.290000*%
%ADD22RoundRect,0.140000X0.140000X0.170000X-0.140000X0.170000X-0.140000X-0.170000X0.140000X-0.170000X0*%
G04 APERTURE END LIST*
D10*
%TO.C,TP123*%
X74300000Y-72244000D03*
D11*
X73000000Y-72244000D03*
%TD*%
D12*
%TO.C,H2*%
X27000000Y-128000000D03*
%TD*%
D10*
%TO.C,TP4*%
X93900000Y-107300000D03*
D11*
X92600000Y-107300000D03*
%TD*%
D10*
%TO.C,TP21*%
X87050000Y-102300000D03*
D11*
X85750000Y-102300000D03*
%TD*%
D10*
%TO.C,TP96*%
X97000000Y-47300000D03*
D11*
X95700000Y-47300000D03*
%TD*%
D10*
%TO.C,TP107*%
X82400000Y-72244000D03*
D11*
X81100000Y-72244000D03*
%TD*%
D10*
%TO.C,TP98*%
X85200000Y-77244000D03*
D11*
X83900000Y-77244000D03*
%TD*%
D10*
%TO.C,TP27*%
X80500000Y-112300000D03*
D11*
X79200000Y-112300000D03*
%TD*%
D10*
%TO.C,TP17*%
X82000000Y-122300000D03*
D11*
X80700000Y-122300000D03*
%TD*%
D10*
%TO.C,TP121*%
X71800000Y-82244000D03*
D11*
X70500000Y-82244000D03*
%TD*%
D10*
%TO.C,TP92*%
X92000000Y-67244000D03*
D11*
X90700000Y-67244000D03*
%TD*%
D10*
%TO.C,TP97*%
X83950000Y-82244000D03*
D11*
X82650000Y-82244000D03*
%TD*%
D10*
%TO.C,TP109*%
X85150000Y-62244000D03*
D11*
X83850000Y-62244000D03*
%TD*%
D10*
%TO.C,TP26*%
X79250000Y-117300000D03*
D11*
X77950000Y-117300000D03*
%TD*%
D10*
%TO.C,TP56*%
X74600000Y-87300000D03*
D11*
X73300000Y-87300000D03*
%TD*%
D10*
%TO.C,TP1*%
X90100000Y-122300000D03*
D11*
X88800000Y-122300000D03*
%TD*%
D10*
%TO.C,TP42*%
X71150000Y-117300000D03*
D11*
X69850000Y-117300000D03*
%TD*%
D13*
%TO.C,J3*%
X52000000Y-68910000D03*
D14*
X52000000Y-66370000D03*
X52000000Y-63830000D03*
X52000000Y-61290000D03*
X52000000Y-58750000D03*
X52000000Y-56210000D03*
X52000000Y-53670000D03*
X52000000Y-51130000D03*
%TD*%
D10*
%TO.C,TP71*%
X107900000Y-52300000D03*
D11*
X106600000Y-52300000D03*
%TD*%
D10*
%TO.C,TP57*%
X61750000Y-122300000D03*
D11*
X60450000Y-122300000D03*
%TD*%
D10*
%TO.C,TP32*%
X86750000Y-87300000D03*
D11*
X85450000Y-87300000D03*
%TD*%
D10*
%TO.C,TP72*%
X109150000Y-47300000D03*
D11*
X107850000Y-47300000D03*
%TD*%
D10*
%TO.C,TP38*%
X80200000Y-97350000D03*
D11*
X78900000Y-97350000D03*
%TD*%
D10*
%TO.C,TP91*%
X90500000Y-72244000D03*
D11*
X89200000Y-72244000D03*
%TD*%
D10*
%TO.C,TP127*%
X79550000Y-52300000D03*
D11*
X78250000Y-52300000D03*
%TD*%
D10*
%TO.C,TP60*%
X65550000Y-107300000D03*
D11*
X64250000Y-107300000D03*
%TD*%
D10*
%TO.C,TP125*%
X77050000Y-62244000D03*
D11*
X75750000Y-62244000D03*
%TD*%
D10*
%TO.C,TP118*%
X82350000Y-57244000D03*
D11*
X81050000Y-57244000D03*
%TD*%
D10*
%TO.C,TP89*%
X88000000Y-82244000D03*
D11*
X86700000Y-82244000D03*
%TD*%
D15*
%TO.C,C1*%
X58775000Y-84300000D03*
X57225000Y-84300000D03*
%TD*%
D10*
%TO.C,TP18*%
X83300000Y-117300000D03*
D11*
X82000000Y-117300000D03*
%TD*%
D10*
%TO.C,TP36*%
X77700000Y-107300000D03*
D11*
X76400000Y-107300000D03*
%TD*%
D10*
%TO.C,TP116*%
X79850000Y-67244000D03*
D11*
X78550000Y-67244000D03*
%TD*%
D16*
%TO.C,U1*%
X56672500Y-87170000D03*
X56672500Y-87670000D03*
X56672500Y-88170000D03*
X56672500Y-88670000D03*
X56672500Y-89170000D03*
X56672500Y-89670000D03*
X56672500Y-90170000D03*
X56672500Y-90670000D03*
X56672500Y-91170000D03*
X56672500Y-91670000D03*
X56672500Y-92170000D03*
X56672500Y-92670000D03*
X56672500Y-93170000D03*
X56672500Y-93670000D03*
X56672500Y-94170000D03*
X56672500Y-94670000D03*
X56672500Y-95170000D03*
D17*
X57610000Y-95607500D03*
X58110000Y-95607500D03*
X58610000Y-95607500D03*
X59110000Y-95607500D03*
D16*
X60047500Y-95170000D03*
X60047500Y-94670000D03*
X60047500Y-94170000D03*
X60047500Y-93670000D03*
X60047500Y-93170000D03*
X60047500Y-92670000D03*
X60047500Y-92170000D03*
X60047500Y-91670000D03*
X60047500Y-91170000D03*
X60047500Y-90670000D03*
X60047500Y-90170000D03*
X60047500Y-89670000D03*
X60047500Y-89170000D03*
X60047500Y-88670000D03*
X60047500Y-88170000D03*
X60047500Y-87670000D03*
X60047500Y-87170000D03*
D17*
X59110000Y-86732500D03*
X58610000Y-86732500D03*
X58110000Y-86732500D03*
X57610000Y-86732500D03*
D18*
X58360000Y-91170000D03*
%TD*%
D13*
%TO.C,J4*%
X52050000Y-114780000D03*
D14*
X52050000Y-112240000D03*
X52050000Y-109700000D03*
X52050000Y-107160000D03*
%TD*%
D10*
%TO.C,TP77*%
X101350000Y-62244000D03*
D11*
X100050000Y-62244000D03*
%TD*%
D10*
%TO.C,TP84*%
X96050000Y-67244000D03*
D11*
X94750000Y-67244000D03*
%TD*%
D19*
%TO.C,C6*%
X57350000Y-52100000D03*
X58310000Y-52100000D03*
%TD*%
D10*
%TO.C,TP7*%
X97650000Y-92350000D03*
D11*
X96350000Y-92350000D03*
%TD*%
D10*
%TO.C,TP52*%
X69600000Y-107300000D03*
D11*
X68300000Y-107300000D03*
%TD*%
D10*
%TO.C,TP58*%
X63050000Y-117300000D03*
D11*
X61750000Y-117300000D03*
%TD*%
D13*
%TO.C,J2*%
X52000000Y-97990000D03*
D14*
X52000000Y-95450000D03*
X52000000Y-92910000D03*
X52000000Y-90370000D03*
X52000000Y-87830000D03*
X52000000Y-85290000D03*
X52000000Y-82750000D03*
X52000000Y-80210000D03*
%TD*%
D10*
%TO.C,TP48*%
X78650000Y-87300000D03*
D11*
X77350000Y-87300000D03*
%TD*%
D10*
%TO.C,TP40*%
X82700000Y-87300000D03*
D11*
X81400000Y-87300000D03*
%TD*%
D19*
%TO.C,C10*%
X57350000Y-47000000D03*
X58310000Y-47000000D03*
%TD*%
D10*
%TO.C,TP9*%
X86050000Y-122300000D03*
D11*
X84750000Y-122300000D03*
%TD*%
D10*
%TO.C,TP19*%
X84550000Y-112300000D03*
D11*
X83250000Y-112300000D03*
%TD*%
D10*
%TO.C,TP115*%
X78350000Y-72244000D03*
D11*
X77050000Y-72244000D03*
%TD*%
D10*
%TO.C,TP110*%
X86400000Y-57244000D03*
D11*
X85100000Y-57244000D03*
%TD*%
D10*
%TO.C,TP44*%
X73650000Y-107300000D03*
D11*
X72350000Y-107300000D03*
%TD*%
D10*
%TO.C,TP23*%
X89550000Y-92350000D03*
D11*
X88250000Y-92350000D03*
%TD*%
D10*
%TO.C,TP74*%
X97350000Y-77244000D03*
D11*
X96050000Y-77244000D03*
%TD*%
D10*
%TO.C,TP112*%
X88900000Y-47300000D03*
D11*
X87600000Y-47300000D03*
%TD*%
D10*
%TO.C,TP114*%
X77100000Y-77244000D03*
D11*
X75800000Y-77244000D03*
%TD*%
D10*
%TO.C,TP66*%
X101400000Y-77244000D03*
D11*
X100100000Y-77244000D03*
%TD*%
D10*
%TO.C,TP85*%
X97300000Y-62244000D03*
D11*
X96000000Y-62244000D03*
%TD*%
D10*
%TO.C,TP15*%
X93600000Y-92350000D03*
D11*
X92300000Y-92350000D03*
%TD*%
D10*
%TO.C,TP87*%
X99800000Y-52300000D03*
D11*
X98500000Y-52300000D03*
%TD*%
D12*
%TO.C,H3*%
X115000000Y-40000000D03*
%TD*%
D10*
%TO.C,TP94*%
X94500000Y-57244000D03*
D11*
X93200000Y-57244000D03*
%TD*%
D10*
%TO.C,TP69*%
X105400000Y-62244000D03*
D11*
X104100000Y-62244000D03*
%TD*%
D20*
%TO.C,J1*%
X37750000Y-98150000D03*
X37750000Y-95610000D03*
X37750000Y-93070000D03*
X37750000Y-90530000D03*
X37750000Y-87990000D03*
X37750000Y-85450000D03*
X37750000Y-82910000D03*
X37750000Y-80370000D03*
X37750000Y-77830000D03*
X37750000Y-75290000D03*
X37750000Y-72750000D03*
X37750000Y-70210000D03*
X37750000Y-67670000D03*
X37750000Y-65130000D03*
X37750000Y-62590000D03*
X37750000Y-60050000D03*
X40290000Y-98150000D03*
X40290000Y-95610000D03*
X40290000Y-93070000D03*
X40290000Y-90530000D03*
X40290000Y-87990000D03*
X40290000Y-85450000D03*
X40290000Y-82910000D03*
X40290000Y-80370000D03*
X40290000Y-77830000D03*
X40290000Y-75290000D03*
X40290000Y-72750000D03*
X40290000Y-70210000D03*
X40290000Y-67670000D03*
X40290000Y-65130000D03*
X40290000Y-62590000D03*
X40290000Y-60050000D03*
X42830000Y-98150000D03*
X42830000Y-95610000D03*
X42830000Y-93070000D03*
X42830000Y-90530000D03*
X42830000Y-87990000D03*
X42830000Y-85450000D03*
X42830000Y-82910000D03*
X42830000Y-80370000D03*
X42830000Y-77830000D03*
X42830000Y-75290000D03*
X42830000Y-72750000D03*
X42830000Y-70210000D03*
X42830000Y-67670000D03*
X42830000Y-65130000D03*
X42830000Y-62590000D03*
X42830000Y-60050000D03*
D21*
X35210000Y-54970000D03*
X35210000Y-103230000D03*
%TD*%
D10*
%TO.C,TP101*%
X89200000Y-62244000D03*
D11*
X87900000Y-62244000D03*
%TD*%
D10*
%TO.C,TP120*%
X84850000Y-47300000D03*
D11*
X83550000Y-47300000D03*
%TD*%
D10*
%TO.C,TP2*%
X91400000Y-117300000D03*
D11*
X90100000Y-117300000D03*
%TD*%
D10*
%TO.C,TP16*%
X94850000Y-87300000D03*
D11*
X93550000Y-87300000D03*
%TD*%
D10*
%TO.C,TP14*%
X92350000Y-97350000D03*
D11*
X91050000Y-97350000D03*
%TD*%
D10*
%TO.C,TP75*%
X98600000Y-72244000D03*
D11*
X97300000Y-72244000D03*
%TD*%
D10*
%TO.C,TP105*%
X79900000Y-82244000D03*
D11*
X78600000Y-82244000D03*
%TD*%
D10*
%TO.C,TP76*%
X100100000Y-67244000D03*
D11*
X98800000Y-67244000D03*
%TD*%
D19*
%TO.C,C4*%
X57350000Y-54700000D03*
X58310000Y-54700000D03*
%TD*%
D10*
%TO.C,TP95*%
X95750000Y-52300000D03*
D11*
X94450000Y-52300000D03*
%TD*%
D19*
%TO.C,C5*%
X57350000Y-62200000D03*
X58310000Y-62200000D03*
%TD*%
D10*
%TO.C,TP111*%
X87650000Y-52300000D03*
D11*
X86350000Y-52300000D03*
%TD*%
D10*
%TO.C,TP47*%
X77400000Y-92350000D03*
D11*
X76100000Y-92350000D03*
%TD*%
D10*
%TO.C,TP108*%
X83900000Y-67244000D03*
D11*
X82600000Y-67244000D03*
%TD*%
D10*
%TO.C,TP46*%
X76150000Y-97350000D03*
D11*
X74850000Y-97350000D03*
%TD*%
D10*
%TO.C,TP86*%
X98550000Y-57244000D03*
D11*
X97250000Y-57244000D03*
%TD*%
D19*
%TO.C,C3*%
X57350000Y-64800000D03*
X58310000Y-64800000D03*
%TD*%
D10*
%TO.C,TP81*%
X92050000Y-82244000D03*
D11*
X90750000Y-82244000D03*
%TD*%
D10*
%TO.C,TP12*%
X89850000Y-107300000D03*
D11*
X88550000Y-107300000D03*
%TD*%
D10*
%TO.C,TP82*%
X93300000Y-77244000D03*
D11*
X92000000Y-77244000D03*
%TD*%
D10*
%TO.C,TP43*%
X72400000Y-112300000D03*
D11*
X71100000Y-112300000D03*
%TD*%
D10*
%TO.C,TP67*%
X102650000Y-72244000D03*
D11*
X101350000Y-72244000D03*
%TD*%
D10*
%TO.C,TP83*%
X94550000Y-72244000D03*
D11*
X93250000Y-72244000D03*
%TD*%
D10*
%TO.C,TP8*%
X98900000Y-87300000D03*
D11*
X97600000Y-87300000D03*
%TD*%
D10*
%TO.C,TP102*%
X90450000Y-57244000D03*
D11*
X89150000Y-57244000D03*
%TD*%
D10*
%TO.C,TP124*%
X75800000Y-67244000D03*
D11*
X74500000Y-67244000D03*
%TD*%
D10*
%TO.C,TP78*%
X102600000Y-57244000D03*
D11*
X101300000Y-57244000D03*
%TD*%
D10*
%TO.C,TP22*%
X88300000Y-97350000D03*
D11*
X87000000Y-97350000D03*
%TD*%
D10*
%TO.C,TP51*%
X68350000Y-112300000D03*
D11*
X67050000Y-112300000D03*
%TD*%
D10*
%TO.C,TP104*%
X92950000Y-47300000D03*
D11*
X91650000Y-47300000D03*
%TD*%
D10*
%TO.C,TP49*%
X65800000Y-122300000D03*
D11*
X64500000Y-122300000D03*
%TD*%
D10*
%TO.C,TP88*%
X101050000Y-47300000D03*
D11*
X99750000Y-47300000D03*
%TD*%
D10*
%TO.C,TP55*%
X73350000Y-92350000D03*
D11*
X72050000Y-92350000D03*
%TD*%
D19*
%TO.C,C8*%
X57350000Y-49700000D03*
X58310000Y-49700000D03*
%TD*%
D10*
%TO.C,TP24*%
X90800000Y-87300000D03*
D11*
X89500000Y-87300000D03*
%TD*%
D10*
%TO.C,TP29*%
X83000000Y-102300000D03*
D11*
X81700000Y-102300000D03*
%TD*%
D10*
%TO.C,TP6*%
X96400000Y-97350000D03*
D11*
X95100000Y-97350000D03*
%TD*%
D10*
%TO.C,TP25*%
X77950000Y-122300000D03*
D11*
X76650000Y-122300000D03*
%TD*%
D19*
%TO.C,C7*%
X57350000Y-59450000D03*
X58310000Y-59450000D03*
%TD*%
D10*
%TO.C,TP113*%
X75850000Y-82244000D03*
D11*
X74550000Y-82244000D03*
%TD*%
D10*
%TO.C,TP3*%
X92650000Y-112300000D03*
D11*
X91350000Y-112300000D03*
%TD*%
D22*
%TO.C,C2*%
X59080000Y-85500000D03*
X58120000Y-85500000D03*
%TD*%
D10*
%TO.C,TP117*%
X81100000Y-62244000D03*
D11*
X79800000Y-62244000D03*
%TD*%
D10*
%TO.C,TP39*%
X81450000Y-92350000D03*
D11*
X80150000Y-92350000D03*
%TD*%
D10*
%TO.C,TP10*%
X87350000Y-117300000D03*
D11*
X86050000Y-117300000D03*
%TD*%
D10*
%TO.C,TP128*%
X80800000Y-47300000D03*
D11*
X79500000Y-47300000D03*
%TD*%
D12*
%TO.C,H4*%
X27000000Y-40000000D03*
%TD*%
D10*
%TO.C,TP70*%
X106650000Y-57244000D03*
D11*
X105350000Y-57244000D03*
%TD*%
D10*
%TO.C,TP80*%
X105100000Y-47300000D03*
D11*
X103800000Y-47300000D03*
%TD*%
D10*
%TO.C,TP79*%
X103850000Y-52300000D03*
D11*
X102550000Y-52300000D03*
%TD*%
D10*
%TO.C,TP126*%
X78300000Y-57244000D03*
D11*
X77000000Y-57244000D03*
%TD*%
D10*
%TO.C,TP54*%
X72100000Y-97350000D03*
D11*
X70800000Y-97350000D03*
%TD*%
D10*
%TO.C,TP64*%
X70550000Y-87300000D03*
D11*
X69250000Y-87300000D03*
%TD*%
D10*
%TO.C,TP65*%
X100150000Y-82244000D03*
D11*
X98850000Y-82244000D03*
%TD*%
D10*
%TO.C,TP61*%
X66800000Y-102300000D03*
D11*
X65500000Y-102300000D03*
%TD*%
D10*
%TO.C,TP5*%
X95150000Y-102300000D03*
D11*
X93850000Y-102300000D03*
%TD*%
D10*
%TO.C,TP106*%
X81150000Y-77244000D03*
D11*
X79850000Y-77244000D03*
%TD*%
D10*
%TO.C,TP99*%
X86450000Y-72244000D03*
D11*
X85150000Y-72244000D03*
%TD*%
D10*
%TO.C,TP28*%
X81750000Y-107300000D03*
D11*
X80450000Y-107300000D03*
%TD*%
D10*
%TO.C,TP53*%
X70850000Y-102300000D03*
D11*
X69550000Y-102300000D03*
%TD*%
D10*
%TO.C,TP30*%
X84250000Y-97350000D03*
D11*
X82950000Y-97350000D03*
%TD*%
D12*
%TO.C,H1*%
X115000000Y-127700000D03*
%TD*%
D10*
%TO.C,TP119*%
X83600000Y-52300000D03*
D11*
X82300000Y-52300000D03*
%TD*%
D10*
%TO.C,TP90*%
X89250000Y-77244000D03*
D11*
X87950000Y-77244000D03*
%TD*%
D10*
%TO.C,TP68*%
X104150000Y-67244000D03*
D11*
X102850000Y-67244000D03*
%TD*%
D19*
%TO.C,C9*%
X57350000Y-57150000D03*
X58310000Y-57150000D03*
%TD*%
D10*
%TO.C,TP20*%
X85800000Y-107300000D03*
D11*
X84500000Y-107300000D03*
%TD*%
D10*
%TO.C,TP59*%
X64300000Y-112300000D03*
D11*
X63000000Y-112300000D03*
%TD*%
D10*
%TO.C,TP41*%
X69850000Y-122300000D03*
D11*
X68550000Y-122300000D03*
%TD*%
D10*
%TO.C,TP50*%
X67100000Y-117300000D03*
D11*
X65800000Y-117300000D03*
%TD*%
D10*
%TO.C,TP37*%
X78950000Y-102300000D03*
D11*
X77650000Y-102300000D03*
%TD*%
D10*
%TO.C,TP93*%
X93250000Y-62244000D03*
D11*
X91950000Y-62244000D03*
%TD*%
D10*
%TO.C,TP73*%
X96100000Y-82244000D03*
D11*
X94800000Y-82244000D03*
%TD*%
D10*
%TO.C,TP45*%
X74900000Y-102300000D03*
D11*
X73600000Y-102300000D03*
%TD*%
D10*
%TO.C,TP34*%
X75200000Y-117300000D03*
D11*
X73900000Y-117300000D03*
%TD*%
D10*
%TO.C,TP35*%
X76450000Y-112300000D03*
D11*
X75150000Y-112300000D03*
%TD*%
D10*
%TO.C,TP11*%
X88600000Y-112300000D03*
D11*
X87300000Y-112300000D03*
%TD*%
D10*
%TO.C,TP13*%
X91100000Y-102300000D03*
D11*
X89800000Y-102300000D03*
%TD*%
D10*
%TO.C,TP103*%
X91700000Y-52300000D03*
D11*
X90400000Y-52300000D03*
%TD*%
D10*
%TO.C,TP62*%
X68050000Y-97350000D03*
D11*
X66750000Y-97350000D03*
%TD*%
D10*
%TO.C,TP33*%
X73900000Y-122300000D03*
D11*
X72600000Y-122300000D03*
%TD*%
D10*
%TO.C,TP31*%
X85500000Y-92350000D03*
D11*
X84200000Y-92350000D03*
%TD*%
D10*
%TO.C,TP63*%
X69300000Y-92350000D03*
D11*
X68000000Y-92350000D03*
%TD*%
D10*
%TO.C,TP100*%
X87950000Y-67244000D03*
D11*
X86650000Y-67244000D03*
%TD*%
D10*
%TO.C,TP122*%
X73050000Y-77244000D03*
D11*
X71750000Y-77244000D03*
%TD*%
M02*
