%TF.GenerationSoftware,KiCad,Pcbnew,7.0.1*%
%TF.CreationDate,2023-03-19T16:13:32+09:00*%
%TF.ProjectId,keypad16,6b657970-6164-4313-962e-6b696361645f,rev?*%
%TF.SameCoordinates,Original*%
%TF.FileFunction,Legend,Top*%
%TF.FilePolarity,Positive*%
%FSLAX46Y46*%
G04 Gerber Fmt 4.6, Leading zero omitted, Abs format (unit mm)*
G04 Created by KiCad (PCBNEW 7.0.1) date 2023-03-19 16:13:32*
%MOMM*%
%LPD*%
G01*
G04 APERTURE LIST*
%ADD10C,0.150000*%
%ADD11C,0.254000*%
%ADD12C,0.100000*%
%ADD13C,0.120000*%
%ADD14C,0.200000*%
%ADD15C,0.500000*%
G04 APERTURE END LIST*
D10*
%TO.C,J3*%
X51666666Y-70702619D02*
X51666666Y-71416904D01*
X51666666Y-71416904D02*
X51619047Y-71559761D01*
X51619047Y-71559761D02*
X51523809Y-71655000D01*
X51523809Y-71655000D02*
X51380952Y-71702619D01*
X51380952Y-71702619D02*
X51285714Y-71702619D01*
X52047619Y-70702619D02*
X52666666Y-70702619D01*
X52666666Y-70702619D02*
X52333333Y-71083571D01*
X52333333Y-71083571D02*
X52476190Y-71083571D01*
X52476190Y-71083571D02*
X52571428Y-71131190D01*
X52571428Y-71131190D02*
X52619047Y-71178809D01*
X52619047Y-71178809D02*
X52666666Y-71274047D01*
X52666666Y-71274047D02*
X52666666Y-71512142D01*
X52666666Y-71512142D02*
X52619047Y-71607380D01*
X52619047Y-71607380D02*
X52571428Y-71655000D01*
X52571428Y-71655000D02*
X52476190Y-71702619D01*
X52476190Y-71702619D02*
X52190476Y-71702619D01*
X52190476Y-71702619D02*
X52095238Y-71655000D01*
X52095238Y-71655000D02*
X52047619Y-71607380D01*
%TO.C,C1*%
X60233333Y-84267380D02*
X60185714Y-84315000D01*
X60185714Y-84315000D02*
X60042857Y-84362619D01*
X60042857Y-84362619D02*
X59947619Y-84362619D01*
X59947619Y-84362619D02*
X59804762Y-84315000D01*
X59804762Y-84315000D02*
X59709524Y-84219761D01*
X59709524Y-84219761D02*
X59661905Y-84124523D01*
X59661905Y-84124523D02*
X59614286Y-83934047D01*
X59614286Y-83934047D02*
X59614286Y-83791190D01*
X59614286Y-83791190D02*
X59661905Y-83600714D01*
X59661905Y-83600714D02*
X59709524Y-83505476D01*
X59709524Y-83505476D02*
X59804762Y-83410238D01*
X59804762Y-83410238D02*
X59947619Y-83362619D01*
X59947619Y-83362619D02*
X60042857Y-83362619D01*
X60042857Y-83362619D02*
X60185714Y-83410238D01*
X60185714Y-83410238D02*
X60233333Y-83457857D01*
X61185714Y-84362619D02*
X60614286Y-84362619D01*
X60900000Y-84362619D02*
X60900000Y-83362619D01*
X60900000Y-83362619D02*
X60804762Y-83505476D01*
X60804762Y-83505476D02*
X60709524Y-83600714D01*
X60709524Y-83600714D02*
X60614286Y-83648333D01*
%TO.C,U1*%
X54238095Y-86062619D02*
X54238095Y-86872142D01*
X54238095Y-86872142D02*
X54285714Y-86967380D01*
X54285714Y-86967380D02*
X54333333Y-87015000D01*
X54333333Y-87015000D02*
X54428571Y-87062619D01*
X54428571Y-87062619D02*
X54619047Y-87062619D01*
X54619047Y-87062619D02*
X54714285Y-87015000D01*
X54714285Y-87015000D02*
X54761904Y-86967380D01*
X54761904Y-86967380D02*
X54809523Y-86872142D01*
X54809523Y-86872142D02*
X54809523Y-86062619D01*
X55809523Y-87062619D02*
X55238095Y-87062619D01*
X55523809Y-87062619D02*
X55523809Y-86062619D01*
X55523809Y-86062619D02*
X55428571Y-86205476D01*
X55428571Y-86205476D02*
X55333333Y-86300714D01*
X55333333Y-86300714D02*
X55238095Y-86348333D01*
%TO.C,J4*%
X51666666Y-116862619D02*
X51666666Y-117576904D01*
X51666666Y-117576904D02*
X51619047Y-117719761D01*
X51619047Y-117719761D02*
X51523809Y-117815000D01*
X51523809Y-117815000D02*
X51380952Y-117862619D01*
X51380952Y-117862619D02*
X51285714Y-117862619D01*
X52571428Y-117195952D02*
X52571428Y-117862619D01*
X52333333Y-116815000D02*
X52095238Y-117529285D01*
X52095238Y-117529285D02*
X52714285Y-117529285D01*
%TO.C,C6*%
X57663333Y-51307380D02*
X57615714Y-51355000D01*
X57615714Y-51355000D02*
X57472857Y-51402619D01*
X57472857Y-51402619D02*
X57377619Y-51402619D01*
X57377619Y-51402619D02*
X57234762Y-51355000D01*
X57234762Y-51355000D02*
X57139524Y-51259761D01*
X57139524Y-51259761D02*
X57091905Y-51164523D01*
X57091905Y-51164523D02*
X57044286Y-50974047D01*
X57044286Y-50974047D02*
X57044286Y-50831190D01*
X57044286Y-50831190D02*
X57091905Y-50640714D01*
X57091905Y-50640714D02*
X57139524Y-50545476D01*
X57139524Y-50545476D02*
X57234762Y-50450238D01*
X57234762Y-50450238D02*
X57377619Y-50402619D01*
X57377619Y-50402619D02*
X57472857Y-50402619D01*
X57472857Y-50402619D02*
X57615714Y-50450238D01*
X57615714Y-50450238D02*
X57663333Y-50497857D01*
X58520476Y-50402619D02*
X58330000Y-50402619D01*
X58330000Y-50402619D02*
X58234762Y-50450238D01*
X58234762Y-50450238D02*
X58187143Y-50497857D01*
X58187143Y-50497857D02*
X58091905Y-50640714D01*
X58091905Y-50640714D02*
X58044286Y-50831190D01*
X58044286Y-50831190D02*
X58044286Y-51212142D01*
X58044286Y-51212142D02*
X58091905Y-51307380D01*
X58091905Y-51307380D02*
X58139524Y-51355000D01*
X58139524Y-51355000D02*
X58234762Y-51402619D01*
X58234762Y-51402619D02*
X58425238Y-51402619D01*
X58425238Y-51402619D02*
X58520476Y-51355000D01*
X58520476Y-51355000D02*
X58568095Y-51307380D01*
X58568095Y-51307380D02*
X58615714Y-51212142D01*
X58615714Y-51212142D02*
X58615714Y-50974047D01*
X58615714Y-50974047D02*
X58568095Y-50878809D01*
X58568095Y-50878809D02*
X58520476Y-50831190D01*
X58520476Y-50831190D02*
X58425238Y-50783571D01*
X58425238Y-50783571D02*
X58234762Y-50783571D01*
X58234762Y-50783571D02*
X58139524Y-50831190D01*
X58139524Y-50831190D02*
X58091905Y-50878809D01*
X58091905Y-50878809D02*
X58044286Y-50974047D01*
%TO.C,J2*%
X51666666Y-99782619D02*
X51666666Y-100496904D01*
X51666666Y-100496904D02*
X51619047Y-100639761D01*
X51619047Y-100639761D02*
X51523809Y-100735000D01*
X51523809Y-100735000D02*
X51380952Y-100782619D01*
X51380952Y-100782619D02*
X51285714Y-100782619D01*
X52095238Y-99877857D02*
X52142857Y-99830238D01*
X52142857Y-99830238D02*
X52238095Y-99782619D01*
X52238095Y-99782619D02*
X52476190Y-99782619D01*
X52476190Y-99782619D02*
X52571428Y-99830238D01*
X52571428Y-99830238D02*
X52619047Y-99877857D01*
X52619047Y-99877857D02*
X52666666Y-99973095D01*
X52666666Y-99973095D02*
X52666666Y-100068333D01*
X52666666Y-100068333D02*
X52619047Y-100211190D01*
X52619047Y-100211190D02*
X52047619Y-100782619D01*
X52047619Y-100782619D02*
X52666666Y-100782619D01*
%TO.C,C10*%
X57187142Y-46207380D02*
X57139523Y-46255000D01*
X57139523Y-46255000D02*
X56996666Y-46302619D01*
X56996666Y-46302619D02*
X56901428Y-46302619D01*
X56901428Y-46302619D02*
X56758571Y-46255000D01*
X56758571Y-46255000D02*
X56663333Y-46159761D01*
X56663333Y-46159761D02*
X56615714Y-46064523D01*
X56615714Y-46064523D02*
X56568095Y-45874047D01*
X56568095Y-45874047D02*
X56568095Y-45731190D01*
X56568095Y-45731190D02*
X56615714Y-45540714D01*
X56615714Y-45540714D02*
X56663333Y-45445476D01*
X56663333Y-45445476D02*
X56758571Y-45350238D01*
X56758571Y-45350238D02*
X56901428Y-45302619D01*
X56901428Y-45302619D02*
X56996666Y-45302619D01*
X56996666Y-45302619D02*
X57139523Y-45350238D01*
X57139523Y-45350238D02*
X57187142Y-45397857D01*
X58139523Y-46302619D02*
X57568095Y-46302619D01*
X57853809Y-46302619D02*
X57853809Y-45302619D01*
X57853809Y-45302619D02*
X57758571Y-45445476D01*
X57758571Y-45445476D02*
X57663333Y-45540714D01*
X57663333Y-45540714D02*
X57568095Y-45588333D01*
X58758571Y-45302619D02*
X58853809Y-45302619D01*
X58853809Y-45302619D02*
X58949047Y-45350238D01*
X58949047Y-45350238D02*
X58996666Y-45397857D01*
X58996666Y-45397857D02*
X59044285Y-45493095D01*
X59044285Y-45493095D02*
X59091904Y-45683571D01*
X59091904Y-45683571D02*
X59091904Y-45921666D01*
X59091904Y-45921666D02*
X59044285Y-46112142D01*
X59044285Y-46112142D02*
X58996666Y-46207380D01*
X58996666Y-46207380D02*
X58949047Y-46255000D01*
X58949047Y-46255000D02*
X58853809Y-46302619D01*
X58853809Y-46302619D02*
X58758571Y-46302619D01*
X58758571Y-46302619D02*
X58663333Y-46255000D01*
X58663333Y-46255000D02*
X58615714Y-46207380D01*
X58615714Y-46207380D02*
X58568095Y-46112142D01*
X58568095Y-46112142D02*
X58520476Y-45921666D01*
X58520476Y-45921666D02*
X58520476Y-45683571D01*
X58520476Y-45683571D02*
X58568095Y-45493095D01*
X58568095Y-45493095D02*
X58615714Y-45397857D01*
X58615714Y-45397857D02*
X58663333Y-45350238D01*
X58663333Y-45350238D02*
X58758571Y-45302619D01*
D11*
%TO.C,J1*%
X34063526Y-79083332D02*
X34970669Y-79083332D01*
X34970669Y-79083332D02*
X35152097Y-79143809D01*
X35152097Y-79143809D02*
X35273050Y-79264761D01*
X35273050Y-79264761D02*
X35333526Y-79446190D01*
X35333526Y-79446190D02*
X35333526Y-79567142D01*
X35333526Y-77813332D02*
X35333526Y-78539047D01*
X35333526Y-78176190D02*
X34063526Y-78176190D01*
X34063526Y-78176190D02*
X34244954Y-78297142D01*
X34244954Y-78297142D02*
X34365907Y-78418094D01*
X34365907Y-78418094D02*
X34426383Y-78539047D01*
D10*
%TO.C,C4*%
X57663333Y-53907380D02*
X57615714Y-53955000D01*
X57615714Y-53955000D02*
X57472857Y-54002619D01*
X57472857Y-54002619D02*
X57377619Y-54002619D01*
X57377619Y-54002619D02*
X57234762Y-53955000D01*
X57234762Y-53955000D02*
X57139524Y-53859761D01*
X57139524Y-53859761D02*
X57091905Y-53764523D01*
X57091905Y-53764523D02*
X57044286Y-53574047D01*
X57044286Y-53574047D02*
X57044286Y-53431190D01*
X57044286Y-53431190D02*
X57091905Y-53240714D01*
X57091905Y-53240714D02*
X57139524Y-53145476D01*
X57139524Y-53145476D02*
X57234762Y-53050238D01*
X57234762Y-53050238D02*
X57377619Y-53002619D01*
X57377619Y-53002619D02*
X57472857Y-53002619D01*
X57472857Y-53002619D02*
X57615714Y-53050238D01*
X57615714Y-53050238D02*
X57663333Y-53097857D01*
X58520476Y-53335952D02*
X58520476Y-54002619D01*
X58282381Y-52955000D02*
X58044286Y-53669285D01*
X58044286Y-53669285D02*
X58663333Y-53669285D01*
%TO.C,C5*%
X57663333Y-61407380D02*
X57615714Y-61455000D01*
X57615714Y-61455000D02*
X57472857Y-61502619D01*
X57472857Y-61502619D02*
X57377619Y-61502619D01*
X57377619Y-61502619D02*
X57234762Y-61455000D01*
X57234762Y-61455000D02*
X57139524Y-61359761D01*
X57139524Y-61359761D02*
X57091905Y-61264523D01*
X57091905Y-61264523D02*
X57044286Y-61074047D01*
X57044286Y-61074047D02*
X57044286Y-60931190D01*
X57044286Y-60931190D02*
X57091905Y-60740714D01*
X57091905Y-60740714D02*
X57139524Y-60645476D01*
X57139524Y-60645476D02*
X57234762Y-60550238D01*
X57234762Y-60550238D02*
X57377619Y-60502619D01*
X57377619Y-60502619D02*
X57472857Y-60502619D01*
X57472857Y-60502619D02*
X57615714Y-60550238D01*
X57615714Y-60550238D02*
X57663333Y-60597857D01*
X58568095Y-60502619D02*
X58091905Y-60502619D01*
X58091905Y-60502619D02*
X58044286Y-60978809D01*
X58044286Y-60978809D02*
X58091905Y-60931190D01*
X58091905Y-60931190D02*
X58187143Y-60883571D01*
X58187143Y-60883571D02*
X58425238Y-60883571D01*
X58425238Y-60883571D02*
X58520476Y-60931190D01*
X58520476Y-60931190D02*
X58568095Y-60978809D01*
X58568095Y-60978809D02*
X58615714Y-61074047D01*
X58615714Y-61074047D02*
X58615714Y-61312142D01*
X58615714Y-61312142D02*
X58568095Y-61407380D01*
X58568095Y-61407380D02*
X58520476Y-61455000D01*
X58520476Y-61455000D02*
X58425238Y-61502619D01*
X58425238Y-61502619D02*
X58187143Y-61502619D01*
X58187143Y-61502619D02*
X58091905Y-61455000D01*
X58091905Y-61455000D02*
X58044286Y-61407380D01*
%TO.C,C3*%
X57663333Y-64007380D02*
X57615714Y-64055000D01*
X57615714Y-64055000D02*
X57472857Y-64102619D01*
X57472857Y-64102619D02*
X57377619Y-64102619D01*
X57377619Y-64102619D02*
X57234762Y-64055000D01*
X57234762Y-64055000D02*
X57139524Y-63959761D01*
X57139524Y-63959761D02*
X57091905Y-63864523D01*
X57091905Y-63864523D02*
X57044286Y-63674047D01*
X57044286Y-63674047D02*
X57044286Y-63531190D01*
X57044286Y-63531190D02*
X57091905Y-63340714D01*
X57091905Y-63340714D02*
X57139524Y-63245476D01*
X57139524Y-63245476D02*
X57234762Y-63150238D01*
X57234762Y-63150238D02*
X57377619Y-63102619D01*
X57377619Y-63102619D02*
X57472857Y-63102619D01*
X57472857Y-63102619D02*
X57615714Y-63150238D01*
X57615714Y-63150238D02*
X57663333Y-63197857D01*
X57996667Y-63102619D02*
X58615714Y-63102619D01*
X58615714Y-63102619D02*
X58282381Y-63483571D01*
X58282381Y-63483571D02*
X58425238Y-63483571D01*
X58425238Y-63483571D02*
X58520476Y-63531190D01*
X58520476Y-63531190D02*
X58568095Y-63578809D01*
X58568095Y-63578809D02*
X58615714Y-63674047D01*
X58615714Y-63674047D02*
X58615714Y-63912142D01*
X58615714Y-63912142D02*
X58568095Y-64007380D01*
X58568095Y-64007380D02*
X58520476Y-64055000D01*
X58520476Y-64055000D02*
X58425238Y-64102619D01*
X58425238Y-64102619D02*
X58139524Y-64102619D01*
X58139524Y-64102619D02*
X58044286Y-64055000D01*
X58044286Y-64055000D02*
X57996667Y-64007380D01*
%TO.C,C8*%
X57663333Y-48907380D02*
X57615714Y-48955000D01*
X57615714Y-48955000D02*
X57472857Y-49002619D01*
X57472857Y-49002619D02*
X57377619Y-49002619D01*
X57377619Y-49002619D02*
X57234762Y-48955000D01*
X57234762Y-48955000D02*
X57139524Y-48859761D01*
X57139524Y-48859761D02*
X57091905Y-48764523D01*
X57091905Y-48764523D02*
X57044286Y-48574047D01*
X57044286Y-48574047D02*
X57044286Y-48431190D01*
X57044286Y-48431190D02*
X57091905Y-48240714D01*
X57091905Y-48240714D02*
X57139524Y-48145476D01*
X57139524Y-48145476D02*
X57234762Y-48050238D01*
X57234762Y-48050238D02*
X57377619Y-48002619D01*
X57377619Y-48002619D02*
X57472857Y-48002619D01*
X57472857Y-48002619D02*
X57615714Y-48050238D01*
X57615714Y-48050238D02*
X57663333Y-48097857D01*
X58234762Y-48431190D02*
X58139524Y-48383571D01*
X58139524Y-48383571D02*
X58091905Y-48335952D01*
X58091905Y-48335952D02*
X58044286Y-48240714D01*
X58044286Y-48240714D02*
X58044286Y-48193095D01*
X58044286Y-48193095D02*
X58091905Y-48097857D01*
X58091905Y-48097857D02*
X58139524Y-48050238D01*
X58139524Y-48050238D02*
X58234762Y-48002619D01*
X58234762Y-48002619D02*
X58425238Y-48002619D01*
X58425238Y-48002619D02*
X58520476Y-48050238D01*
X58520476Y-48050238D02*
X58568095Y-48097857D01*
X58568095Y-48097857D02*
X58615714Y-48193095D01*
X58615714Y-48193095D02*
X58615714Y-48240714D01*
X58615714Y-48240714D02*
X58568095Y-48335952D01*
X58568095Y-48335952D02*
X58520476Y-48383571D01*
X58520476Y-48383571D02*
X58425238Y-48431190D01*
X58425238Y-48431190D02*
X58234762Y-48431190D01*
X58234762Y-48431190D02*
X58139524Y-48478809D01*
X58139524Y-48478809D02*
X58091905Y-48526428D01*
X58091905Y-48526428D02*
X58044286Y-48621666D01*
X58044286Y-48621666D02*
X58044286Y-48812142D01*
X58044286Y-48812142D02*
X58091905Y-48907380D01*
X58091905Y-48907380D02*
X58139524Y-48955000D01*
X58139524Y-48955000D02*
X58234762Y-49002619D01*
X58234762Y-49002619D02*
X58425238Y-49002619D01*
X58425238Y-49002619D02*
X58520476Y-48955000D01*
X58520476Y-48955000D02*
X58568095Y-48907380D01*
X58568095Y-48907380D02*
X58615714Y-48812142D01*
X58615714Y-48812142D02*
X58615714Y-48621666D01*
X58615714Y-48621666D02*
X58568095Y-48526428D01*
X58568095Y-48526428D02*
X58520476Y-48478809D01*
X58520476Y-48478809D02*
X58425238Y-48431190D01*
%TO.C,C7*%
X57663333Y-58657380D02*
X57615714Y-58705000D01*
X57615714Y-58705000D02*
X57472857Y-58752619D01*
X57472857Y-58752619D02*
X57377619Y-58752619D01*
X57377619Y-58752619D02*
X57234762Y-58705000D01*
X57234762Y-58705000D02*
X57139524Y-58609761D01*
X57139524Y-58609761D02*
X57091905Y-58514523D01*
X57091905Y-58514523D02*
X57044286Y-58324047D01*
X57044286Y-58324047D02*
X57044286Y-58181190D01*
X57044286Y-58181190D02*
X57091905Y-57990714D01*
X57091905Y-57990714D02*
X57139524Y-57895476D01*
X57139524Y-57895476D02*
X57234762Y-57800238D01*
X57234762Y-57800238D02*
X57377619Y-57752619D01*
X57377619Y-57752619D02*
X57472857Y-57752619D01*
X57472857Y-57752619D02*
X57615714Y-57800238D01*
X57615714Y-57800238D02*
X57663333Y-57847857D01*
X57996667Y-57752619D02*
X58663333Y-57752619D01*
X58663333Y-57752619D02*
X58234762Y-58752619D01*
%TO.C,C2*%
X60233333Y-85667380D02*
X60185714Y-85715000D01*
X60185714Y-85715000D02*
X60042857Y-85762619D01*
X60042857Y-85762619D02*
X59947619Y-85762619D01*
X59947619Y-85762619D02*
X59804762Y-85715000D01*
X59804762Y-85715000D02*
X59709524Y-85619761D01*
X59709524Y-85619761D02*
X59661905Y-85524523D01*
X59661905Y-85524523D02*
X59614286Y-85334047D01*
X59614286Y-85334047D02*
X59614286Y-85191190D01*
X59614286Y-85191190D02*
X59661905Y-85000714D01*
X59661905Y-85000714D02*
X59709524Y-84905476D01*
X59709524Y-84905476D02*
X59804762Y-84810238D01*
X59804762Y-84810238D02*
X59947619Y-84762619D01*
X59947619Y-84762619D02*
X60042857Y-84762619D01*
X60042857Y-84762619D02*
X60185714Y-84810238D01*
X60185714Y-84810238D02*
X60233333Y-84857857D01*
X60614286Y-84857857D02*
X60661905Y-84810238D01*
X60661905Y-84810238D02*
X60757143Y-84762619D01*
X60757143Y-84762619D02*
X60995238Y-84762619D01*
X60995238Y-84762619D02*
X61090476Y-84810238D01*
X61090476Y-84810238D02*
X61138095Y-84857857D01*
X61138095Y-84857857D02*
X61185714Y-84953095D01*
X61185714Y-84953095D02*
X61185714Y-85048333D01*
X61185714Y-85048333D02*
X61138095Y-85191190D01*
X61138095Y-85191190D02*
X60566667Y-85762619D01*
X60566667Y-85762619D02*
X61185714Y-85762619D01*
%TO.C,C9*%
X57663333Y-56357380D02*
X57615714Y-56405000D01*
X57615714Y-56405000D02*
X57472857Y-56452619D01*
X57472857Y-56452619D02*
X57377619Y-56452619D01*
X57377619Y-56452619D02*
X57234762Y-56405000D01*
X57234762Y-56405000D02*
X57139524Y-56309761D01*
X57139524Y-56309761D02*
X57091905Y-56214523D01*
X57091905Y-56214523D02*
X57044286Y-56024047D01*
X57044286Y-56024047D02*
X57044286Y-55881190D01*
X57044286Y-55881190D02*
X57091905Y-55690714D01*
X57091905Y-55690714D02*
X57139524Y-55595476D01*
X57139524Y-55595476D02*
X57234762Y-55500238D01*
X57234762Y-55500238D02*
X57377619Y-55452619D01*
X57377619Y-55452619D02*
X57472857Y-55452619D01*
X57472857Y-55452619D02*
X57615714Y-55500238D01*
X57615714Y-55500238D02*
X57663333Y-55547857D01*
X58139524Y-56452619D02*
X58330000Y-56452619D01*
X58330000Y-56452619D02*
X58425238Y-56405000D01*
X58425238Y-56405000D02*
X58472857Y-56357380D01*
X58472857Y-56357380D02*
X58568095Y-56214523D01*
X58568095Y-56214523D02*
X58615714Y-56024047D01*
X58615714Y-56024047D02*
X58615714Y-55643095D01*
X58615714Y-55643095D02*
X58568095Y-55547857D01*
X58568095Y-55547857D02*
X58520476Y-55500238D01*
X58520476Y-55500238D02*
X58425238Y-55452619D01*
X58425238Y-55452619D02*
X58234762Y-55452619D01*
X58234762Y-55452619D02*
X58139524Y-55500238D01*
X58139524Y-55500238D02*
X58091905Y-55547857D01*
X58091905Y-55547857D02*
X58044286Y-55643095D01*
X58044286Y-55643095D02*
X58044286Y-55881190D01*
X58044286Y-55881190D02*
X58091905Y-55976428D01*
X58091905Y-55976428D02*
X58139524Y-56024047D01*
X58139524Y-56024047D02*
X58234762Y-56071666D01*
X58234762Y-56071666D02*
X58425238Y-56071666D01*
X58425238Y-56071666D02*
X58520476Y-56024047D01*
X58520476Y-56024047D02*
X58568095Y-55976428D01*
X58568095Y-55976428D02*
X58615714Y-55881190D01*
D12*
%TO.C,TP123*%
X74900000Y-73494000D02*
X72400000Y-73494000D01*
X72400000Y-73494000D02*
X72400000Y-70994000D01*
X72400000Y-70994000D02*
X74900000Y-70994000D01*
X74900000Y-70994000D02*
X74900000Y-73494000D01*
%TO.C,TP4*%
X94500000Y-108550000D02*
X92000000Y-108550000D01*
X92000000Y-108550000D02*
X92000000Y-106050000D01*
X92000000Y-106050000D02*
X94500000Y-106050000D01*
X94500000Y-106050000D02*
X94500000Y-108550000D01*
%TO.C,TP21*%
X87650000Y-103550000D02*
X85150000Y-103550000D01*
X85150000Y-103550000D02*
X85150000Y-101050000D01*
X85150000Y-101050000D02*
X87650000Y-101050000D01*
X87650000Y-101050000D02*
X87650000Y-103550000D01*
%TO.C,TP96*%
X97600000Y-48550000D02*
X95100000Y-48550000D01*
X95100000Y-48550000D02*
X95100000Y-46050000D01*
X95100000Y-46050000D02*
X97600000Y-46050000D01*
X97600000Y-46050000D02*
X97600000Y-48550000D01*
%TO.C,TP107*%
X83000000Y-73494000D02*
X80500000Y-73494000D01*
X80500000Y-73494000D02*
X80500000Y-70994000D01*
X80500000Y-70994000D02*
X83000000Y-70994000D01*
X83000000Y-70994000D02*
X83000000Y-73494000D01*
%TO.C,TP98*%
X85800000Y-78494000D02*
X83300000Y-78494000D01*
X83300000Y-78494000D02*
X83300000Y-75994000D01*
X83300000Y-75994000D02*
X85800000Y-75994000D01*
X85800000Y-75994000D02*
X85800000Y-78494000D01*
%TO.C,TP27*%
X81100000Y-113550000D02*
X78600000Y-113550000D01*
X78600000Y-113550000D02*
X78600000Y-111050000D01*
X78600000Y-111050000D02*
X81100000Y-111050000D01*
X81100000Y-111050000D02*
X81100000Y-113550000D01*
%TO.C,TP17*%
X82600000Y-123550000D02*
X80100000Y-123550000D01*
X80100000Y-123550000D02*
X80100000Y-121050000D01*
X80100000Y-121050000D02*
X82600000Y-121050000D01*
X82600000Y-121050000D02*
X82600000Y-123550000D01*
%TO.C,TP121*%
X72400000Y-83494000D02*
X69900000Y-83494000D01*
X69900000Y-83494000D02*
X69900000Y-80994000D01*
X69900000Y-80994000D02*
X72400000Y-80994000D01*
X72400000Y-80994000D02*
X72400000Y-83494000D01*
%TO.C,TP92*%
X92600000Y-68494000D02*
X90100000Y-68494000D01*
X90100000Y-68494000D02*
X90100000Y-65994000D01*
X90100000Y-65994000D02*
X92600000Y-65994000D01*
X92600000Y-65994000D02*
X92600000Y-68494000D01*
%TO.C,TP97*%
X84550000Y-83494000D02*
X82050000Y-83494000D01*
X82050000Y-83494000D02*
X82050000Y-80994000D01*
X82050000Y-80994000D02*
X84550000Y-80994000D01*
X84550000Y-80994000D02*
X84550000Y-83494000D01*
%TO.C,TP109*%
X85750000Y-63494000D02*
X83250000Y-63494000D01*
X83250000Y-63494000D02*
X83250000Y-60994000D01*
X83250000Y-60994000D02*
X85750000Y-60994000D01*
X85750000Y-60994000D02*
X85750000Y-63494000D01*
%TO.C,TP26*%
X79850000Y-118550000D02*
X77350000Y-118550000D01*
X77350000Y-118550000D02*
X77350000Y-116050000D01*
X77350000Y-116050000D02*
X79850000Y-116050000D01*
X79850000Y-116050000D02*
X79850000Y-118550000D01*
%TO.C,TP56*%
X75200000Y-88550000D02*
X72700000Y-88550000D01*
X72700000Y-88550000D02*
X72700000Y-86050000D01*
X72700000Y-86050000D02*
X75200000Y-86050000D01*
X75200000Y-86050000D02*
X75200000Y-88550000D01*
%TO.C,TP1*%
X90700000Y-123550000D02*
X88200000Y-123550000D01*
X88200000Y-123550000D02*
X88200000Y-121050000D01*
X88200000Y-121050000D02*
X90700000Y-121050000D01*
X90700000Y-121050000D02*
X90700000Y-123550000D01*
%TO.C,TP42*%
X71750000Y-118550000D02*
X69250000Y-118550000D01*
X69250000Y-118550000D02*
X69250000Y-116050000D01*
X69250000Y-116050000D02*
X71750000Y-116050000D01*
X71750000Y-116050000D02*
X71750000Y-118550000D01*
D13*
%TO.C,J3*%
X53330000Y-70240000D02*
X52000000Y-70240000D01*
X53330000Y-68910000D02*
X53330000Y-70240000D01*
X53330000Y-67640000D02*
X53330000Y-49800000D01*
X53330000Y-67640000D02*
X50670000Y-67640000D01*
X53330000Y-49800000D02*
X50670000Y-49800000D01*
X50670000Y-67640000D02*
X50670000Y-49800000D01*
D12*
%TO.C,TP71*%
X108500000Y-53550000D02*
X106000000Y-53550000D01*
X106000000Y-53550000D02*
X106000000Y-51050000D01*
X106000000Y-51050000D02*
X108500000Y-51050000D01*
X108500000Y-51050000D02*
X108500000Y-53550000D01*
%TO.C,TP57*%
X62350000Y-123550000D02*
X59850000Y-123550000D01*
X59850000Y-123550000D02*
X59850000Y-121050000D01*
X59850000Y-121050000D02*
X62350000Y-121050000D01*
X62350000Y-121050000D02*
X62350000Y-123550000D01*
%TO.C,TP32*%
X87350000Y-88550000D02*
X84850000Y-88550000D01*
X84850000Y-88550000D02*
X84850000Y-86050000D01*
X84850000Y-86050000D02*
X87350000Y-86050000D01*
X87350000Y-86050000D02*
X87350000Y-88550000D01*
%TO.C,TP72*%
X109750000Y-48550000D02*
X107250000Y-48550000D01*
X107250000Y-48550000D02*
X107250000Y-46050000D01*
X107250000Y-46050000D02*
X109750000Y-46050000D01*
X109750000Y-46050000D02*
X109750000Y-48550000D01*
%TO.C,TP38*%
X80800000Y-98600000D02*
X78300000Y-98600000D01*
X78300000Y-98600000D02*
X78300000Y-96100000D01*
X78300000Y-96100000D02*
X80800000Y-96100000D01*
X80800000Y-96100000D02*
X80800000Y-98600000D01*
%TO.C,TP91*%
X91100000Y-73494000D02*
X88600000Y-73494000D01*
X88600000Y-73494000D02*
X88600000Y-70994000D01*
X88600000Y-70994000D02*
X91100000Y-70994000D01*
X91100000Y-70994000D02*
X91100000Y-73494000D01*
%TO.C,TP127*%
X80150000Y-53550000D02*
X77650000Y-53550000D01*
X77650000Y-53550000D02*
X77650000Y-51050000D01*
X77650000Y-51050000D02*
X80150000Y-51050000D01*
X80150000Y-51050000D02*
X80150000Y-53550000D01*
%TO.C,TP60*%
X66150000Y-108550000D02*
X63650000Y-108550000D01*
X63650000Y-108550000D02*
X63650000Y-106050000D01*
X63650000Y-106050000D02*
X66150000Y-106050000D01*
X66150000Y-106050000D02*
X66150000Y-108550000D01*
%TO.C,TP125*%
X77650000Y-63494000D02*
X75150000Y-63494000D01*
X75150000Y-63494000D02*
X75150000Y-60994000D01*
X75150000Y-60994000D02*
X77650000Y-60994000D01*
X77650000Y-60994000D02*
X77650000Y-63494000D01*
%TO.C,TP118*%
X82950000Y-58494000D02*
X80450000Y-58494000D01*
X80450000Y-58494000D02*
X80450000Y-55994000D01*
X80450000Y-55994000D02*
X82950000Y-55994000D01*
X82950000Y-55994000D02*
X82950000Y-58494000D01*
%TO.C,TP89*%
X88600000Y-83494000D02*
X86100000Y-83494000D01*
X86100000Y-83494000D02*
X86100000Y-80994000D01*
X86100000Y-80994000D02*
X88600000Y-80994000D01*
X88600000Y-80994000D02*
X88600000Y-83494000D01*
D13*
%TO.C,C1*%
X58140580Y-84810000D02*
X57859420Y-84810000D01*
X58140580Y-83790000D02*
X57859420Y-83790000D01*
D12*
%TO.C,TP18*%
X83900000Y-118550000D02*
X81400000Y-118550000D01*
X81400000Y-118550000D02*
X81400000Y-116050000D01*
X81400000Y-116050000D02*
X83900000Y-116050000D01*
X83900000Y-116050000D02*
X83900000Y-118550000D01*
%TO.C,TP36*%
X78300000Y-108550000D02*
X75800000Y-108550000D01*
X75800000Y-108550000D02*
X75800000Y-106050000D01*
X75800000Y-106050000D02*
X78300000Y-106050000D01*
X78300000Y-106050000D02*
X78300000Y-108550000D01*
%TO.C,TP116*%
X80450000Y-68494000D02*
X77950000Y-68494000D01*
X77950000Y-68494000D02*
X77950000Y-65994000D01*
X77950000Y-65994000D02*
X80450000Y-65994000D01*
X80450000Y-65994000D02*
X80450000Y-68494000D01*
D13*
%TO.C,U1*%
X56500000Y-95780000D02*
X56500000Y-95555000D01*
X57225000Y-86560000D02*
X56500000Y-86560000D01*
X57225000Y-95780000D02*
X56500000Y-95780000D01*
X59495000Y-86560000D02*
X60220000Y-86560000D01*
X59495000Y-95780000D02*
X60220000Y-95780000D01*
X60220000Y-86560000D02*
X60220000Y-86785000D01*
X60220000Y-95780000D02*
X60220000Y-95555000D01*
%TO.C,J4*%
X53380000Y-116110000D02*
X52050000Y-116110000D01*
X53380000Y-114780000D02*
X53380000Y-116110000D01*
X53380000Y-113510000D02*
X53380000Y-105830000D01*
X53380000Y-113510000D02*
X50720000Y-113510000D01*
X53380000Y-105830000D02*
X50720000Y-105830000D01*
X50720000Y-113510000D02*
X50720000Y-105830000D01*
D12*
%TO.C,TP77*%
X101950000Y-63494000D02*
X99450000Y-63494000D01*
X99450000Y-63494000D02*
X99450000Y-60994000D01*
X99450000Y-60994000D02*
X101950000Y-60994000D01*
X101950000Y-60994000D02*
X101950000Y-63494000D01*
%TO.C,TP84*%
X96650000Y-68494000D02*
X94150000Y-68494000D01*
X94150000Y-68494000D02*
X94150000Y-65994000D01*
X94150000Y-65994000D02*
X96650000Y-65994000D01*
X96650000Y-65994000D02*
X96650000Y-68494000D01*
D13*
%TO.C,C6*%
X57722164Y-51740000D02*
X57937836Y-51740000D01*
X57722164Y-52460000D02*
X57937836Y-52460000D01*
D12*
%TO.C,TP7*%
X98250000Y-93600000D02*
X95750000Y-93600000D01*
X95750000Y-93600000D02*
X95750000Y-91100000D01*
X95750000Y-91100000D02*
X98250000Y-91100000D01*
X98250000Y-91100000D02*
X98250000Y-93600000D01*
%TO.C,TP52*%
X70200000Y-108550000D02*
X67700000Y-108550000D01*
X67700000Y-108550000D02*
X67700000Y-106050000D01*
X67700000Y-106050000D02*
X70200000Y-106050000D01*
X70200000Y-106050000D02*
X70200000Y-108550000D01*
%TO.C,TP58*%
X63650000Y-118550000D02*
X61150000Y-118550000D01*
X61150000Y-118550000D02*
X61150000Y-116050000D01*
X61150000Y-116050000D02*
X63650000Y-116050000D01*
X63650000Y-116050000D02*
X63650000Y-118550000D01*
D13*
%TO.C,J2*%
X53330000Y-99320000D02*
X52000000Y-99320000D01*
X53330000Y-97990000D02*
X53330000Y-99320000D01*
X53330000Y-96720000D02*
X53330000Y-78880000D01*
X53330000Y-96720000D02*
X50670000Y-96720000D01*
X53330000Y-78880000D02*
X50670000Y-78880000D01*
X50670000Y-96720000D02*
X50670000Y-78880000D01*
D12*
%TO.C,TP48*%
X79250000Y-88550000D02*
X76750000Y-88550000D01*
X76750000Y-88550000D02*
X76750000Y-86050000D01*
X76750000Y-86050000D02*
X79250000Y-86050000D01*
X79250000Y-86050000D02*
X79250000Y-88550000D01*
%TO.C,TP40*%
X83300000Y-88550000D02*
X80800000Y-88550000D01*
X80800000Y-88550000D02*
X80800000Y-86050000D01*
X80800000Y-86050000D02*
X83300000Y-86050000D01*
X83300000Y-86050000D02*
X83300000Y-88550000D01*
D13*
%TO.C,C10*%
X57722164Y-46640000D02*
X57937836Y-46640000D01*
X57722164Y-47360000D02*
X57937836Y-47360000D01*
D12*
%TO.C,TP9*%
X86650000Y-123550000D02*
X84150000Y-123550000D01*
X84150000Y-123550000D02*
X84150000Y-121050000D01*
X84150000Y-121050000D02*
X86650000Y-121050000D01*
X86650000Y-121050000D02*
X86650000Y-123550000D01*
%TO.C,TP19*%
X85150000Y-113550000D02*
X82650000Y-113550000D01*
X82650000Y-113550000D02*
X82650000Y-111050000D01*
X82650000Y-111050000D02*
X85150000Y-111050000D01*
X85150000Y-111050000D02*
X85150000Y-113550000D01*
%TO.C,TP115*%
X78950000Y-73494000D02*
X76450000Y-73494000D01*
X76450000Y-73494000D02*
X76450000Y-70994000D01*
X76450000Y-70994000D02*
X78950000Y-70994000D01*
X78950000Y-70994000D02*
X78950000Y-73494000D01*
%TO.C,TP110*%
X87000000Y-58494000D02*
X84500000Y-58494000D01*
X84500000Y-58494000D02*
X84500000Y-55994000D01*
X84500000Y-55994000D02*
X87000000Y-55994000D01*
X87000000Y-55994000D02*
X87000000Y-58494000D01*
%TO.C,TP44*%
X74250000Y-108550000D02*
X71750000Y-108550000D01*
X71750000Y-108550000D02*
X71750000Y-106050000D01*
X71750000Y-106050000D02*
X74250000Y-106050000D01*
X74250000Y-106050000D02*
X74250000Y-108550000D01*
%TO.C,TP23*%
X90150000Y-93600000D02*
X87650000Y-93600000D01*
X87650000Y-93600000D02*
X87650000Y-91100000D01*
X87650000Y-91100000D02*
X90150000Y-91100000D01*
X90150000Y-91100000D02*
X90150000Y-93600000D01*
%TO.C,TP74*%
X97950000Y-78494000D02*
X95450000Y-78494000D01*
X95450000Y-78494000D02*
X95450000Y-75994000D01*
X95450000Y-75994000D02*
X97950000Y-75994000D01*
X97950000Y-75994000D02*
X97950000Y-78494000D01*
%TO.C,TP112*%
X89500000Y-48550000D02*
X87000000Y-48550000D01*
X87000000Y-48550000D02*
X87000000Y-46050000D01*
X87000000Y-46050000D02*
X89500000Y-46050000D01*
X89500000Y-46050000D02*
X89500000Y-48550000D01*
%TO.C,TP114*%
X77700000Y-78494000D02*
X75200000Y-78494000D01*
X75200000Y-78494000D02*
X75200000Y-75994000D01*
X75200000Y-75994000D02*
X77700000Y-75994000D01*
X77700000Y-75994000D02*
X77700000Y-78494000D01*
%TO.C,TP66*%
X102000000Y-78494000D02*
X99500000Y-78494000D01*
X99500000Y-78494000D02*
X99500000Y-75994000D01*
X99500000Y-75994000D02*
X102000000Y-75994000D01*
X102000000Y-75994000D02*
X102000000Y-78494000D01*
%TO.C,TP85*%
X97900000Y-63494000D02*
X95400000Y-63494000D01*
X95400000Y-63494000D02*
X95400000Y-60994000D01*
X95400000Y-60994000D02*
X97900000Y-60994000D01*
X97900000Y-60994000D02*
X97900000Y-63494000D01*
%TO.C,TP15*%
X94200000Y-93600000D02*
X91700000Y-93600000D01*
X91700000Y-93600000D02*
X91700000Y-91100000D01*
X91700000Y-91100000D02*
X94200000Y-91100000D01*
X94200000Y-91100000D02*
X94200000Y-93600000D01*
%TO.C,TP87*%
X100400000Y-53550000D02*
X97900000Y-53550000D01*
X97900000Y-53550000D02*
X97900000Y-51050000D01*
X97900000Y-51050000D02*
X100400000Y-51050000D01*
X100400000Y-51050000D02*
X100400000Y-53550000D01*
%TO.C,TP94*%
X95100000Y-58494000D02*
X92600000Y-58494000D01*
X92600000Y-58494000D02*
X92600000Y-55994000D01*
X92600000Y-55994000D02*
X95100000Y-55994000D01*
X95100000Y-55994000D02*
X95100000Y-58494000D01*
%TO.C,TP69*%
X106000000Y-63494000D02*
X103500000Y-63494000D01*
X103500000Y-63494000D02*
X103500000Y-60994000D01*
X103500000Y-60994000D02*
X106000000Y-60994000D01*
X106000000Y-60994000D02*
X106000000Y-63494000D01*
D14*
%TO.C,J1*%
X38223000Y-52100000D02*
X25583000Y-52100000D01*
X38223000Y-52100000D02*
X38223000Y-58765000D01*
X25583000Y-52100000D02*
X25583000Y-106100000D01*
X38223000Y-106100000D02*
X38223000Y-99435000D01*
X25583000Y-106100000D02*
X38223000Y-106100000D01*
D15*
X24605000Y-98137000D02*
G75*
G03*
X24605000Y-98137000I-129000J0D01*
G01*
D12*
%TO.C,TP101*%
X89800000Y-63494000D02*
X87300000Y-63494000D01*
X87300000Y-63494000D02*
X87300000Y-60994000D01*
X87300000Y-60994000D02*
X89800000Y-60994000D01*
X89800000Y-60994000D02*
X89800000Y-63494000D01*
%TO.C,TP120*%
X85450000Y-48550000D02*
X82950000Y-48550000D01*
X82950000Y-48550000D02*
X82950000Y-46050000D01*
X82950000Y-46050000D02*
X85450000Y-46050000D01*
X85450000Y-46050000D02*
X85450000Y-48550000D01*
%TO.C,TP2*%
X92000000Y-118550000D02*
X89500000Y-118550000D01*
X89500000Y-118550000D02*
X89500000Y-116050000D01*
X89500000Y-116050000D02*
X92000000Y-116050000D01*
X92000000Y-116050000D02*
X92000000Y-118550000D01*
%TO.C,TP16*%
X95450000Y-88550000D02*
X92950000Y-88550000D01*
X92950000Y-88550000D02*
X92950000Y-86050000D01*
X92950000Y-86050000D02*
X95450000Y-86050000D01*
X95450000Y-86050000D02*
X95450000Y-88550000D01*
%TO.C,TP14*%
X92950000Y-98600000D02*
X90450000Y-98600000D01*
X90450000Y-98600000D02*
X90450000Y-96100000D01*
X90450000Y-96100000D02*
X92950000Y-96100000D01*
X92950000Y-96100000D02*
X92950000Y-98600000D01*
%TO.C,TP75*%
X99200000Y-73494000D02*
X96700000Y-73494000D01*
X96700000Y-73494000D02*
X96700000Y-70994000D01*
X96700000Y-70994000D02*
X99200000Y-70994000D01*
X99200000Y-70994000D02*
X99200000Y-73494000D01*
%TO.C,TP105*%
X80500000Y-83494000D02*
X78000000Y-83494000D01*
X78000000Y-83494000D02*
X78000000Y-80994000D01*
X78000000Y-80994000D02*
X80500000Y-80994000D01*
X80500000Y-80994000D02*
X80500000Y-83494000D01*
%TO.C,TP76*%
X100700000Y-68494000D02*
X98200000Y-68494000D01*
X98200000Y-68494000D02*
X98200000Y-65994000D01*
X98200000Y-65994000D02*
X100700000Y-65994000D01*
X100700000Y-65994000D02*
X100700000Y-68494000D01*
D13*
%TO.C,C4*%
X57722164Y-54340000D02*
X57937836Y-54340000D01*
X57722164Y-55060000D02*
X57937836Y-55060000D01*
D12*
%TO.C,TP95*%
X96350000Y-53550000D02*
X93850000Y-53550000D01*
X93850000Y-53550000D02*
X93850000Y-51050000D01*
X93850000Y-51050000D02*
X96350000Y-51050000D01*
X96350000Y-51050000D02*
X96350000Y-53550000D01*
D13*
%TO.C,C5*%
X57722164Y-61840000D02*
X57937836Y-61840000D01*
X57722164Y-62560000D02*
X57937836Y-62560000D01*
D12*
%TO.C,TP111*%
X88250000Y-53550000D02*
X85750000Y-53550000D01*
X85750000Y-53550000D02*
X85750000Y-51050000D01*
X85750000Y-51050000D02*
X88250000Y-51050000D01*
X88250000Y-51050000D02*
X88250000Y-53550000D01*
%TO.C,TP47*%
X78000000Y-93600000D02*
X75500000Y-93600000D01*
X75500000Y-93600000D02*
X75500000Y-91100000D01*
X75500000Y-91100000D02*
X78000000Y-91100000D01*
X78000000Y-91100000D02*
X78000000Y-93600000D01*
%TO.C,TP108*%
X84500000Y-68494000D02*
X82000000Y-68494000D01*
X82000000Y-68494000D02*
X82000000Y-65994000D01*
X82000000Y-65994000D02*
X84500000Y-65994000D01*
X84500000Y-65994000D02*
X84500000Y-68494000D01*
%TO.C,TP46*%
X76750000Y-98600000D02*
X74250000Y-98600000D01*
X74250000Y-98600000D02*
X74250000Y-96100000D01*
X74250000Y-96100000D02*
X76750000Y-96100000D01*
X76750000Y-96100000D02*
X76750000Y-98600000D01*
%TO.C,TP86*%
X99150000Y-58494000D02*
X96650000Y-58494000D01*
X96650000Y-58494000D02*
X96650000Y-55994000D01*
X96650000Y-55994000D02*
X99150000Y-55994000D01*
X99150000Y-55994000D02*
X99150000Y-58494000D01*
D13*
%TO.C,C3*%
X57722164Y-64440000D02*
X57937836Y-64440000D01*
X57722164Y-65160000D02*
X57937836Y-65160000D01*
D12*
%TO.C,TP81*%
X92650000Y-83494000D02*
X90150000Y-83494000D01*
X90150000Y-83494000D02*
X90150000Y-80994000D01*
X90150000Y-80994000D02*
X92650000Y-80994000D01*
X92650000Y-80994000D02*
X92650000Y-83494000D01*
%TO.C,TP12*%
X90450000Y-108550000D02*
X87950000Y-108550000D01*
X87950000Y-108550000D02*
X87950000Y-106050000D01*
X87950000Y-106050000D02*
X90450000Y-106050000D01*
X90450000Y-106050000D02*
X90450000Y-108550000D01*
%TO.C,TP82*%
X93900000Y-78494000D02*
X91400000Y-78494000D01*
X91400000Y-78494000D02*
X91400000Y-75994000D01*
X91400000Y-75994000D02*
X93900000Y-75994000D01*
X93900000Y-75994000D02*
X93900000Y-78494000D01*
%TO.C,TP43*%
X73000000Y-113550000D02*
X70500000Y-113550000D01*
X70500000Y-113550000D02*
X70500000Y-111050000D01*
X70500000Y-111050000D02*
X73000000Y-111050000D01*
X73000000Y-111050000D02*
X73000000Y-113550000D01*
%TO.C,TP67*%
X103250000Y-73494000D02*
X100750000Y-73494000D01*
X100750000Y-73494000D02*
X100750000Y-70994000D01*
X100750000Y-70994000D02*
X103250000Y-70994000D01*
X103250000Y-70994000D02*
X103250000Y-73494000D01*
%TO.C,TP83*%
X95150000Y-73494000D02*
X92650000Y-73494000D01*
X92650000Y-73494000D02*
X92650000Y-70994000D01*
X92650000Y-70994000D02*
X95150000Y-70994000D01*
X95150000Y-70994000D02*
X95150000Y-73494000D01*
%TO.C,TP8*%
X99500000Y-88550000D02*
X97000000Y-88550000D01*
X97000000Y-88550000D02*
X97000000Y-86050000D01*
X97000000Y-86050000D02*
X99500000Y-86050000D01*
X99500000Y-86050000D02*
X99500000Y-88550000D01*
%TO.C,TP102*%
X91050000Y-58494000D02*
X88550000Y-58494000D01*
X88550000Y-58494000D02*
X88550000Y-55994000D01*
X88550000Y-55994000D02*
X91050000Y-55994000D01*
X91050000Y-55994000D02*
X91050000Y-58494000D01*
%TO.C,TP124*%
X76400000Y-68494000D02*
X73900000Y-68494000D01*
X73900000Y-68494000D02*
X73900000Y-65994000D01*
X73900000Y-65994000D02*
X76400000Y-65994000D01*
X76400000Y-65994000D02*
X76400000Y-68494000D01*
%TO.C,TP78*%
X103200000Y-58494000D02*
X100700000Y-58494000D01*
X100700000Y-58494000D02*
X100700000Y-55994000D01*
X100700000Y-55994000D02*
X103200000Y-55994000D01*
X103200000Y-55994000D02*
X103200000Y-58494000D01*
%TO.C,TP22*%
X88900000Y-98600000D02*
X86400000Y-98600000D01*
X86400000Y-98600000D02*
X86400000Y-96100000D01*
X86400000Y-96100000D02*
X88900000Y-96100000D01*
X88900000Y-96100000D02*
X88900000Y-98600000D01*
%TO.C,TP51*%
X68950000Y-113550000D02*
X66450000Y-113550000D01*
X66450000Y-113550000D02*
X66450000Y-111050000D01*
X66450000Y-111050000D02*
X68950000Y-111050000D01*
X68950000Y-111050000D02*
X68950000Y-113550000D01*
%TO.C,TP104*%
X93550000Y-48550000D02*
X91050000Y-48550000D01*
X91050000Y-48550000D02*
X91050000Y-46050000D01*
X91050000Y-46050000D02*
X93550000Y-46050000D01*
X93550000Y-46050000D02*
X93550000Y-48550000D01*
%TO.C,TP49*%
X66400000Y-123550000D02*
X63900000Y-123550000D01*
X63900000Y-123550000D02*
X63900000Y-121050000D01*
X63900000Y-121050000D02*
X66400000Y-121050000D01*
X66400000Y-121050000D02*
X66400000Y-123550000D01*
%TO.C,TP88*%
X101650000Y-48550000D02*
X99150000Y-48550000D01*
X99150000Y-48550000D02*
X99150000Y-46050000D01*
X99150000Y-46050000D02*
X101650000Y-46050000D01*
X101650000Y-46050000D02*
X101650000Y-48550000D01*
%TO.C,TP55*%
X73950000Y-93600000D02*
X71450000Y-93600000D01*
X71450000Y-93600000D02*
X71450000Y-91100000D01*
X71450000Y-91100000D02*
X73950000Y-91100000D01*
X73950000Y-91100000D02*
X73950000Y-93600000D01*
D13*
%TO.C,C8*%
X57722164Y-49340000D02*
X57937836Y-49340000D01*
X57722164Y-50060000D02*
X57937836Y-50060000D01*
D12*
%TO.C,TP24*%
X91400000Y-88550000D02*
X88900000Y-88550000D01*
X88900000Y-88550000D02*
X88900000Y-86050000D01*
X88900000Y-86050000D02*
X91400000Y-86050000D01*
X91400000Y-86050000D02*
X91400000Y-88550000D01*
%TO.C,TP29*%
X83600000Y-103550000D02*
X81100000Y-103550000D01*
X81100000Y-103550000D02*
X81100000Y-101050000D01*
X81100000Y-101050000D02*
X83600000Y-101050000D01*
X83600000Y-101050000D02*
X83600000Y-103550000D01*
%TO.C,TP6*%
X97000000Y-98600000D02*
X94500000Y-98600000D01*
X94500000Y-98600000D02*
X94500000Y-96100000D01*
X94500000Y-96100000D02*
X97000000Y-96100000D01*
X97000000Y-96100000D02*
X97000000Y-98600000D01*
%TO.C,TP25*%
X78550000Y-123550000D02*
X76050000Y-123550000D01*
X76050000Y-123550000D02*
X76050000Y-121050000D01*
X76050000Y-121050000D02*
X78550000Y-121050000D01*
X78550000Y-121050000D02*
X78550000Y-123550000D01*
D13*
%TO.C,C7*%
X57722164Y-59090000D02*
X57937836Y-59090000D01*
X57722164Y-59810000D02*
X57937836Y-59810000D01*
D12*
%TO.C,TP113*%
X76450000Y-83494000D02*
X73950000Y-83494000D01*
X73950000Y-83494000D02*
X73950000Y-80994000D01*
X73950000Y-80994000D02*
X76450000Y-80994000D01*
X76450000Y-80994000D02*
X76450000Y-83494000D01*
%TO.C,TP3*%
X93250000Y-113550000D02*
X90750000Y-113550000D01*
X90750000Y-113550000D02*
X90750000Y-111050000D01*
X90750000Y-111050000D02*
X93250000Y-111050000D01*
X93250000Y-111050000D02*
X93250000Y-113550000D01*
D13*
%TO.C,C2*%
X58707836Y-85860000D02*
X58492164Y-85860000D01*
X58707836Y-85140000D02*
X58492164Y-85140000D01*
D12*
%TO.C,TP117*%
X81700000Y-63494000D02*
X79200000Y-63494000D01*
X79200000Y-63494000D02*
X79200000Y-60994000D01*
X79200000Y-60994000D02*
X81700000Y-60994000D01*
X81700000Y-60994000D02*
X81700000Y-63494000D01*
%TO.C,TP39*%
X82050000Y-93600000D02*
X79550000Y-93600000D01*
X79550000Y-93600000D02*
X79550000Y-91100000D01*
X79550000Y-91100000D02*
X82050000Y-91100000D01*
X82050000Y-91100000D02*
X82050000Y-93600000D01*
%TO.C,TP10*%
X87950000Y-118550000D02*
X85450000Y-118550000D01*
X85450000Y-118550000D02*
X85450000Y-116050000D01*
X85450000Y-116050000D02*
X87950000Y-116050000D01*
X87950000Y-116050000D02*
X87950000Y-118550000D01*
%TO.C,TP128*%
X81400000Y-48550000D02*
X78900000Y-48550000D01*
X78900000Y-48550000D02*
X78900000Y-46050000D01*
X78900000Y-46050000D02*
X81400000Y-46050000D01*
X81400000Y-46050000D02*
X81400000Y-48550000D01*
%TO.C,TP70*%
X107250000Y-58494000D02*
X104750000Y-58494000D01*
X104750000Y-58494000D02*
X104750000Y-55994000D01*
X104750000Y-55994000D02*
X107250000Y-55994000D01*
X107250000Y-55994000D02*
X107250000Y-58494000D01*
%TO.C,TP80*%
X105700000Y-48550000D02*
X103200000Y-48550000D01*
X103200000Y-48550000D02*
X103200000Y-46050000D01*
X103200000Y-46050000D02*
X105700000Y-46050000D01*
X105700000Y-46050000D02*
X105700000Y-48550000D01*
%TO.C,TP79*%
X104450000Y-53550000D02*
X101950000Y-53550000D01*
X101950000Y-53550000D02*
X101950000Y-51050000D01*
X101950000Y-51050000D02*
X104450000Y-51050000D01*
X104450000Y-51050000D02*
X104450000Y-53550000D01*
%TO.C,TP126*%
X78900000Y-58494000D02*
X76400000Y-58494000D01*
X76400000Y-58494000D02*
X76400000Y-55994000D01*
X76400000Y-55994000D02*
X78900000Y-55994000D01*
X78900000Y-55994000D02*
X78900000Y-58494000D01*
%TO.C,TP54*%
X72700000Y-98600000D02*
X70200000Y-98600000D01*
X70200000Y-98600000D02*
X70200000Y-96100000D01*
X70200000Y-96100000D02*
X72700000Y-96100000D01*
X72700000Y-96100000D02*
X72700000Y-98600000D01*
%TO.C,TP64*%
X71150000Y-88550000D02*
X68650000Y-88550000D01*
X68650000Y-88550000D02*
X68650000Y-86050000D01*
X68650000Y-86050000D02*
X71150000Y-86050000D01*
X71150000Y-86050000D02*
X71150000Y-88550000D01*
%TO.C,TP65*%
X100750000Y-83494000D02*
X98250000Y-83494000D01*
X98250000Y-83494000D02*
X98250000Y-80994000D01*
X98250000Y-80994000D02*
X100750000Y-80994000D01*
X100750000Y-80994000D02*
X100750000Y-83494000D01*
%TO.C,TP61*%
X67400000Y-103550000D02*
X64900000Y-103550000D01*
X64900000Y-103550000D02*
X64900000Y-101050000D01*
X64900000Y-101050000D02*
X67400000Y-101050000D01*
X67400000Y-101050000D02*
X67400000Y-103550000D01*
%TO.C,TP5*%
X95750000Y-103550000D02*
X93250000Y-103550000D01*
X93250000Y-103550000D02*
X93250000Y-101050000D01*
X93250000Y-101050000D02*
X95750000Y-101050000D01*
X95750000Y-101050000D02*
X95750000Y-103550000D01*
%TO.C,TP106*%
X81750000Y-78494000D02*
X79250000Y-78494000D01*
X79250000Y-78494000D02*
X79250000Y-75994000D01*
X79250000Y-75994000D02*
X81750000Y-75994000D01*
X81750000Y-75994000D02*
X81750000Y-78494000D01*
%TO.C,TP99*%
X87050000Y-73494000D02*
X84550000Y-73494000D01*
X84550000Y-73494000D02*
X84550000Y-70994000D01*
X84550000Y-70994000D02*
X87050000Y-70994000D01*
X87050000Y-70994000D02*
X87050000Y-73494000D01*
%TO.C,TP28*%
X82350000Y-108550000D02*
X79850000Y-108550000D01*
X79850000Y-108550000D02*
X79850000Y-106050000D01*
X79850000Y-106050000D02*
X82350000Y-106050000D01*
X82350000Y-106050000D02*
X82350000Y-108550000D01*
%TO.C,TP53*%
X71450000Y-103550000D02*
X68950000Y-103550000D01*
X68950000Y-103550000D02*
X68950000Y-101050000D01*
X68950000Y-101050000D02*
X71450000Y-101050000D01*
X71450000Y-101050000D02*
X71450000Y-103550000D01*
%TO.C,TP30*%
X84850000Y-98600000D02*
X82350000Y-98600000D01*
X82350000Y-98600000D02*
X82350000Y-96100000D01*
X82350000Y-96100000D02*
X84850000Y-96100000D01*
X84850000Y-96100000D02*
X84850000Y-98600000D01*
%TO.C,TP119*%
X84200000Y-53550000D02*
X81700000Y-53550000D01*
X81700000Y-53550000D02*
X81700000Y-51050000D01*
X81700000Y-51050000D02*
X84200000Y-51050000D01*
X84200000Y-51050000D02*
X84200000Y-53550000D01*
%TO.C,TP90*%
X89850000Y-78494000D02*
X87350000Y-78494000D01*
X87350000Y-78494000D02*
X87350000Y-75994000D01*
X87350000Y-75994000D02*
X89850000Y-75994000D01*
X89850000Y-75994000D02*
X89850000Y-78494000D01*
%TO.C,TP68*%
X104750000Y-68494000D02*
X102250000Y-68494000D01*
X102250000Y-68494000D02*
X102250000Y-65994000D01*
X102250000Y-65994000D02*
X104750000Y-65994000D01*
X104750000Y-65994000D02*
X104750000Y-68494000D01*
D13*
%TO.C,C9*%
X57722164Y-56790000D02*
X57937836Y-56790000D01*
X57722164Y-57510000D02*
X57937836Y-57510000D01*
D12*
%TO.C,TP20*%
X86400000Y-108550000D02*
X83900000Y-108550000D01*
X83900000Y-108550000D02*
X83900000Y-106050000D01*
X83900000Y-106050000D02*
X86400000Y-106050000D01*
X86400000Y-106050000D02*
X86400000Y-108550000D01*
%TO.C,TP59*%
X64900000Y-113550000D02*
X62400000Y-113550000D01*
X62400000Y-113550000D02*
X62400000Y-111050000D01*
X62400000Y-111050000D02*
X64900000Y-111050000D01*
X64900000Y-111050000D02*
X64900000Y-113550000D01*
%TO.C,TP41*%
X70450000Y-123550000D02*
X67950000Y-123550000D01*
X67950000Y-123550000D02*
X67950000Y-121050000D01*
X67950000Y-121050000D02*
X70450000Y-121050000D01*
X70450000Y-121050000D02*
X70450000Y-123550000D01*
%TO.C,TP50*%
X67700000Y-118550000D02*
X65200000Y-118550000D01*
X65200000Y-118550000D02*
X65200000Y-116050000D01*
X65200000Y-116050000D02*
X67700000Y-116050000D01*
X67700000Y-116050000D02*
X67700000Y-118550000D01*
%TO.C,TP37*%
X79550000Y-103550000D02*
X77050000Y-103550000D01*
X77050000Y-103550000D02*
X77050000Y-101050000D01*
X77050000Y-101050000D02*
X79550000Y-101050000D01*
X79550000Y-101050000D02*
X79550000Y-103550000D01*
%TO.C,TP93*%
X93850000Y-63494000D02*
X91350000Y-63494000D01*
X91350000Y-63494000D02*
X91350000Y-60994000D01*
X91350000Y-60994000D02*
X93850000Y-60994000D01*
X93850000Y-60994000D02*
X93850000Y-63494000D01*
%TO.C,TP73*%
X96700000Y-83494000D02*
X94200000Y-83494000D01*
X94200000Y-83494000D02*
X94200000Y-80994000D01*
X94200000Y-80994000D02*
X96700000Y-80994000D01*
X96700000Y-80994000D02*
X96700000Y-83494000D01*
%TO.C,TP45*%
X75500000Y-103550000D02*
X73000000Y-103550000D01*
X73000000Y-103550000D02*
X73000000Y-101050000D01*
X73000000Y-101050000D02*
X75500000Y-101050000D01*
X75500000Y-101050000D02*
X75500000Y-103550000D01*
%TO.C,TP34*%
X75800000Y-118550000D02*
X73300000Y-118550000D01*
X73300000Y-118550000D02*
X73300000Y-116050000D01*
X73300000Y-116050000D02*
X75800000Y-116050000D01*
X75800000Y-116050000D02*
X75800000Y-118550000D01*
%TO.C,TP35*%
X77050000Y-113550000D02*
X74550000Y-113550000D01*
X74550000Y-113550000D02*
X74550000Y-111050000D01*
X74550000Y-111050000D02*
X77050000Y-111050000D01*
X77050000Y-111050000D02*
X77050000Y-113550000D01*
%TO.C,TP11*%
X89200000Y-113550000D02*
X86700000Y-113550000D01*
X86700000Y-113550000D02*
X86700000Y-111050000D01*
X86700000Y-111050000D02*
X89200000Y-111050000D01*
X89200000Y-111050000D02*
X89200000Y-113550000D01*
%TO.C,TP13*%
X91700000Y-103550000D02*
X89200000Y-103550000D01*
X89200000Y-103550000D02*
X89200000Y-101050000D01*
X89200000Y-101050000D02*
X91700000Y-101050000D01*
X91700000Y-101050000D02*
X91700000Y-103550000D01*
%TO.C,TP103*%
X92300000Y-53550000D02*
X89800000Y-53550000D01*
X89800000Y-53550000D02*
X89800000Y-51050000D01*
X89800000Y-51050000D02*
X92300000Y-51050000D01*
X92300000Y-51050000D02*
X92300000Y-53550000D01*
%TO.C,TP62*%
X68650000Y-98600000D02*
X66150000Y-98600000D01*
X66150000Y-98600000D02*
X66150000Y-96100000D01*
X66150000Y-96100000D02*
X68650000Y-96100000D01*
X68650000Y-96100000D02*
X68650000Y-98600000D01*
%TO.C,TP33*%
X74500000Y-123550000D02*
X72000000Y-123550000D01*
X72000000Y-123550000D02*
X72000000Y-121050000D01*
X72000000Y-121050000D02*
X74500000Y-121050000D01*
X74500000Y-121050000D02*
X74500000Y-123550000D01*
%TO.C,TP31*%
X86100000Y-93600000D02*
X83600000Y-93600000D01*
X83600000Y-93600000D02*
X83600000Y-91100000D01*
X83600000Y-91100000D02*
X86100000Y-91100000D01*
X86100000Y-91100000D02*
X86100000Y-93600000D01*
%TO.C,TP63*%
X69900000Y-93600000D02*
X67400000Y-93600000D01*
X67400000Y-93600000D02*
X67400000Y-91100000D01*
X67400000Y-91100000D02*
X69900000Y-91100000D01*
X69900000Y-91100000D02*
X69900000Y-93600000D01*
%TO.C,TP100*%
X88550000Y-68494000D02*
X86050000Y-68494000D01*
X86050000Y-68494000D02*
X86050000Y-65994000D01*
X86050000Y-65994000D02*
X88550000Y-65994000D01*
X88550000Y-65994000D02*
X88550000Y-68494000D01*
%TO.C,TP122*%
X73650000Y-78494000D02*
X71150000Y-78494000D01*
X71150000Y-78494000D02*
X71150000Y-75994000D01*
X71150000Y-75994000D02*
X73650000Y-75994000D01*
X73650000Y-75994000D02*
X73650000Y-78494000D01*
%TD*%
M02*
