M48
; DRILL file {KiCad 7.0.1} date Sun Mar 19 16:13:18 2023
; FORMAT={-:-/ absolute / inch / decimal}
; #@! TF.CreationDate,2023-03-19T16:13:18+09:00
; #@! TF.GenerationSoftware,Kicad,Pcbnew,7.0.1
; #@! TF.FileFunction,Plated,1,2,PTH
FMAT,2
INCH
; #@! TA.AperFunction,Plated,PTH,ViaDrill
T1C0.0157
; #@! TA.AperFunction,Plated,PTH,ComponentDrill
T2C0.0394
; #@! TA.AperFunction,Plated,PTH,ComponentDrill
T3C0.0433
; #@! TA.AperFunction,Plated,PTH,ComponentDrill
T4C0.0866
; #@! TA.AperFunction,Plated,PTH,ComponentDrill
T5C0.1142
%
G90
G05
T1
X2.1614Y-4.3189
X2.1614Y-4.4213
X2.2008Y-3.3189
X2.2087Y-3.3622
X2.3031Y-3.5906
X2.3386Y-2.4409
X2.3445Y-1.998
X2.3445Y-2.4921
X2.3465Y-1.9016
X2.3465Y-2.3937
X2.3465Y-2.5512
X2.3484Y-1.7894
X2.3484Y-2.0984
X2.3484Y-2.2953
X2.3563Y-2.1969
X2.3799Y-4.815
X2.3858Y-2.3425
X2.3976Y-2.2441
X2.4016Y-2.1457
X2.4055Y-1.9488
X2.4094Y-1.8465
X2.4094Y-2.0472
X2.4311Y-4.6181
X2.4803Y-4.4213
X2.5295Y-4.2244
X2.5394Y-4.8152
X2.5787Y-4.0276
X2.5906Y-4.6183
X2.628Y-3.8327
X2.6398Y-4.4215
X2.6772Y-3.6358
X2.689Y-4.2246
X2.6988Y-4.8172
X2.7264Y-3.437
X2.7382Y-4.0278
X2.75Y-4.6203
X2.7756Y-3.238
X2.7874Y-3.8329
X2.7992Y-4.4235
X2.8248Y-3.0411
X2.8366Y-3.6361
X2.8484Y-4.2266
X2.8583Y-4.8152
X2.874Y-2.8443
X2.8858Y-3.4372
X2.8976Y-4.0298
X2.9094Y-4.6183
X2.9331Y-2.6474
X2.935Y-3.2382
X2.9469Y-3.8349
X2.9587Y-4.4215
X2.9823Y-2.4506
X2.9843Y-3.0413
X2.9961Y-3.638
X3.0079Y-4.2246
X3.0177Y-4.8152
X3.0315Y-2.2537
X3.0335Y-2.8445
X3.0453Y-3.4392
X3.0571Y-4.0278
X3.0689Y-4.6183
X3.0807Y-2.0591
X3.0925Y-2.6476
X3.0945Y-3.2402
X3.1063Y-3.8329
X3.1181Y-4.4215
X3.1299Y-1.8622
X3.1417Y-2.4508
X3.1437Y-3.0433
X3.1555Y-3.6361
X3.1673Y-4.2246
X3.1772Y-4.8152
X3.1909Y-2.2539
X3.1929Y-2.8465
X3.2047Y-3.4372
X3.2165Y-4.0278
X3.2283Y-4.6183
X3.2402Y-2.0593
X3.252Y-2.6496
X3.2539Y-3.2382
X3.2657Y-3.8329
X3.2776Y-4.4215
X3.2894Y-1.8624
X3.3012Y-2.4528
X3.3031Y-3.0413
X3.315Y-3.6361
X3.3268Y-4.2246
X3.3366Y-4.8152
X3.3504Y-2.2559
X3.3524Y-2.8445
X3.3642Y-3.4372
X3.376Y-4.0278
X3.3878Y-4.6183
X3.3996Y-2.0613
X3.4114Y-2.6476
X3.4134Y-3.2382
X3.4252Y-3.8329
X3.437Y-4.4215
X3.4488Y-1.8644
X3.4606Y-2.4508
X3.4626Y-3.0413
X3.4744Y-3.6361
X3.4862Y-4.2246
X3.4961Y-4.8152
X3.5098Y-2.2539
X3.5118Y-2.8445
X3.5236Y-3.4372
X3.5354Y-4.0278
X3.5472Y-4.6183
X3.5591Y-2.0593
X3.5709Y-2.6476
X3.5728Y-3.2382
X3.5846Y-3.8329
X3.5965Y-4.4215
X3.6083Y-1.8624
X3.6201Y-2.4508
X3.622Y-3.0413
X3.6339Y-3.6361
X3.6457Y-4.2246
X3.6693Y-2.2539
X3.6713Y-2.8445
X3.6831Y-3.4372
X3.6949Y-4.0278
X3.7185Y-2.0593
X3.7303Y-2.6476
X3.7323Y-3.2382
X3.7441Y-3.8329
X3.7677Y-1.8624
X3.7795Y-2.4508
X3.7815Y-3.0413
X3.7933Y-3.6361
X3.8287Y-2.2539
X3.8307Y-2.8445
X3.8425Y-3.4372
X3.878Y-2.0593
X3.8898Y-2.6476
X3.8917Y-3.2382
X3.9272Y-1.8624
X3.939Y-2.4508
X3.9409Y-3.0413
X3.9882Y-2.2539
X3.9902Y-2.8445
X4.0374Y-2.0593
X4.0492Y-2.6476
X4.0866Y-1.8624
X4.0984Y-2.4508
X4.1476Y-2.2539
X4.1969Y-2.0593
X4.2461Y-1.8624
T2
X2.0472Y-2.013
X2.0472Y-2.113
X2.0472Y-2.213
X2.0472Y-2.313
X2.0472Y-2.413
X2.0472Y-2.513
X2.0472Y-2.613
X2.0472Y-2.713
X2.0472Y-3.1579
X2.0472Y-3.2579
X2.0472Y-3.3579
X2.0472Y-3.4579
X2.0472Y-3.5579
X2.0472Y-3.6579
X2.0472Y-3.7579
X2.0472Y-3.8579
X2.0492Y-4.2189
X2.0492Y-4.3189
X2.0492Y-4.4189
X2.0492Y-4.5189
T3
X1.4862Y-2.3642
X1.4862Y-2.4642
X1.4862Y-2.5642
X1.4862Y-2.6642
X1.4862Y-2.7642
X1.4862Y-2.8642
X1.4862Y-2.9642
X1.4862Y-3.0642
X1.4862Y-3.1642
X1.4862Y-3.2642
X1.4862Y-3.3642
X1.4862Y-3.4642
X1.4862Y-3.5642
X1.4862Y-3.6642
X1.4862Y-3.7642
X1.4862Y-3.8642
X1.5862Y-2.3642
X1.5862Y-2.4642
X1.5862Y-2.5642
X1.5862Y-2.6642
X1.5862Y-2.7642
X1.5862Y-2.8642
X1.5862Y-2.9642
X1.5862Y-3.0642
X1.5862Y-3.1642
X1.5862Y-3.2642
X1.5862Y-3.3642
X1.5862Y-3.4642
X1.5862Y-3.5642
X1.5862Y-3.6642
X1.5862Y-3.7642
X1.5862Y-3.8642
X1.6862Y-2.3642
X1.6862Y-2.4642
X1.6862Y-2.5642
X1.6862Y-2.6642
X1.6862Y-2.7642
X1.6862Y-2.8642
X1.6862Y-2.9642
X1.6862Y-3.0642
X1.6862Y-3.1642
X1.6862Y-3.2642
X1.6862Y-3.3642
X1.6862Y-3.4642
X1.6862Y-3.5642
X1.6862Y-3.6642
X1.6862Y-3.7642
X1.6862Y-3.8642
T4
X1.063Y-1.5748
X1.063Y-5.0394
X4.5276Y-1.5748
X4.5276Y-5.0276
T5
X1.3862Y-2.1642
X1.3862Y-4.0642
T0
M30
