%TF.GenerationSoftware,KiCad,Pcbnew,7.0.1*%
%TF.CreationDate,2023-04-13T13:13:18+09:00*%
%TF.ProjectId,autoharpie,6175746f-6861-4727-9069-652e6b696361,rev?*%
%TF.SameCoordinates,Original*%
%TF.FileFunction,Soldermask,Bot*%
%TF.FilePolarity,Negative*%
%FSLAX46Y46*%
G04 Gerber Fmt 4.6, Leading zero omitted, Abs format (unit mm)*
G04 Created by KiCad (PCBNEW 7.0.1) date 2023-04-13 13:13:18*
%MOMM*%
%LPD*%
G01*
G04 APERTURE LIST*
G04 Aperture macros list*
%AMRoundRect*
0 Rectangle with rounded corners*
0 $1 Rounding radius*
0 $2 $3 $4 $5 $6 $7 $8 $9 X,Y pos of 4 corners*
0 Add a 4 corners polygon primitive as box body*
4,1,4,$2,$3,$4,$5,$6,$7,$8,$9,$2,$3,0*
0 Add four circle primitives for the rounded corners*
1,1,$1+$1,$2,$3*
1,1,$1+$1,$4,$5*
1,1,$1+$1,$6,$7*
1,1,$1+$1,$8,$9*
0 Add four rect primitives between the rounded corners*
20,1,$1+$1,$2,$3,$4,$5,0*
20,1,$1+$1,$4,$5,$6,$7,0*
20,1,$1+$1,$6,$7,$8,$9,0*
20,1,$1+$1,$8,$9,$2,$3,0*%
%AMHorizOval*
0 Thick line with rounded ends*
0 $1 width*
0 $2 $3 position (X,Y) of the first rounded end (center of the circle)*
0 $4 $5 position (X,Y) of the second rounded end (center of the circle)*
0 Add line between two ends*
20,1,$1,$2,$3,$4,$5,0*
0 Add two circle primitives to create the rounded ends*
1,1,$1,$2,$3*
1,1,$1,$4,$5*%
%AMRotRect*
0 Rectangle, with rotation*
0 The origin of the aperture is its center*
0 $1 length*
0 $2 width*
0 $3 Rotation angle, in degrees counterclockwise*
0 Add horizontal line*
21,1,$1,$2,0,0,$3*%
G04 Aperture macros list end*
%ADD10RotRect,1.600000X1.600000X135.000000*%
%ADD11HorizOval,1.600000X0.000000X0.000000X0.000000X0.000000X0*%
%ADD12C,2.200000*%
%ADD13C,1.400000*%
%ADD14O,1.400000X1.400000*%
%ADD15C,2.000000*%
%ADD16R,1.600000X1.600000*%
%ADD17O,1.600000X1.600000*%
%ADD18HorizOval,2.400000X0.212132X0.212132X-0.212132X-0.212132X0*%
%ADD19C,2.499360*%
%ADD20R,1.700000X1.700000*%
%ADD21C,1.700000*%
%ADD22O,1.700000X1.700000*%
%ADD23R,2.000000X2.000000*%
%ADD24R,3.200000X2.000000*%
%ADD25RoundRect,0.250000X0.625000X-0.350000X0.625000X0.350000X-0.625000X0.350000X-0.625000X-0.350000X0*%
%ADD26O,1.750000X1.200000*%
%ADD27C,1.600000*%
G04 APERTURE END LIST*
D10*
%TO.C,D4*%
X55613155Y-76123801D03*
D11*
X50225001Y-70735647D03*
%TD*%
D12*
%TO.C,H8*%
X105400000Y-99200000D03*
%TD*%
D13*
%TO.C,R2*%
X114090000Y-43556600D03*
D14*
X121710000Y-43556600D03*
%TD*%
D12*
%TO.C,H7*%
X108400000Y-51700000D03*
%TD*%
D15*
%TO.C,SW14*%
X14941820Y-104853800D03*
X21441820Y-104853800D03*
X14941820Y-109353800D03*
X21441820Y-109353800D03*
%TD*%
D16*
%TO.C,U5*%
X101800000Y-50106600D03*
D17*
X101800000Y-47566600D03*
X101800000Y-45026600D03*
X94180000Y-45026600D03*
X94180000Y-47566600D03*
X94180000Y-50106600D03*
%TD*%
D15*
%TO.C,SW13*%
X143294913Y-86853800D03*
X149794913Y-86853800D03*
X143294913Y-91353800D03*
X149794913Y-91353800D03*
%TD*%
D18*
%TO.C,J8*%
X130000000Y-26603800D03*
X128000000Y-24803800D03*
X128000000Y-18703800D03*
X130000000Y-21103800D03*
X128000000Y-30303800D03*
%TD*%
D15*
%TO.C,SW54*%
X61786918Y-140603800D03*
X68286918Y-140603800D03*
X61786918Y-145103800D03*
X68286918Y-145103800D03*
%TD*%
D19*
%TO.C,J2*%
X89761260Y-16106100D03*
X79758740Y-16106100D03*
X77261920Y-26101000D03*
X84760000Y-26103540D03*
X92258080Y-26101000D03*
X79763820Y-28602900D03*
X89756180Y-28602900D03*
%TD*%
D10*
%TO.C,D7*%
X90590425Y-76123801D03*
D11*
X85202271Y-70735647D03*
%TD*%
D15*
%TO.C,SW34*%
X108541718Y-113603800D03*
X115041718Y-113603800D03*
X108541718Y-118103800D03*
X115041718Y-118103800D03*
%TD*%
%TO.C,SW6*%
X61500554Y-86853800D03*
X68000554Y-86853800D03*
X61500554Y-91353800D03*
X68000554Y-91353800D03*
%TD*%
D13*
%TO.C,R3*%
X114090000Y-46056600D03*
D14*
X121710000Y-46056600D03*
%TD*%
D15*
%TO.C,SW22*%
X108396364Y-104853800D03*
X114896364Y-104853800D03*
X108396364Y-109353800D03*
X114896364Y-109353800D03*
%TD*%
D13*
%TO.C,R6*%
X85090000Y-41756600D03*
D14*
X92710000Y-41756600D03*
%TD*%
D15*
%TO.C,SW3*%
X26468738Y-86853800D03*
X32968738Y-86853800D03*
X26468738Y-91353800D03*
X32968738Y-91353800D03*
%TD*%
D13*
%TO.C,R5*%
X22600000Y-52656600D03*
D14*
X22600000Y-45036600D03*
%TD*%
D12*
%TO.C,H2*%
X151000000Y-158000000D03*
%TD*%
D15*
%TO.C,SW2*%
X14791466Y-86853800D03*
X21291466Y-86853800D03*
X14791466Y-91353800D03*
X21291466Y-91353800D03*
%TD*%
%TO.C,SW53*%
X50105100Y-140603800D03*
X56605100Y-140603800D03*
X50105100Y-145103800D03*
X56605100Y-145103800D03*
%TD*%
%TO.C,SW48*%
X131987270Y-122603800D03*
X138487270Y-122603800D03*
X131987270Y-127103800D03*
X138487270Y-127103800D03*
%TD*%
%TO.C,SW5*%
X49823282Y-86853800D03*
X56323282Y-86853800D03*
X49823282Y-91353800D03*
X56323282Y-91353800D03*
%TD*%
D10*
%TO.C,D1*%
X20635885Y-76123801D03*
D11*
X15247731Y-70735647D03*
%TD*%
D15*
%TO.C,SW57*%
X96885819Y-140603800D03*
X103385819Y-140603800D03*
X96885819Y-145103800D03*
X103385819Y-145103800D03*
%TD*%
%TO.C,SW51*%
X26741464Y-140603800D03*
X33241464Y-140603800D03*
X26741464Y-145103800D03*
X33241464Y-145103800D03*
%TD*%
%TO.C,SW35*%
X120264477Y-113603800D03*
X126764477Y-113603800D03*
X120264477Y-118103800D03*
X126764477Y-118103800D03*
%TD*%
%TO.C,SW60*%
X131931273Y-140603800D03*
X138431273Y-140603800D03*
X131931273Y-145103800D03*
X138431273Y-145103800D03*
%TD*%
D10*
%TO.C,D6*%
X78931335Y-76123801D03*
D11*
X73543181Y-70735647D03*
%TD*%
D16*
%TO.C,D14*%
X92560000Y-38156600D03*
D17*
X84940000Y-38156600D03*
%TD*%
D10*
%TO.C,D9*%
X113908605Y-76123801D03*
D11*
X108520451Y-70735647D03*
%TD*%
D15*
%TO.C,SW21*%
X96714546Y-104853800D03*
X103214546Y-104853800D03*
X96714546Y-109353800D03*
X103214546Y-109353800D03*
%TD*%
%TO.C,SW46*%
X108541816Y-122603800D03*
X115041816Y-122603800D03*
X108541816Y-127103800D03*
X115041816Y-127103800D03*
%TD*%
D12*
%TO.C,H3*%
X196000000Y-158000000D03*
%TD*%
D15*
%TO.C,SW26*%
X14759646Y-113603800D03*
X21259646Y-113603800D03*
X14759646Y-118103800D03*
X21259646Y-118103800D03*
%TD*%
%TO.C,SW45*%
X96819089Y-122603800D03*
X103319089Y-122603800D03*
X96819089Y-127103800D03*
X103319089Y-127103800D03*
%TD*%
%TO.C,SW28*%
X38205164Y-113603800D03*
X44705164Y-113603800D03*
X38205164Y-118103800D03*
X44705164Y-118103800D03*
%TD*%
D13*
%TO.C,R9*%
X111000000Y-36646600D03*
D14*
X111000000Y-44266600D03*
%TD*%
D20*
%TO.C,U2*%
X15640000Y-32603800D03*
D21*
X18180000Y-32603800D03*
X20720000Y-32603800D03*
X23260000Y-32603800D03*
X25800000Y-32603800D03*
X28340000Y-32603800D03*
X30880000Y-32603800D03*
X33420000Y-32603800D03*
X35960000Y-32603800D03*
X38500000Y-32603800D03*
X41040000Y-32603800D03*
X43580000Y-32603800D03*
X46120000Y-32603800D03*
X48660000Y-32603800D03*
X51200000Y-32603800D03*
X53740000Y-32603800D03*
X56280000Y-32603800D03*
X58820000Y-32603800D03*
X61360000Y-32603800D03*
X63900000Y-32603800D03*
X63900000Y-17363800D03*
X61360000Y-17363800D03*
X58820000Y-17363800D03*
X56280000Y-17363800D03*
X53740000Y-17363800D03*
X51200000Y-17363800D03*
X48660000Y-17363800D03*
X46120000Y-17363800D03*
X43580000Y-17363800D03*
X41040000Y-17363800D03*
X38500000Y-17363800D03*
X35960000Y-17363800D03*
X33420000Y-17363800D03*
X30880000Y-17363800D03*
X28340000Y-17363800D03*
X25800000Y-17363800D03*
X23260000Y-17363800D03*
X20720000Y-17363800D03*
X18180000Y-17363800D03*
X15640000Y-17363800D03*
%TD*%
D15*
%TO.C,SW9*%
X96585817Y-86853800D03*
X103085817Y-86853800D03*
X96585817Y-91353800D03*
X103085817Y-91353800D03*
%TD*%
%TO.C,SW50*%
X15059646Y-140603800D03*
X21559646Y-140603800D03*
X15059646Y-145103800D03*
X21559646Y-145103800D03*
%TD*%
D13*
%TO.C,R11*%
X37590000Y-26056600D03*
D14*
X45210000Y-26056600D03*
%TD*%
D10*
%TO.C,D8*%
X102249515Y-76123801D03*
D11*
X96861361Y-70735647D03*
%TD*%
D15*
%TO.C,SW41*%
X49928181Y-122603800D03*
X56428181Y-122603800D03*
X49928181Y-127103800D03*
X56428181Y-127103800D03*
%TD*%
%TO.C,SW47*%
X120264543Y-122603800D03*
X126764543Y-122603800D03*
X120264543Y-127103800D03*
X126764543Y-127103800D03*
%TD*%
%TO.C,SW59*%
X120249455Y-140603800D03*
X126749455Y-140603800D03*
X120249455Y-145103800D03*
X126749455Y-145103800D03*
%TD*%
%TO.C,SW27*%
X26482405Y-113603800D03*
X32982405Y-113603800D03*
X26482405Y-118103800D03*
X32982405Y-118103800D03*
%TD*%
%TO.C,SW17*%
X49987274Y-104853800D03*
X56487274Y-104853800D03*
X49987274Y-109353800D03*
X56487274Y-109353800D03*
%TD*%
D13*
%TO.C,R10*%
X37590000Y-24056600D03*
D14*
X45210000Y-24056600D03*
%TD*%
D20*
%TO.C,J4*%
X49600000Y-39016600D03*
D22*
X49600000Y-41556600D03*
X49600000Y-44096600D03*
X49600000Y-46636600D03*
%TD*%
D15*
%TO.C,SW16*%
X38305456Y-104853800D03*
X44805456Y-104853800D03*
X38305456Y-109353800D03*
X44805456Y-109353800D03*
%TD*%
%TO.C,SW8*%
X85055452Y-86853800D03*
X91555452Y-86853800D03*
X85055452Y-91353800D03*
X91555452Y-91353800D03*
%TD*%
%TO.C,SW31*%
X73373441Y-113603800D03*
X79873441Y-113603800D03*
X73373441Y-118103800D03*
X79873441Y-118103800D03*
%TD*%
D18*
%TO.C,J6*%
X147000000Y-26503800D03*
X145000000Y-24703800D03*
X145000000Y-18603800D03*
X147000000Y-21003800D03*
X145000000Y-30203800D03*
%TD*%
D10*
%TO.C,D3*%
X43954065Y-76123801D03*
D11*
X38565911Y-70735647D03*
%TD*%
D15*
%TO.C,SW30*%
X61650682Y-113603800D03*
X68150682Y-113603800D03*
X61650682Y-118103800D03*
X68150682Y-118103800D03*
%TD*%
D13*
%TO.C,R14*%
X162700000Y-19056600D03*
D14*
X155080000Y-19056600D03*
%TD*%
D15*
%TO.C,SW11*%
X119940361Y-86853800D03*
X126440361Y-86853800D03*
X119940361Y-91353800D03*
X126440361Y-91353800D03*
%TD*%
%TO.C,SW33*%
X96818959Y-113603800D03*
X103318959Y-113603800D03*
X96818959Y-118103800D03*
X103318959Y-118103800D03*
%TD*%
%TO.C,SW25*%
X143441820Y-104853800D03*
X149941820Y-104853800D03*
X143441820Y-109353800D03*
X149941820Y-109353800D03*
%TD*%
%TO.C,SW10*%
X108263089Y-86853800D03*
X114763089Y-86853800D03*
X108263089Y-91353800D03*
X114763089Y-91353800D03*
%TD*%
D23*
%TO.C,SW1*%
X69010000Y-46353800D03*
D15*
X69010000Y-41353800D03*
X69010000Y-43853800D03*
D24*
X61510000Y-49453800D03*
X61510000Y-38253800D03*
D15*
X54510000Y-41353800D03*
X54510000Y-46353800D03*
%TD*%
%TO.C,SW36*%
X131987236Y-113603800D03*
X138487236Y-113603800D03*
X131987236Y-118103800D03*
X138487236Y-118103800D03*
%TD*%
D25*
%TO.C,J7*%
X195050000Y-18500000D03*
D26*
X195050000Y-16500000D03*
%TD*%
D15*
%TO.C,SW20*%
X85032728Y-104853800D03*
X91532728Y-104853800D03*
X85032728Y-109353800D03*
X91532728Y-109353800D03*
%TD*%
%TO.C,SW56*%
X85350908Y-140603800D03*
X91850908Y-140603800D03*
X85350908Y-145103800D03*
X91850908Y-145103800D03*
%TD*%
D27*
%TO.C,C55*%
X135000000Y-31556600D03*
X135000000Y-36556600D03*
%TD*%
D15*
%TO.C,SW58*%
X108567637Y-140603800D03*
X115067637Y-140603800D03*
X108567637Y-145103800D03*
X115067637Y-145103800D03*
%TD*%
D13*
%TO.C,R7*%
X84890000Y-34456600D03*
D14*
X92510000Y-34456600D03*
%TD*%
D13*
%TO.C,R12*%
X37590000Y-28276600D03*
D14*
X45210000Y-28276600D03*
%TD*%
D13*
%TO.C,R1*%
X69260000Y-17056600D03*
D14*
X69260000Y-24676600D03*
%TD*%
D15*
%TO.C,SW18*%
X61669092Y-104853800D03*
X68169092Y-104853800D03*
X61669092Y-109353800D03*
X68169092Y-109353800D03*
%TD*%
%TO.C,SW19*%
X73350910Y-104853800D03*
X79850910Y-104853800D03*
X73350910Y-109353800D03*
X79850910Y-109353800D03*
%TD*%
%TO.C,SW23*%
X120078182Y-104853800D03*
X126578182Y-104853800D03*
X120078182Y-109353800D03*
X126578182Y-109353800D03*
%TD*%
D13*
%TO.C,R4*%
X69260000Y-27853800D03*
D14*
X69260000Y-35473800D03*
%TD*%
D10*
%TO.C,D5*%
X67272245Y-76123801D03*
D11*
X61884091Y-70735647D03*
%TD*%
D15*
%TO.C,SW12*%
X131617633Y-86853800D03*
X138117633Y-86853800D03*
X131617633Y-91353800D03*
X138117633Y-91353800D03*
%TD*%
D20*
%TO.C,J5*%
X118200000Y-52356600D03*
D22*
X120740000Y-52356600D03*
X123280000Y-52356600D03*
X125820000Y-52356600D03*
X128360000Y-52356600D03*
X130900000Y-52356600D03*
%TD*%
D15*
%TO.C,SW39*%
X26482727Y-122603800D03*
X32982727Y-122603800D03*
X26482727Y-127103800D03*
X32982727Y-127103800D03*
%TD*%
%TO.C,SW29*%
X49927923Y-113603800D03*
X56427923Y-113603800D03*
X49927923Y-118103800D03*
X56427923Y-118103800D03*
%TD*%
D10*
%TO.C,D12*%
X148885885Y-76123801D03*
D11*
X143497731Y-70735647D03*
%TD*%
D15*
%TO.C,SW32*%
X85096200Y-113603800D03*
X91596200Y-113603800D03*
X85096200Y-118103800D03*
X91596200Y-118103800D03*
%TD*%
D27*
%TO.C,C52*%
X147750000Y-38750000D03*
X142750000Y-38750000D03*
%TD*%
D12*
%TO.C,H5*%
X136500000Y-15500000D03*
%TD*%
D15*
%TO.C,SW7*%
X73177826Y-86853800D03*
X79677826Y-86853800D03*
X73177826Y-91353800D03*
X79677826Y-91353800D03*
%TD*%
D27*
%TO.C,C54*%
X138700000Y-31556600D03*
X138700000Y-36556600D03*
%TD*%
D10*
%TO.C,D2*%
X32294975Y-76123801D03*
D11*
X26906821Y-70735647D03*
%TD*%
D15*
%TO.C,SW42*%
X61650908Y-122603800D03*
X68150908Y-122603800D03*
X61650908Y-127103800D03*
X68150908Y-127103800D03*
%TD*%
D16*
%TO.C,U1*%
X31660000Y-63953800D03*
D17*
X34200000Y-63953800D03*
X36740000Y-63953800D03*
X39280000Y-63953800D03*
X41820000Y-63953800D03*
X44360000Y-63953800D03*
X46900000Y-63953800D03*
X49440000Y-63953800D03*
X49440000Y-56333800D03*
X46900000Y-56333800D03*
X44360000Y-56333800D03*
X41820000Y-56333800D03*
X39280000Y-56333800D03*
X36740000Y-56333800D03*
X34200000Y-56333800D03*
X31660000Y-56333800D03*
%TD*%
D15*
%TO.C,SW15*%
X26623638Y-104853800D03*
X33123638Y-104853800D03*
X26623638Y-109353800D03*
X33123638Y-109353800D03*
%TD*%
%TO.C,SW40*%
X38205454Y-122603800D03*
X44705454Y-122603800D03*
X38205454Y-127103800D03*
X44705454Y-127103800D03*
%TD*%
D27*
%TO.C,C53*%
X147800000Y-35356600D03*
X142800000Y-35356600D03*
%TD*%
D12*
%TO.C,H4*%
X181000000Y-15000000D03*
%TD*%
D15*
%TO.C,SW52*%
X38423282Y-140603800D03*
X44923282Y-140603800D03*
X38423282Y-145103800D03*
X44923282Y-145103800D03*
%TD*%
D25*
%TO.C,J1*%
X195050000Y-29000000D03*
D26*
X195050000Y-27000000D03*
%TD*%
D16*
%TO.C,U3*%
X53360000Y-63903800D03*
D17*
X55900000Y-63903800D03*
X58440000Y-63903800D03*
X60980000Y-63903800D03*
X63520000Y-63903800D03*
X66060000Y-63903800D03*
X68600000Y-63903800D03*
X71140000Y-63903800D03*
X71140000Y-56283800D03*
X68600000Y-56283800D03*
X66060000Y-56283800D03*
X63520000Y-56283800D03*
X60980000Y-56283800D03*
X58440000Y-56283800D03*
X55900000Y-56283800D03*
X53360000Y-56283800D03*
%TD*%
D10*
%TO.C,D11*%
X137226785Y-76123801D03*
D11*
X131838631Y-70735647D03*
%TD*%
D19*
%TO.C,J3*%
X111762520Y-16106100D03*
X101760000Y-16106100D03*
X99263180Y-26101000D03*
X106761260Y-26103540D03*
X114259340Y-26101000D03*
X101765080Y-28602900D03*
X111757440Y-28602900D03*
%TD*%
D15*
%TO.C,SW43*%
X73373635Y-122603800D03*
X79873635Y-122603800D03*
X73373635Y-127103800D03*
X79873635Y-127103800D03*
%TD*%
%TO.C,SW44*%
X85096362Y-122603800D03*
X91596362Y-122603800D03*
X85096362Y-127103800D03*
X91596362Y-127103800D03*
%TD*%
%TO.C,SW38*%
X14760000Y-122603800D03*
X21260000Y-122603800D03*
X14760000Y-127103800D03*
X21260000Y-127103800D03*
%TD*%
D13*
%TO.C,R8*%
X108500000Y-44266600D03*
D14*
X108500000Y-36646600D03*
%TD*%
D15*
%TO.C,SW4*%
X38146010Y-86853800D03*
X44646010Y-86853800D03*
X38146010Y-91353800D03*
X44646010Y-91353800D03*
%TD*%
D13*
%TO.C,R13*%
X173310000Y-19056600D03*
D14*
X165690000Y-19056600D03*
%TD*%
D15*
%TO.C,SW37*%
X143710000Y-113603800D03*
X150210000Y-113603800D03*
X143710000Y-118103800D03*
X150210000Y-118103800D03*
%TD*%
%TO.C,SW61*%
X143613093Y-140603800D03*
X150113093Y-140603800D03*
X143613093Y-145103800D03*
X150113093Y-145103800D03*
%TD*%
%TO.C,SW74*%
X16510000Y-56353800D03*
X23010000Y-56353800D03*
X16510000Y-60853800D03*
X23010000Y-60853800D03*
%TD*%
%TO.C,SW24*%
X131760000Y-104853800D03*
X138260000Y-104853800D03*
X131760000Y-109353800D03*
X138260000Y-109353800D03*
%TD*%
D12*
%TO.C,H1*%
X16000000Y-158000000D03*
%TD*%
D15*
%TO.C,SW55*%
X73669090Y-140603800D03*
X80169090Y-140603800D03*
X73669090Y-145103800D03*
X80169090Y-145103800D03*
%TD*%
D12*
%TO.C,H6*%
X16200000Y-25100000D03*
%TD*%
D10*
%TO.C,D10*%
X125567695Y-76123801D03*
D11*
X120179541Y-70735647D03*
%TD*%
D15*
%TO.C,SW49*%
X143710000Y-122603800D03*
X150210000Y-122603800D03*
X143710000Y-127103800D03*
X150210000Y-127103800D03*
%TD*%
M02*
