M48
; DRILL file {KiCad 7.0.2} date Mon 17 Apr 2023 06:08:40 PM KST
; FORMAT={-:-/ absolute / inch / decimal}
; #@! TF.CreationDate,2023-04-17T18:08:40+09:00
; #@! TF.GenerationSoftware,Kicad,Pcbnew,7.0.2
; #@! TF.FileFunction,Plated,1,2,PTH
FMAT,2
INCH
; #@! TA.AperFunction,Plated,PTH,ViaDrill
T1C0.0118
; #@! TA.AperFunction,Plated,PTH,ViaDrill
T2C0.0157
; #@! TA.AperFunction,Plated,PTH,ComponentDrill
T3C0.0276
; #@! TA.AperFunction,Plated,PTH,ComponentDrill
T4C0.0295
; #@! TA.AperFunction,Plated,PTH,ComponentDrill
T5C0.0315
; #@! TA.AperFunction,Plated,PTH,ComponentDrill
T6C0.0394
; #@! TA.AperFunction,Plated,PTH,ComponentDrill
T7C0.0433
; #@! TA.AperFunction,Plated,PTH,ComponentDrill
T8C0.0512
; #@! TA.AperFunction,Plated,PTH,ComponentDrill
T9C0.0787
; #@! TA.AperFunction,Plated,PTH,ComponentDrill
T10C0.0827
; #@! TA.AperFunction,Plated,PTH,ComponentDrill
T11C0.0866
; #@! TA.AperFunction,Plated,PTH,ComponentDrill
T12C0.0945
%
G90
G05
T1
X0.5413Y-5.374
X0.5512Y-5.2264
X0.8933Y-3.2569
X0.8976Y-5.3881
X0.9055Y-2.7849
X0.9055Y-3.1676
X1.0079Y-3.1203
X1.0116Y-5.2344
X1.0236Y-5.3014
X1.3307Y-2.1378
X1.3386Y-3.2569
X1.3543Y-5.3723
X1.3622Y-3.1676
X1.4646Y-3.1203
X1.4803Y-5.3014
X1.7717Y-1.1833
X1.811Y-3.2621
X1.8189Y-3.1676
X1.8189Y-5.3802
X1.9134Y-2.063
X1.9291Y-3.1282
X1.937Y-5.3093
X1.9843Y-1.3802
X2.1678Y-2.0527
X2.2146Y-1.5059
X2.2539Y-3.1546
X2.2598Y-5.3644
X2.2677Y-3.2569
X2.2726Y-1.5455
X2.3002Y-1.575
X2.3718Y-5.3025
X2.3858Y-3.1282
X2.7087Y-3.1676
X2.7287Y-3.2541
X2.7323Y-5.3723
X2.8346Y-3.1282
X2.8425Y-5.3014
X2.8427Y-0.8268
X2.9338Y-2.0745
X2.9976Y-2.1035
X3.1811Y-3.1676
X3.1811Y-5.3644
X3.1839Y-3.2569
X3.2126Y-2.5423
X3.2913Y-2.1203
X3.2992Y-2.1597
X3.2992Y-3.1282
X3.3071Y-5.3093
X3.3158Y-2.2542
X3.4674Y-2.2584
X3.5994Y-2.5433
X3.6378Y-3.2569
X3.6378Y-5.3644
X3.6535Y-3.1676
X3.7638Y-3.1282
X3.7717Y-5.3014
X4.0453Y-2.5423
X4.0996Y-3.2569
X4.1024Y-3.1833
X4.1024Y-5.3723
X4.2283Y-3.1282
X4.2362Y-5.3014
X4.5472Y-2.5413
X4.5583Y-3.2569
X4.5669Y-3.1676
X4.5669Y-5.3723
X4.685Y-3.1203
X4.685Y-5.3093
X4.9039Y-2.4967
X4.9774Y-2.5423
X5.0157Y-5.3644
X5.0164Y-3.2569
X5.0315Y-3.1755
X5.0659Y-2.4668
X5.1417Y-3.1203
X5.1417Y-5.3093
X5.1535Y-2.1873
X5.1969Y-5.1378
X5.2047Y-1.5692
X5.2087Y-2.2087
X5.2126Y-1.5219
X5.2126Y-1.8211
X5.2756Y-1.8819
X5.3071Y-2.2857
X5.3612Y-2.501
X5.3858Y-2.5433
X5.4016Y-2.3959
X5.4094Y-2.0101
X5.4104Y-1.5276
X5.4264Y-2.2371
X5.437Y-2.2033
X5.4429Y-3.1791
X5.4567Y-2.4077
X5.4614Y-1.9019
X5.4676Y-1.8585
X5.4746Y-3.2569
X5.4803Y-5.3723
X5.5079Y-2.3521
X5.5112Y-2.551
X5.5269Y-5.2316
X5.5387Y-2.5785
X5.5472Y-1.4961
X5.5726Y-2.5888
X5.5748Y-1.8268
X5.5866Y-1.4203
X5.5866Y-2.0945
X5.6024Y-2.9173
X5.6063Y-3.1282
X5.6063Y-5.3172
X5.6226Y-2.6133
X5.626Y-2.0945
X5.6575Y-2.6073
X5.6594Y-2.5669
X5.6654Y-2.0945
X5.6988Y-2.5689
X5.7053Y-2.0955
X5.725Y-2.5376
X5.748Y-2.0945
X5.7625Y-2.5787
X5.7871Y-2.5366
X5.7874Y-2.0984
X5.8213Y-2.5271
X5.8268Y-2.0669
X5.8664Y-2.9014
X5.8858Y-3.3327
X5.8937Y-2.4606
X5.9154Y-1.2894
X5.935Y-2.5591
X5.9449Y-5.3644
X5.9518Y-0.8753
X6.0157Y-1.0416
X6.0157Y-1.144
X6.0157Y-2.6299
X6.0207Y-4.6722
X6.0236Y-1.207
X6.0236Y-1.7224
X6.0236Y-2.0217
X6.0236Y-2.3189
X6.0236Y-5.9055
X6.0246Y-2.8967
X6.0256Y-3.7933
X6.0266Y-4.3858
X6.0276Y-4.0906
X6.0285Y-4.9843
X6.0295Y-3.1988
X6.0295Y-3.4902
X6.0315Y-5.2982
X6.0335Y-1.4567
X6.0335Y-1.5157
X6.0335Y-5.5807
X6.0394Y-1.0888
X6.0787Y-1.0416
X6.0787Y-1.144
X6.0925Y-6.0827
X6.0925Y-6.1516
X6.1024Y-1.4567
X6.1024Y-1.5157
X6.1102Y-1.0888
X6.1181Y-1.1991
X6.1417Y-1.0416
X6.1575Y-1.144
X6.1614Y-1.5157
X6.1732Y-1.0888
X6.1969Y-1.207
X6.2047Y-1.0416
X6.2224Y-2.2717
X6.2224Y-2.565
X6.2244Y-1.6713
X6.2244Y-1.7736
X6.2244Y-1.9744
X6.2244Y-2.0669
X6.2244Y-2.3661
X6.2244Y-2.6634
X6.2244Y-2.8602
X6.2244Y-2.9646
X6.2244Y-3.1752
X6.2244Y-3.252
X6.2244Y-3.4724
X6.2244Y-3.5492
X6.2244Y-3.7717
X6.2244Y-3.8425
X6.2244Y-4.0709
X6.2244Y-4.1417
X6.2244Y-4.3622
X6.2244Y-4.4409
X6.2244Y-4.6614
X6.2244Y-4.7402
X6.2244Y-4.9606
X6.2244Y-5.0394
X6.2244Y-5.2598
X6.2244Y-5.3386
X6.2244Y-5.5591
X6.2244Y-5.6378
X6.2244Y-5.8583
X6.2244Y-5.937
X6.2283Y-1.144
X6.2486Y-0.8211
X6.2638Y-1.5157
X6.2992Y-1.4567
X6.2992Y-1.5157
X6.4567Y-1.2227
X6.4724Y-1.5157
X6.5217Y-1.6811
X6.5217Y-2.2717
X6.5217Y-2.565
X6.5217Y-3.8484
X6.5217Y-5.0433
X6.5217Y-5.9449
X6.5236Y-1.7736
X6.5236Y-1.9744
X6.5236Y-2.0669
X6.5236Y-2.3661
X6.5236Y-2.6634
X6.5236Y-2.8602
X6.5236Y-2.9646
X6.5236Y-3.1752
X6.5236Y-3.252
X6.5236Y-3.4724
X6.5236Y-3.5492
X6.5236Y-3.7677
X6.5236Y-4.0728
X6.5236Y-4.1476
X6.5236Y-4.3661
X6.5236Y-4.4469
X6.5236Y-4.6654
X6.5236Y-4.7441
X6.5236Y-4.9606
X6.5236Y-5.2618
X6.5236Y-5.3366
X6.5236Y-5.6358
X6.5256Y-5.5571
X6.5256Y-5.8563
X6.565Y-1.2402
X6.565Y-1.4075
X6.5748Y-1.5157
X6.6043Y-1.4469
X6.6043Y-1.5059
X6.6063Y-1.1046
X6.7618Y-6.0827
X6.7618Y-6.1516
X6.7677Y-1.5256
X6.8169Y-2.2697
X6.8169Y-2.563
X6.8169Y-3.8465
X6.8169Y-5.0413
X6.8189Y-1.7717
X6.8189Y-1.9724
X6.8189Y-2.065
X6.8189Y-2.3642
X6.8189Y-2.6614
X6.8189Y-2.8583
X6.8189Y-2.9626
X6.8189Y-3.1732
X6.8189Y-3.25
X6.8189Y-3.4705
X6.8189Y-3.5472
X6.8189Y-3.7657
X6.8189Y-4.0709
X6.8189Y-4.1457
X6.8189Y-4.3642
X6.8189Y-4.4449
X6.8189Y-4.6634
X6.8189Y-4.7421
X6.8189Y-4.9587
X6.8189Y-5.2598
X6.8189Y-5.3346
X6.8189Y-5.6339
X6.8209Y-1.6772
X6.8209Y-5.5551
X6.8209Y-5.8543
X6.8209Y-5.9429
X6.8307Y-1.2402
X6.8307Y-1.4075
X6.8701Y-1.5256
X6.9173Y-0.8211
X6.998Y-1.4469
X6.998Y-1.5157
X7.0728Y-1.5256
X7.1161Y-2.2697
X7.1161Y-2.563
X7.1161Y-3.8465
X7.1161Y-5.0413
X7.1181Y-1.6811
X7.1181Y-1.7717
X7.1181Y-1.9724
X7.1181Y-2.065
X7.1181Y-2.3642
X7.1181Y-2.6614
X7.1181Y-2.8583
X7.1181Y-2.9626
X7.1181Y-3.1732
X7.1181Y-3.25
X7.1181Y-3.4705
X7.1181Y-3.5472
X7.1181Y-3.7657
X7.1181Y-4.0709
X7.1181Y-4.1457
X7.1181Y-4.3642
X7.1181Y-4.4449
X7.1181Y-4.6634
X7.1181Y-4.7421
X7.1181Y-4.9587
X7.1181Y-5.2598
X7.1181Y-5.3346
X7.1181Y-5.6339
X7.1181Y-5.9429
X7.1201Y-5.5551
X7.1201Y-5.8543
X7.1457Y-1.25
X7.1457Y-1.4173
X7.1752Y-1.5256
X7.2047Y-1.437
X7.2047Y-1.5157
X7.3582Y-1.5157
X7.4154Y-2.2697
X7.4154Y-2.563
X7.4154Y-3.8465
X7.4154Y-5.0413
X7.4163Y-1.6781
X7.4163Y-5.9518
X7.4173Y-1.7717
X7.4173Y-1.9724
X7.4173Y-2.065
X7.4173Y-2.3642
X7.4173Y-2.6614
X7.4173Y-2.8583
X7.4173Y-2.9626
X7.4173Y-3.1732
X7.4173Y-3.25
X7.4173Y-3.4705
X7.4173Y-3.5472
X7.4173Y-3.7657
X7.4173Y-4.0709
X7.4173Y-4.1457
X7.4173Y-4.3642
X7.4173Y-4.4449
X7.4173Y-4.6634
X7.4173Y-4.7421
X7.4173Y-4.9587
X7.4173Y-5.2598
X7.4173Y-5.3346
X7.4173Y-5.6339
X7.4193Y-5.5551
X7.4193Y-5.8543
X7.4213Y-1.2303
X7.4213Y-1.3976
X7.4606Y-1.5157
X7.5Y-1.4272
X7.5Y-1.5059
X7.5295Y-6.0827
X7.5295Y-6.1516
X7.6535Y-1.5256
X7.7146Y-1.6811
X7.7146Y-2.2697
X7.7146Y-2.563
X7.7146Y-3.8465
X7.7146Y-5.0413
X7.7146Y-5.9478
X7.7165Y-1.7717
X7.7165Y-1.9724
X7.7165Y-2.065
X7.7165Y-2.3642
X7.7165Y-2.6614
X7.7165Y-2.8583
X7.7165Y-2.9626
X7.7165Y-3.1732
X7.7165Y-3.25
X7.7165Y-3.4705
X7.7165Y-3.5472
X7.7165Y-3.7657
X7.7165Y-4.0709
X7.7165Y-4.1457
X7.7165Y-4.3642
X7.7165Y-4.4449
X7.7165Y-4.6634
X7.7165Y-4.7421
X7.7165Y-4.9587
X7.7165Y-5.2598
X7.7165Y-5.3346
X7.7165Y-5.6339
X7.7185Y-5.5551
X7.7185Y-5.8543
X7.7559Y-1.5256
X7.7854Y-1.4272
X7.7854Y-1.5157
T2
X0.5709Y-2.1752
X0.6189Y-3.1874
X1.4712Y-5.2344
X2.0778Y-2.0374
X2.9409Y-2.5315
X3.0118Y-2.5423
X5.3539Y-1.6606
X5.4646Y-1.7244
X5.4724Y-2.8642
X5.4759Y-1.6412
X5.5433Y-1.6489
X5.6945Y-2.2925
T3
X0.5833Y-2.0659
X0.8833Y-2.0659
X0.8858Y-1.6512
X0.8858Y-1.9512
X1.2146Y-1.6364
X1.2146Y-1.9364
X1.4799Y-0.9471
X1.4799Y-1.0259
X1.4799Y-1.1133
X1.7799Y-0.9471
X1.7799Y-1.0259
X1.7799Y-1.1133
X2.7268Y-0.6715
X2.7268Y-0.9715
X2.7268Y-1.0966
X2.7268Y-1.3966
X3.3421Y-1.3566
X3.35Y-1.644
X3.6421Y-1.3566
X3.65Y-1.644
X4.2717Y-1.4428
X4.2717Y-1.7428
X4.3701Y-1.6453
X4.3701Y-1.9453
X4.4917Y-1.7148
X4.4917Y-1.8133
X4.7917Y-1.7148
X4.7917Y-1.8133
X6.1055Y-0.7503
X6.4055Y-0.7503
X6.5232Y-0.7503
X6.8232Y-0.7503
T4
X1.011Y-1.786
X1.061Y-1.786
X1.111Y-1.786
X7.6791Y-0.6496
X7.6791Y-0.7283
X7.6791Y-1.063
X7.6791Y-1.1417
T5
X0.6003Y-2.7849
X0.8124Y-2.997
X1.0593Y-2.7849
X1.2465Y-2.2179
X1.2465Y-2.5179
X1.2715Y-2.997
X1.3465Y-2.2179
X1.3465Y-2.5179
X1.4465Y-2.2179
X1.4465Y-2.5179
X1.5183Y-2.7849
X1.5465Y-2.2179
X1.5465Y-2.5179
X1.6465Y-2.2179
X1.6465Y-2.5179
X1.7305Y-2.997
X1.7465Y-2.2179
X1.7465Y-2.5179
X1.8465Y-2.2179
X1.8465Y-2.5179
X1.9465Y-2.2179
X1.9465Y-2.5179
X1.9774Y-2.7849
X2.1008Y-2.2159
X2.1008Y-2.5159
X2.1895Y-2.997
X2.2008Y-2.2159
X2.2008Y-2.5159
X2.3008Y-2.2159
X2.3008Y-2.5159
X2.4008Y-2.2159
X2.4008Y-2.5159
X2.4364Y-2.7849
X2.5008Y-2.2159
X2.5008Y-2.5159
X2.6008Y-2.2159
X2.6008Y-2.5159
X2.6485Y-2.997
X2.7008Y-2.2159
X2.7008Y-2.5159
X2.8008Y-2.2159
X2.8008Y-2.5159
X2.8954Y-2.7849
X3.1075Y-2.997
X3.3441Y-1.5022
X3.3544Y-2.7849
X3.5666Y-2.997
X3.6441Y-1.5022
X3.7087Y-1.7717
X3.7087Y-1.8717
X3.7087Y-1.9717
X3.8134Y-2.7849
X4.0087Y-1.7717
X4.0087Y-1.8717
X4.0087Y-1.9717
X4.0256Y-2.997
X4.2725Y-2.7849
X4.4846Y-2.997
X4.7315Y-2.7849
X4.9436Y-2.997
X5.1905Y-2.7849
X5.315Y-1.2431
X5.315Y-1.44
X5.4026Y-2.997
X5.4606Y-1.2421
X5.4606Y-1.439
X5.6495Y-2.7849
X5.8616Y-2.997
T6
X0.6157Y-0.6836
X0.6157Y-1.2836
X0.7157Y-0.6836
X0.7157Y-1.2836
X0.8157Y-0.6836
X0.8157Y-1.2836
X0.9157Y-0.6836
X0.9157Y-1.2836
X1.0157Y-0.6836
X1.0157Y-1.2836
X1.1157Y-0.6836
X1.1157Y-1.2836
X1.2157Y-0.6836
X1.2157Y-1.2836
X1.3157Y-0.6836
X1.3157Y-1.2836
X1.4157Y-0.6836
X1.4157Y-1.2836
X1.5157Y-0.6836
X1.5157Y-1.2836
X1.6157Y-0.6836
X1.6157Y-1.2836
X1.7157Y-0.6836
X1.7157Y-1.2836
X1.8157Y-0.6836
X1.8157Y-1.2836
X1.9157Y-0.6836
X1.9157Y-1.2836
X1.9528Y-1.5361
X1.9528Y-1.6361
X1.9528Y-1.7361
X1.9528Y-1.8361
X2.0157Y-0.6836
X2.0157Y-1.2836
X2.1157Y-0.6836
X2.1157Y-1.2836
X2.1467Y-1.628
X2.1467Y-1.8248
X2.2157Y-0.6836
X2.2157Y-1.2836
X2.3157Y-0.6836
X2.3157Y-1.2836
X2.4157Y-0.6836
X2.4157Y-1.2836
X2.5157Y-0.6836
X2.5157Y-1.2836
X2.7175Y-1.628
X2.7175Y-1.7264
X2.7175Y-1.8248
X4.6535Y-2.0613
X4.7535Y-2.0613
X4.8535Y-2.0613
X4.9535Y-2.0613
X5.0535Y-2.0613
X5.1535Y-2.0613
T7
X0.5817Y-4.4724
X0.5817Y-4.6496
X0.5817Y-4.8268
X0.5817Y-5.0039
X0.5827Y-3.4194
X0.5827Y-3.5966
X0.5873Y-4.128
X0.5873Y-4.3051
X0.5935Y-5.5354
X0.5935Y-5.7126
X0.6506Y-2.2195
X0.6506Y-2.3967
X0.8376Y-4.4724
X0.8376Y-4.6496
X0.8376Y-4.8268
X0.8376Y-5.0039
X0.8386Y-3.4194
X0.8386Y-3.5966
X0.8432Y-4.128
X0.8432Y-4.3051
X0.8494Y-5.5354
X0.8494Y-5.7126
X0.9065Y-2.2195
X0.9065Y-2.3967
X1.0424Y-3.4194
X1.0424Y-3.5966
X1.0432Y-4.4724
X1.0432Y-4.6496
X1.0432Y-4.8268
X1.0432Y-5.0039
X1.0472Y-4.128
X1.0472Y-4.3051
X1.0534Y-5.5354
X1.0534Y-5.7126
X1.2983Y-3.4194
X1.2983Y-3.5966
X1.2991Y-4.4724
X1.2991Y-4.6496
X1.2991Y-4.8268
X1.2991Y-5.0039
X1.3031Y-4.128
X1.3031Y-4.3051
X1.3093Y-5.5354
X1.3093Y-5.7126
X1.5021Y-3.4194
X1.5021Y-3.5966
X1.5047Y-4.4724
X1.5047Y-4.6496
X1.5048Y-4.8268
X1.5048Y-5.0039
X1.5071Y-4.128
X1.5071Y-4.3051
X1.5133Y-5.5354
X1.5133Y-5.7126
X1.7581Y-3.4194
X1.7581Y-3.5966
X1.7607Y-4.4724
X1.7607Y-4.6496
X1.7607Y-4.8268
X1.7607Y-5.0039
X1.763Y-4.128
X1.763Y-4.3051
X1.7692Y-5.5354
X1.7692Y-5.7126
X1.9619Y-3.4194
X1.9619Y-3.5966
X1.9663Y-4.4724
X1.9663Y-4.6496
X1.9663Y-4.8268
X1.9663Y-5.0039
X1.967Y-4.128
X1.967Y-4.3051
X1.9732Y-5.5354
X1.9732Y-5.7126
X2.2178Y-3.4194
X2.2178Y-3.5966
X2.2222Y-4.4724
X2.2222Y-4.6496
X2.2222Y-4.8268
X2.2222Y-5.0039
X2.2229Y-4.128
X2.2229Y-4.3051
X2.2292Y-5.5354
X2.2292Y-5.7126
X2.4216Y-3.4194
X2.4216Y-3.5966
X2.4269Y-4.128
X2.4269Y-4.3051
X2.4278Y-4.4724
X2.4278Y-4.6496
X2.4278Y-4.8268
X2.4278Y-5.0039
X2.441Y-5.5354
X2.441Y-5.7126
X2.6775Y-3.4194
X2.6775Y-3.5966
X2.6828Y-4.128
X2.6828Y-4.3051
X2.6837Y-4.4724
X2.6837Y-4.6496
X2.6837Y-4.8268
X2.6837Y-5.0039
X2.697Y-5.5354
X2.697Y-5.7126
X2.8868Y-4.128
X2.8868Y-4.3051
X2.8892Y-3.4194
X2.8892Y-3.5966
X2.8893Y-4.4724
X2.8893Y-4.6496
X2.8893Y-4.8268
X2.8893Y-5.0039
X2.901Y-5.5354
X2.901Y-5.7126
X3.1427Y-4.128
X3.1427Y-4.3051
X3.1451Y-3.4194
X3.1451Y-3.5966
X3.1452Y-4.4724
X3.1452Y-4.6496
X3.1452Y-4.8268
X3.1452Y-5.0039
X3.1569Y-5.5354
X3.1569Y-5.7126
X3.3432Y-3.4194
X3.3432Y-3.5966
X3.3467Y-4.128
X3.3467Y-4.3051
X3.3508Y-4.4724
X3.3508Y-4.6496
X3.3509Y-4.8268
X3.3509Y-5.0039
X3.3551Y-5.5354
X3.3551Y-5.7126
X3.5991Y-3.4194
X3.5991Y-3.5966
X3.6026Y-4.128
X3.6026Y-4.3051
X3.6068Y-4.4724
X3.6068Y-4.6496
X3.6068Y-4.8268
X3.6068Y-5.0039
X3.611Y-5.5354
X3.611Y-5.7126
X3.8029Y-3.4194
X3.8029Y-3.5966
X3.8067Y-4.128
X3.8067Y-4.3051
X3.8124Y-4.4724
X3.8124Y-4.6496
X3.8124Y-4.8268
X3.8124Y-5.0039
X3.815Y-5.5354
X3.815Y-5.7126
X4.0588Y-3.4194
X4.0588Y-3.5966
X4.0626Y-4.128
X4.0626Y-4.3051
X4.0683Y-4.4724
X4.0683Y-4.6496
X4.0683Y-4.8268
X4.0683Y-5.0039
X4.0709Y-5.5354
X4.0709Y-5.7126
X4.2628Y-3.4193
X4.2628Y-3.5965
X4.2666Y-4.128
X4.2666Y-4.3051
X4.2739Y-4.4724
X4.2739Y-4.6496
X4.2739Y-4.8268
X4.2739Y-5.0039
X4.2749Y-5.5354
X4.2749Y-5.7126
X4.5187Y-3.4193
X4.5187Y-3.5965
X4.5225Y-4.128
X4.5225Y-4.3051
X4.5298Y-4.4724
X4.5298Y-4.6496
X4.5298Y-4.8268
X4.5298Y-5.0039
X4.5308Y-5.5354
X4.5308Y-5.7126
X4.7221Y-3.4194
X4.7221Y-3.5966
X4.7265Y-4.128
X4.7265Y-4.3051
X4.7348Y-5.5354
X4.7348Y-5.7126
X4.7354Y-4.4724
X4.7354Y-4.6496
X4.7354Y-4.8268
X4.7354Y-5.0039
X4.978Y-3.4194
X4.978Y-3.5966
X4.9824Y-4.128
X4.9824Y-4.3051
X4.9907Y-5.5354
X4.9907Y-5.7126
X4.9913Y-4.4724
X4.9913Y-4.6496
X4.9913Y-4.8268
X4.9913Y-5.0039
X5.1818Y-3.4194
X5.1818Y-3.5966
X5.1864Y-4.128
X5.1864Y-4.3051
X5.1893Y-5.5354
X5.1893Y-5.7126
X5.197Y-4.4724
X5.197Y-4.6496
X5.197Y-4.8268
X5.197Y-5.0039
X5.4377Y-3.4194
X5.4377Y-3.5966
X5.4423Y-4.128
X5.4423Y-4.3051
X5.4452Y-5.5354
X5.4452Y-5.7126
X5.4529Y-4.4724
X5.4529Y-4.6496
X5.4529Y-4.8268
X5.4529Y-5.0039
X5.6415Y-3.4194
X5.6415Y-3.5966
X5.6486Y-4.1289
X5.6486Y-4.3061
X5.6486Y-4.4734
X5.6486Y-4.6506
X5.6486Y-4.8278
X5.6486Y-5.0049
X5.6486Y-5.5364
X5.6486Y-5.7136
X5.8974Y-3.4194
X5.8974Y-3.5966
X5.9045Y-4.1289
X5.9045Y-4.3061
X5.9045Y-4.4734
X5.9045Y-4.6506
X5.9045Y-4.8278
X5.9045Y-5.0049
X5.9045Y-5.5364
X5.9045Y-5.7136
T8
X3.0866Y-0.9921
X3.185Y-1.0906
X3.2835Y-0.5984
X3.3819Y-0.9921
X3.4803Y-0.5984
X3.5787Y-1.0906
X3.6772Y-0.9921
X4.0Y-0.9921
X4.0984Y-1.0906
X4.1969Y-0.5984
X4.2953Y-0.9921
X4.3937Y-0.5984
X4.4921Y-1.0906
X4.5906Y-0.9921
T9
X5.0394Y-0.6929
X5.0394Y-0.9331
X5.0394Y-1.1496
X5.1181Y-0.7874
X5.1181Y-1.0039
X5.7087Y-0.6929
X5.7087Y-0.9331
X5.7087Y-1.1496
X5.7874Y-0.7874
X5.7874Y-1.0039
T11
X0.6299Y-6.2205
X0.6378Y-0.9882
X0.8661Y-3.9213
X4.1732Y-3.9469
X4.3543Y-2.1024
X5.3307Y-0.6063
X5.9449Y-6.2205
X7.126Y-0.5906
X7.7165Y-6.2205
T12
X3.0866Y-0.7953
X3.6772Y-0.7953
X4.0Y-0.7953
X4.5906Y-0.7953
T10
G00X2.4203Y-1.4665
M15
G01X2.4242Y-1.4665
M16
G05
G00X2.4203Y-1.9862
M15
G01X2.4242Y-1.9862
M16
G05
T0
M30
