%TF.GenerationSoftware,KiCad,Pcbnew,7.0.1*%
%TF.CreationDate,2023-04-13T13:13:12+09:00*%
%TF.ProjectId,autoharpie,6175746f-6861-4727-9069-652e6b696361,rev?*%
%TF.SameCoordinates,Original*%
%TF.FileFunction,Drillmap*%
%TF.FilePolarity,Positive*%
%FSLAX45Y45*%
G04 Gerber Fmt 4.5, Leading zero omitted, Abs format (unit mm)*
G04 Created by KiCad (PCBNEW 7.0.1) date 2023-04-13 13:13:12*
%MOMM*%
%LPD*%
G01*
G04 APERTURE LIST*
%ADD10C,0.100000*%
%ADD11C,0.200000*%
%ADD12C,0.139700*%
%ADD13C,0.220000*%
G04 APERTURE END LIST*
D10*
X1200000Y-1200000D02*
X20200000Y-1200000D01*
X20200000Y-16200000D01*
X1200000Y-16200000D01*
X1200000Y-1200000D01*
D11*
D12*
X7906024Y-1540760D02*
X8045724Y-1680460D01*
X8045724Y-1540760D02*
X7906024Y-1680460D01*
X8906276Y-1540760D02*
X9045976Y-1680460D01*
X9045976Y-1540760D02*
X8906276Y-1680460D01*
X10106150Y-1540760D02*
X10245850Y-1680460D01*
X10245850Y-1540760D02*
X10106150Y-1680460D01*
X11106402Y-1540760D02*
X11246102Y-1680460D01*
X11246102Y-1540760D02*
X11106402Y-1680460D01*
D13*
X1710000Y-15800000D02*
G75*
G03*
X1710000Y-15800000I-110000J0D01*
G01*
X1730000Y-2510000D02*
G75*
G03*
X1730000Y-2510000I-110000J0D01*
G01*
X10650000Y-9920000D02*
G75*
G03*
X10650000Y-9920000I-110000J0D01*
G01*
X10950000Y-5170000D02*
G75*
G03*
X10950000Y-5170000I-110000J0D01*
G01*
X13760000Y-1550000D02*
G75*
G03*
X13760000Y-1550000I-110000J0D01*
G01*
X15210000Y-15800000D02*
G75*
G03*
X15210000Y-15800000I-110000J0D01*
G01*
X18210000Y-1500000D02*
G75*
G03*
X18210000Y-1500000I-110000J0D01*
G01*
X19710000Y-15800000D02*
G75*
G03*
X19710000Y-15800000I-110000J0D01*
G01*
D11*
X1442619Y-16517524D02*
X1442619Y-16317524D01*
X1442619Y-16317524D02*
X1490238Y-16317524D01*
X1490238Y-16317524D02*
X1518809Y-16327048D01*
X1518809Y-16327048D02*
X1537857Y-16346095D01*
X1537857Y-16346095D02*
X1547381Y-16365143D01*
X1547381Y-16365143D02*
X1556905Y-16403238D01*
X1556905Y-16403238D02*
X1556905Y-16431809D01*
X1556905Y-16431809D02*
X1547381Y-16469905D01*
X1547381Y-16469905D02*
X1537857Y-16488952D01*
X1537857Y-16488952D02*
X1518809Y-16508000D01*
X1518809Y-16508000D02*
X1490238Y-16517524D01*
X1490238Y-16517524D02*
X1442619Y-16517524D01*
X1642619Y-16517524D02*
X1642619Y-16384190D01*
X1642619Y-16422286D02*
X1652143Y-16403238D01*
X1652143Y-16403238D02*
X1661667Y-16393714D01*
X1661667Y-16393714D02*
X1680714Y-16384190D01*
X1680714Y-16384190D02*
X1699762Y-16384190D01*
X1766428Y-16517524D02*
X1766428Y-16384190D01*
X1766428Y-16317524D02*
X1756905Y-16327048D01*
X1756905Y-16327048D02*
X1766428Y-16336571D01*
X1766428Y-16336571D02*
X1775952Y-16327048D01*
X1775952Y-16327048D02*
X1766428Y-16317524D01*
X1766428Y-16317524D02*
X1766428Y-16336571D01*
X1890238Y-16517524D02*
X1871190Y-16508000D01*
X1871190Y-16508000D02*
X1861667Y-16488952D01*
X1861667Y-16488952D02*
X1861667Y-16317524D01*
X1995000Y-16517524D02*
X1975952Y-16508000D01*
X1975952Y-16508000D02*
X1966428Y-16488952D01*
X1966428Y-16488952D02*
X1966428Y-16317524D01*
X2223571Y-16517524D02*
X2223571Y-16317524D01*
X2223571Y-16317524D02*
X2290238Y-16460381D01*
X2290238Y-16460381D02*
X2356905Y-16317524D01*
X2356905Y-16317524D02*
X2356905Y-16517524D01*
X2537857Y-16517524D02*
X2537857Y-16412762D01*
X2537857Y-16412762D02*
X2528333Y-16393714D01*
X2528333Y-16393714D02*
X2509286Y-16384190D01*
X2509286Y-16384190D02*
X2471190Y-16384190D01*
X2471190Y-16384190D02*
X2452143Y-16393714D01*
X2537857Y-16508000D02*
X2518810Y-16517524D01*
X2518810Y-16517524D02*
X2471190Y-16517524D01*
X2471190Y-16517524D02*
X2452143Y-16508000D01*
X2452143Y-16508000D02*
X2442619Y-16488952D01*
X2442619Y-16488952D02*
X2442619Y-16469905D01*
X2442619Y-16469905D02*
X2452143Y-16450857D01*
X2452143Y-16450857D02*
X2471190Y-16441333D01*
X2471190Y-16441333D02*
X2518810Y-16441333D01*
X2518810Y-16441333D02*
X2537857Y-16431809D01*
X2633095Y-16384190D02*
X2633095Y-16584190D01*
X2633095Y-16393714D02*
X2652143Y-16384190D01*
X2652143Y-16384190D02*
X2690238Y-16384190D01*
X2690238Y-16384190D02*
X2709286Y-16393714D01*
X2709286Y-16393714D02*
X2718810Y-16403238D01*
X2718810Y-16403238D02*
X2728333Y-16422286D01*
X2728333Y-16422286D02*
X2728333Y-16479428D01*
X2728333Y-16479428D02*
X2718810Y-16498476D01*
X2718810Y-16498476D02*
X2709286Y-16508000D01*
X2709286Y-16508000D02*
X2690238Y-16517524D01*
X2690238Y-16517524D02*
X2652143Y-16517524D01*
X2652143Y-16517524D02*
X2633095Y-16508000D01*
X2814048Y-16498476D02*
X2823571Y-16508000D01*
X2823571Y-16508000D02*
X2814048Y-16517524D01*
X2814048Y-16517524D02*
X2804524Y-16508000D01*
X2804524Y-16508000D02*
X2814048Y-16498476D01*
X2814048Y-16498476D02*
X2814048Y-16517524D01*
X2814048Y-16393714D02*
X2823571Y-16403238D01*
X2823571Y-16403238D02*
X2814048Y-16412762D01*
X2814048Y-16412762D02*
X2804524Y-16403238D01*
X2804524Y-16403238D02*
X2814048Y-16393714D01*
X2814048Y-16393714D02*
X2814048Y-16412762D01*
D12*
X1055300Y-16775150D02*
X1195000Y-16914850D01*
X1195000Y-16775150D02*
X1055300Y-16914850D01*
D11*
X1547381Y-16937524D02*
X1433095Y-16937524D01*
X1490238Y-16937524D02*
X1490238Y-16737524D01*
X1490238Y-16737524D02*
X1471190Y-16766095D01*
X1471190Y-16766095D02*
X1452143Y-16785143D01*
X1452143Y-16785143D02*
X1433095Y-16794667D01*
X1633095Y-16918476D02*
X1642619Y-16928000D01*
X1642619Y-16928000D02*
X1633095Y-16937524D01*
X1633095Y-16937524D02*
X1623571Y-16928000D01*
X1623571Y-16928000D02*
X1633095Y-16918476D01*
X1633095Y-16918476D02*
X1633095Y-16937524D01*
X1709286Y-16737524D02*
X1833095Y-16737524D01*
X1833095Y-16737524D02*
X1766428Y-16813714D01*
X1766428Y-16813714D02*
X1795000Y-16813714D01*
X1795000Y-16813714D02*
X1814048Y-16823238D01*
X1814048Y-16823238D02*
X1823571Y-16832762D01*
X1823571Y-16832762D02*
X1833095Y-16851810D01*
X1833095Y-16851810D02*
X1833095Y-16899429D01*
X1833095Y-16899429D02*
X1823571Y-16918476D01*
X1823571Y-16918476D02*
X1814048Y-16928000D01*
X1814048Y-16928000D02*
X1795000Y-16937524D01*
X1795000Y-16937524D02*
X1737857Y-16937524D01*
X1737857Y-16937524D02*
X1718809Y-16928000D01*
X1718809Y-16928000D02*
X1709286Y-16918476D01*
X1928333Y-16937524D02*
X1966428Y-16937524D01*
X1966428Y-16937524D02*
X1985476Y-16928000D01*
X1985476Y-16928000D02*
X1995000Y-16918476D01*
X1995000Y-16918476D02*
X2014048Y-16889905D01*
X2014048Y-16889905D02*
X2023571Y-16851810D01*
X2023571Y-16851810D02*
X2023571Y-16775619D01*
X2023571Y-16775619D02*
X2014048Y-16756571D01*
X2014048Y-16756571D02*
X2004524Y-16747048D01*
X2004524Y-16747048D02*
X1985476Y-16737524D01*
X1985476Y-16737524D02*
X1947381Y-16737524D01*
X1947381Y-16737524D02*
X1928333Y-16747048D01*
X1928333Y-16747048D02*
X1918809Y-16756571D01*
X1918809Y-16756571D02*
X1909286Y-16775619D01*
X1909286Y-16775619D02*
X1909286Y-16823238D01*
X1909286Y-16823238D02*
X1918809Y-16842286D01*
X1918809Y-16842286D02*
X1928333Y-16851810D01*
X1928333Y-16851810D02*
X1947381Y-16861333D01*
X1947381Y-16861333D02*
X1985476Y-16861333D01*
X1985476Y-16861333D02*
X2004524Y-16851810D01*
X2004524Y-16851810D02*
X2014048Y-16842286D01*
X2014048Y-16842286D02*
X2023571Y-16823238D01*
X2090238Y-16737524D02*
X2223571Y-16737524D01*
X2223571Y-16737524D02*
X2137857Y-16937524D01*
X2299762Y-16937524D02*
X2299762Y-16804190D01*
X2299762Y-16823238D02*
X2309286Y-16813714D01*
X2309286Y-16813714D02*
X2328333Y-16804190D01*
X2328333Y-16804190D02*
X2356905Y-16804190D01*
X2356905Y-16804190D02*
X2375952Y-16813714D01*
X2375952Y-16813714D02*
X2385476Y-16832762D01*
X2385476Y-16832762D02*
X2385476Y-16937524D01*
X2385476Y-16832762D02*
X2395000Y-16813714D01*
X2395000Y-16813714D02*
X2414048Y-16804190D01*
X2414048Y-16804190D02*
X2442619Y-16804190D01*
X2442619Y-16804190D02*
X2461667Y-16813714D01*
X2461667Y-16813714D02*
X2471191Y-16832762D01*
X2471191Y-16832762D02*
X2471191Y-16937524D01*
X2566429Y-16937524D02*
X2566429Y-16804190D01*
X2566429Y-16823238D02*
X2575952Y-16813714D01*
X2575952Y-16813714D02*
X2595000Y-16804190D01*
X2595000Y-16804190D02*
X2623572Y-16804190D01*
X2623572Y-16804190D02*
X2642619Y-16813714D01*
X2642619Y-16813714D02*
X2652143Y-16832762D01*
X2652143Y-16832762D02*
X2652143Y-16937524D01*
X2652143Y-16832762D02*
X2661667Y-16813714D01*
X2661667Y-16813714D02*
X2680714Y-16804190D01*
X2680714Y-16804190D02*
X2709286Y-16804190D01*
X2709286Y-16804190D02*
X2728333Y-16813714D01*
X2728333Y-16813714D02*
X2737857Y-16832762D01*
X2737857Y-16832762D02*
X2737857Y-16937524D01*
X3128333Y-16728000D02*
X2956905Y-16985143D01*
X3385476Y-16737524D02*
X3404524Y-16737524D01*
X3404524Y-16737524D02*
X3423572Y-16747048D01*
X3423572Y-16747048D02*
X3433095Y-16756571D01*
X3433095Y-16756571D02*
X3442619Y-16775619D01*
X3442619Y-16775619D02*
X3452143Y-16813714D01*
X3452143Y-16813714D02*
X3452143Y-16861333D01*
X3452143Y-16861333D02*
X3442619Y-16899429D01*
X3442619Y-16899429D02*
X3433095Y-16918476D01*
X3433095Y-16918476D02*
X3423572Y-16928000D01*
X3423572Y-16928000D02*
X3404524Y-16937524D01*
X3404524Y-16937524D02*
X3385476Y-16937524D01*
X3385476Y-16937524D02*
X3366429Y-16928000D01*
X3366429Y-16928000D02*
X3356905Y-16918476D01*
X3356905Y-16918476D02*
X3347381Y-16899429D01*
X3347381Y-16899429D02*
X3337857Y-16861333D01*
X3337857Y-16861333D02*
X3337857Y-16813714D01*
X3337857Y-16813714D02*
X3347381Y-16775619D01*
X3347381Y-16775619D02*
X3356905Y-16756571D01*
X3356905Y-16756571D02*
X3366429Y-16747048D01*
X3366429Y-16747048D02*
X3385476Y-16737524D01*
X3537857Y-16918476D02*
X3547381Y-16928000D01*
X3547381Y-16928000D02*
X3537857Y-16937524D01*
X3537857Y-16937524D02*
X3528333Y-16928000D01*
X3528333Y-16928000D02*
X3537857Y-16918476D01*
X3537857Y-16918476D02*
X3537857Y-16937524D01*
X3671191Y-16737524D02*
X3690238Y-16737524D01*
X3690238Y-16737524D02*
X3709286Y-16747048D01*
X3709286Y-16747048D02*
X3718810Y-16756571D01*
X3718810Y-16756571D02*
X3728333Y-16775619D01*
X3728333Y-16775619D02*
X3737857Y-16813714D01*
X3737857Y-16813714D02*
X3737857Y-16861333D01*
X3737857Y-16861333D02*
X3728333Y-16899429D01*
X3728333Y-16899429D02*
X3718810Y-16918476D01*
X3718810Y-16918476D02*
X3709286Y-16928000D01*
X3709286Y-16928000D02*
X3690238Y-16937524D01*
X3690238Y-16937524D02*
X3671191Y-16937524D01*
X3671191Y-16937524D02*
X3652143Y-16928000D01*
X3652143Y-16928000D02*
X3642619Y-16918476D01*
X3642619Y-16918476D02*
X3633095Y-16899429D01*
X3633095Y-16899429D02*
X3623572Y-16861333D01*
X3623572Y-16861333D02*
X3623572Y-16813714D01*
X3623572Y-16813714D02*
X3633095Y-16775619D01*
X3633095Y-16775619D02*
X3642619Y-16756571D01*
X3642619Y-16756571D02*
X3652143Y-16747048D01*
X3652143Y-16747048D02*
X3671191Y-16737524D01*
X3918810Y-16737524D02*
X3823572Y-16737524D01*
X3823572Y-16737524D02*
X3814048Y-16832762D01*
X3814048Y-16832762D02*
X3823572Y-16823238D01*
X3823572Y-16823238D02*
X3842619Y-16813714D01*
X3842619Y-16813714D02*
X3890238Y-16813714D01*
X3890238Y-16813714D02*
X3909286Y-16823238D01*
X3909286Y-16823238D02*
X3918810Y-16832762D01*
X3918810Y-16832762D02*
X3928333Y-16851810D01*
X3928333Y-16851810D02*
X3928333Y-16899429D01*
X3928333Y-16899429D02*
X3918810Y-16918476D01*
X3918810Y-16918476D02*
X3909286Y-16928000D01*
X3909286Y-16928000D02*
X3890238Y-16937524D01*
X3890238Y-16937524D02*
X3842619Y-16937524D01*
X3842619Y-16937524D02*
X3823572Y-16928000D01*
X3823572Y-16928000D02*
X3814048Y-16918476D01*
X4109286Y-16737524D02*
X4014048Y-16737524D01*
X4014048Y-16737524D02*
X4004524Y-16832762D01*
X4004524Y-16832762D02*
X4014048Y-16823238D01*
X4014048Y-16823238D02*
X4033095Y-16813714D01*
X4033095Y-16813714D02*
X4080714Y-16813714D01*
X4080714Y-16813714D02*
X4099762Y-16823238D01*
X4099762Y-16823238D02*
X4109286Y-16832762D01*
X4109286Y-16832762D02*
X4118810Y-16851810D01*
X4118810Y-16851810D02*
X4118810Y-16899429D01*
X4118810Y-16899429D02*
X4109286Y-16918476D01*
X4109286Y-16918476D02*
X4099762Y-16928000D01*
X4099762Y-16928000D02*
X4080714Y-16937524D01*
X4080714Y-16937524D02*
X4033095Y-16937524D01*
X4033095Y-16937524D02*
X4014048Y-16928000D01*
X4014048Y-16928000D02*
X4004524Y-16918476D01*
X4242619Y-16737524D02*
X4261667Y-16737524D01*
X4261667Y-16737524D02*
X4280715Y-16747048D01*
X4280715Y-16747048D02*
X4290238Y-16756571D01*
X4290238Y-16756571D02*
X4299762Y-16775619D01*
X4299762Y-16775619D02*
X4309286Y-16813714D01*
X4309286Y-16813714D02*
X4309286Y-16861333D01*
X4309286Y-16861333D02*
X4299762Y-16899429D01*
X4299762Y-16899429D02*
X4290238Y-16918476D01*
X4290238Y-16918476D02*
X4280715Y-16928000D01*
X4280715Y-16928000D02*
X4261667Y-16937524D01*
X4261667Y-16937524D02*
X4242619Y-16937524D01*
X4242619Y-16937524D02*
X4223572Y-16928000D01*
X4223572Y-16928000D02*
X4214048Y-16918476D01*
X4214048Y-16918476D02*
X4204524Y-16899429D01*
X4204524Y-16899429D02*
X4195000Y-16861333D01*
X4195000Y-16861333D02*
X4195000Y-16813714D01*
X4195000Y-16813714D02*
X4204524Y-16775619D01*
X4204524Y-16775619D02*
X4214048Y-16756571D01*
X4214048Y-16756571D02*
X4223572Y-16747048D01*
X4223572Y-16747048D02*
X4242619Y-16737524D01*
X4385476Y-16737524D02*
X4385476Y-16775619D01*
X4461667Y-16737524D02*
X4461667Y-16775619D01*
X4756905Y-17013714D02*
X4747381Y-17004190D01*
X4747381Y-17004190D02*
X4728334Y-16975619D01*
X4728334Y-16975619D02*
X4718810Y-16956571D01*
X4718810Y-16956571D02*
X4709286Y-16928000D01*
X4709286Y-16928000D02*
X4699762Y-16880381D01*
X4699762Y-16880381D02*
X4699762Y-16842286D01*
X4699762Y-16842286D02*
X4709286Y-16794667D01*
X4709286Y-16794667D02*
X4718810Y-16766095D01*
X4718810Y-16766095D02*
X4728334Y-16747048D01*
X4728334Y-16747048D02*
X4747381Y-16718476D01*
X4747381Y-16718476D02*
X4756905Y-16708952D01*
X4918810Y-16804190D02*
X4918810Y-16937524D01*
X4871191Y-16728000D02*
X4823572Y-16870857D01*
X4823572Y-16870857D02*
X4947381Y-16870857D01*
X5175953Y-16937524D02*
X5175953Y-16737524D01*
X5261667Y-16937524D02*
X5261667Y-16832762D01*
X5261667Y-16832762D02*
X5252143Y-16813714D01*
X5252143Y-16813714D02*
X5233096Y-16804190D01*
X5233096Y-16804190D02*
X5204524Y-16804190D01*
X5204524Y-16804190D02*
X5185477Y-16813714D01*
X5185477Y-16813714D02*
X5175953Y-16823238D01*
X5385477Y-16937524D02*
X5366429Y-16928000D01*
X5366429Y-16928000D02*
X5356905Y-16918476D01*
X5356905Y-16918476D02*
X5347381Y-16899429D01*
X5347381Y-16899429D02*
X5347381Y-16842286D01*
X5347381Y-16842286D02*
X5356905Y-16823238D01*
X5356905Y-16823238D02*
X5366429Y-16813714D01*
X5366429Y-16813714D02*
X5385477Y-16804190D01*
X5385477Y-16804190D02*
X5414048Y-16804190D01*
X5414048Y-16804190D02*
X5433096Y-16813714D01*
X5433096Y-16813714D02*
X5442619Y-16823238D01*
X5442619Y-16823238D02*
X5452143Y-16842286D01*
X5452143Y-16842286D02*
X5452143Y-16899429D01*
X5452143Y-16899429D02*
X5442619Y-16918476D01*
X5442619Y-16918476D02*
X5433096Y-16928000D01*
X5433096Y-16928000D02*
X5414048Y-16937524D01*
X5414048Y-16937524D02*
X5385477Y-16937524D01*
X5566429Y-16937524D02*
X5547381Y-16928000D01*
X5547381Y-16928000D02*
X5537858Y-16908952D01*
X5537858Y-16908952D02*
X5537858Y-16737524D01*
X5718810Y-16928000D02*
X5699762Y-16937524D01*
X5699762Y-16937524D02*
X5661667Y-16937524D01*
X5661667Y-16937524D02*
X5642619Y-16928000D01*
X5642619Y-16928000D02*
X5633096Y-16908952D01*
X5633096Y-16908952D02*
X5633096Y-16832762D01*
X5633096Y-16832762D02*
X5642619Y-16813714D01*
X5642619Y-16813714D02*
X5661667Y-16804190D01*
X5661667Y-16804190D02*
X5699762Y-16804190D01*
X5699762Y-16804190D02*
X5718810Y-16813714D01*
X5718810Y-16813714D02*
X5728334Y-16832762D01*
X5728334Y-16832762D02*
X5728334Y-16851810D01*
X5728334Y-16851810D02*
X5633096Y-16870857D01*
X5804524Y-16928000D02*
X5823572Y-16937524D01*
X5823572Y-16937524D02*
X5861667Y-16937524D01*
X5861667Y-16937524D02*
X5880715Y-16928000D01*
X5880715Y-16928000D02*
X5890238Y-16908952D01*
X5890238Y-16908952D02*
X5890238Y-16899429D01*
X5890238Y-16899429D02*
X5880715Y-16880381D01*
X5880715Y-16880381D02*
X5861667Y-16870857D01*
X5861667Y-16870857D02*
X5833096Y-16870857D01*
X5833096Y-16870857D02*
X5814048Y-16861333D01*
X5814048Y-16861333D02*
X5804524Y-16842286D01*
X5804524Y-16842286D02*
X5804524Y-16832762D01*
X5804524Y-16832762D02*
X5814048Y-16813714D01*
X5814048Y-16813714D02*
X5833096Y-16804190D01*
X5833096Y-16804190D02*
X5861667Y-16804190D01*
X5861667Y-16804190D02*
X5880715Y-16813714D01*
X5956905Y-17013714D02*
X5966429Y-17004190D01*
X5966429Y-17004190D02*
X5985477Y-16975619D01*
X5985477Y-16975619D02*
X5995000Y-16956571D01*
X5995000Y-16956571D02*
X6004524Y-16928000D01*
X6004524Y-16928000D02*
X6014048Y-16880381D01*
X6014048Y-16880381D02*
X6014048Y-16842286D01*
X6014048Y-16842286D02*
X6004524Y-16794667D01*
X6004524Y-16794667D02*
X5995000Y-16766095D01*
X5995000Y-16766095D02*
X5985477Y-16747048D01*
X5985477Y-16747048D02*
X5966429Y-16718476D01*
X5966429Y-16718476D02*
X5956905Y-16708952D01*
X6318810Y-17013714D02*
X6309286Y-17004190D01*
X6309286Y-17004190D02*
X6290238Y-16975619D01*
X6290238Y-16975619D02*
X6280715Y-16956571D01*
X6280715Y-16956571D02*
X6271191Y-16928000D01*
X6271191Y-16928000D02*
X6261667Y-16880381D01*
X6261667Y-16880381D02*
X6261667Y-16842286D01*
X6261667Y-16842286D02*
X6271191Y-16794667D01*
X6271191Y-16794667D02*
X6280715Y-16766095D01*
X6280715Y-16766095D02*
X6290238Y-16747048D01*
X6290238Y-16747048D02*
X6309286Y-16718476D01*
X6309286Y-16718476D02*
X6318810Y-16708952D01*
X6395000Y-16804190D02*
X6395000Y-16937524D01*
X6395000Y-16823238D02*
X6404524Y-16813714D01*
X6404524Y-16813714D02*
X6423572Y-16804190D01*
X6423572Y-16804190D02*
X6452143Y-16804190D01*
X6452143Y-16804190D02*
X6471191Y-16813714D01*
X6471191Y-16813714D02*
X6480715Y-16832762D01*
X6480715Y-16832762D02*
X6480715Y-16937524D01*
X6604524Y-16937524D02*
X6585477Y-16928000D01*
X6585477Y-16928000D02*
X6575953Y-16918476D01*
X6575953Y-16918476D02*
X6566429Y-16899429D01*
X6566429Y-16899429D02*
X6566429Y-16842286D01*
X6566429Y-16842286D02*
X6575953Y-16823238D01*
X6575953Y-16823238D02*
X6585477Y-16813714D01*
X6585477Y-16813714D02*
X6604524Y-16804190D01*
X6604524Y-16804190D02*
X6633096Y-16804190D01*
X6633096Y-16804190D02*
X6652143Y-16813714D01*
X6652143Y-16813714D02*
X6661667Y-16823238D01*
X6661667Y-16823238D02*
X6671191Y-16842286D01*
X6671191Y-16842286D02*
X6671191Y-16899429D01*
X6671191Y-16899429D02*
X6661667Y-16918476D01*
X6661667Y-16918476D02*
X6652143Y-16928000D01*
X6652143Y-16928000D02*
X6633096Y-16937524D01*
X6633096Y-16937524D02*
X6604524Y-16937524D01*
X6728334Y-16804190D02*
X6804524Y-16804190D01*
X6756905Y-16737524D02*
X6756905Y-16908952D01*
X6756905Y-16908952D02*
X6766429Y-16928000D01*
X6766429Y-16928000D02*
X6785477Y-16937524D01*
X6785477Y-16937524D02*
X6804524Y-16937524D01*
X7023572Y-16804190D02*
X7023572Y-17004190D01*
X7023572Y-16813714D02*
X7042619Y-16804190D01*
X7042619Y-16804190D02*
X7080715Y-16804190D01*
X7080715Y-16804190D02*
X7099762Y-16813714D01*
X7099762Y-16813714D02*
X7109286Y-16823238D01*
X7109286Y-16823238D02*
X7118810Y-16842286D01*
X7118810Y-16842286D02*
X7118810Y-16899429D01*
X7118810Y-16899429D02*
X7109286Y-16918476D01*
X7109286Y-16918476D02*
X7099762Y-16928000D01*
X7099762Y-16928000D02*
X7080715Y-16937524D01*
X7080715Y-16937524D02*
X7042619Y-16937524D01*
X7042619Y-16937524D02*
X7023572Y-16928000D01*
X7233096Y-16937524D02*
X7214048Y-16928000D01*
X7214048Y-16928000D02*
X7204524Y-16908952D01*
X7204524Y-16908952D02*
X7204524Y-16737524D01*
X7395000Y-16937524D02*
X7395000Y-16832762D01*
X7395000Y-16832762D02*
X7385477Y-16813714D01*
X7385477Y-16813714D02*
X7366429Y-16804190D01*
X7366429Y-16804190D02*
X7328334Y-16804190D01*
X7328334Y-16804190D02*
X7309286Y-16813714D01*
X7395000Y-16928000D02*
X7375953Y-16937524D01*
X7375953Y-16937524D02*
X7328334Y-16937524D01*
X7328334Y-16937524D02*
X7309286Y-16928000D01*
X7309286Y-16928000D02*
X7299762Y-16908952D01*
X7299762Y-16908952D02*
X7299762Y-16889905D01*
X7299762Y-16889905D02*
X7309286Y-16870857D01*
X7309286Y-16870857D02*
X7328334Y-16861333D01*
X7328334Y-16861333D02*
X7375953Y-16861333D01*
X7375953Y-16861333D02*
X7395000Y-16851810D01*
X7461667Y-16804190D02*
X7537858Y-16804190D01*
X7490239Y-16737524D02*
X7490239Y-16908952D01*
X7490239Y-16908952D02*
X7499762Y-16928000D01*
X7499762Y-16928000D02*
X7518810Y-16937524D01*
X7518810Y-16937524D02*
X7537858Y-16937524D01*
X7680715Y-16928000D02*
X7661667Y-16937524D01*
X7661667Y-16937524D02*
X7623572Y-16937524D01*
X7623572Y-16937524D02*
X7604524Y-16928000D01*
X7604524Y-16928000D02*
X7595000Y-16908952D01*
X7595000Y-16908952D02*
X7595000Y-16832762D01*
X7595000Y-16832762D02*
X7604524Y-16813714D01*
X7604524Y-16813714D02*
X7623572Y-16804190D01*
X7623572Y-16804190D02*
X7661667Y-16804190D01*
X7661667Y-16804190D02*
X7680715Y-16813714D01*
X7680715Y-16813714D02*
X7690239Y-16832762D01*
X7690239Y-16832762D02*
X7690239Y-16851810D01*
X7690239Y-16851810D02*
X7595000Y-16870857D01*
X7861667Y-16937524D02*
X7861667Y-16737524D01*
X7861667Y-16928000D02*
X7842620Y-16937524D01*
X7842620Y-16937524D02*
X7804524Y-16937524D01*
X7804524Y-16937524D02*
X7785477Y-16928000D01*
X7785477Y-16928000D02*
X7775953Y-16918476D01*
X7775953Y-16918476D02*
X7766429Y-16899429D01*
X7766429Y-16899429D02*
X7766429Y-16842286D01*
X7766429Y-16842286D02*
X7775953Y-16823238D01*
X7775953Y-16823238D02*
X7785477Y-16813714D01*
X7785477Y-16813714D02*
X7804524Y-16804190D01*
X7804524Y-16804190D02*
X7842620Y-16804190D01*
X7842620Y-16804190D02*
X7861667Y-16813714D01*
X7937858Y-17013714D02*
X7947381Y-17004190D01*
X7947381Y-17004190D02*
X7966429Y-16975619D01*
X7966429Y-16975619D02*
X7975953Y-16956571D01*
X7975953Y-16956571D02*
X7985477Y-16928000D01*
X7985477Y-16928000D02*
X7995000Y-16880381D01*
X7995000Y-16880381D02*
X7995000Y-16842286D01*
X7995000Y-16842286D02*
X7985477Y-16794667D01*
X7985477Y-16794667D02*
X7975953Y-16766095D01*
X7975953Y-16766095D02*
X7966429Y-16747048D01*
X7966429Y-16747048D02*
X7947381Y-16718476D01*
X7947381Y-16718476D02*
X7937858Y-16708952D01*
X1195000Y-17109000D02*
G75*
G03*
X1195000Y-17109000I-100000J0D01*
G01*
X1433095Y-17020571D02*
X1442619Y-17011048D01*
X1442619Y-17011048D02*
X1461667Y-17001524D01*
X1461667Y-17001524D02*
X1509286Y-17001524D01*
X1509286Y-17001524D02*
X1528333Y-17011048D01*
X1528333Y-17011048D02*
X1537857Y-17020571D01*
X1537857Y-17020571D02*
X1547381Y-17039619D01*
X1547381Y-17039619D02*
X1547381Y-17058667D01*
X1547381Y-17058667D02*
X1537857Y-17087238D01*
X1537857Y-17087238D02*
X1423571Y-17201524D01*
X1423571Y-17201524D02*
X1547381Y-17201524D01*
X1633095Y-17182476D02*
X1642619Y-17192000D01*
X1642619Y-17192000D02*
X1633095Y-17201524D01*
X1633095Y-17201524D02*
X1623571Y-17192000D01*
X1623571Y-17192000D02*
X1633095Y-17182476D01*
X1633095Y-17182476D02*
X1633095Y-17201524D01*
X1718809Y-17020571D02*
X1728333Y-17011048D01*
X1728333Y-17011048D02*
X1747381Y-17001524D01*
X1747381Y-17001524D02*
X1795000Y-17001524D01*
X1795000Y-17001524D02*
X1814048Y-17011048D01*
X1814048Y-17011048D02*
X1823571Y-17020571D01*
X1823571Y-17020571D02*
X1833095Y-17039619D01*
X1833095Y-17039619D02*
X1833095Y-17058667D01*
X1833095Y-17058667D02*
X1823571Y-17087238D01*
X1823571Y-17087238D02*
X1709286Y-17201524D01*
X1709286Y-17201524D02*
X1833095Y-17201524D01*
X1956905Y-17001524D02*
X1975952Y-17001524D01*
X1975952Y-17001524D02*
X1995000Y-17011048D01*
X1995000Y-17011048D02*
X2004524Y-17020571D01*
X2004524Y-17020571D02*
X2014048Y-17039619D01*
X2014048Y-17039619D02*
X2023571Y-17077714D01*
X2023571Y-17077714D02*
X2023571Y-17125333D01*
X2023571Y-17125333D02*
X2014048Y-17163429D01*
X2014048Y-17163429D02*
X2004524Y-17182476D01*
X2004524Y-17182476D02*
X1995000Y-17192000D01*
X1995000Y-17192000D02*
X1975952Y-17201524D01*
X1975952Y-17201524D02*
X1956905Y-17201524D01*
X1956905Y-17201524D02*
X1937857Y-17192000D01*
X1937857Y-17192000D02*
X1928333Y-17182476D01*
X1928333Y-17182476D02*
X1918809Y-17163429D01*
X1918809Y-17163429D02*
X1909286Y-17125333D01*
X1909286Y-17125333D02*
X1909286Y-17077714D01*
X1909286Y-17077714D02*
X1918809Y-17039619D01*
X1918809Y-17039619D02*
X1928333Y-17020571D01*
X1928333Y-17020571D02*
X1937857Y-17011048D01*
X1937857Y-17011048D02*
X1956905Y-17001524D01*
X2147381Y-17001524D02*
X2166429Y-17001524D01*
X2166429Y-17001524D02*
X2185476Y-17011048D01*
X2185476Y-17011048D02*
X2195000Y-17020571D01*
X2195000Y-17020571D02*
X2204524Y-17039619D01*
X2204524Y-17039619D02*
X2214048Y-17077714D01*
X2214048Y-17077714D02*
X2214048Y-17125333D01*
X2214048Y-17125333D02*
X2204524Y-17163429D01*
X2204524Y-17163429D02*
X2195000Y-17182476D01*
X2195000Y-17182476D02*
X2185476Y-17192000D01*
X2185476Y-17192000D02*
X2166429Y-17201524D01*
X2166429Y-17201524D02*
X2147381Y-17201524D01*
X2147381Y-17201524D02*
X2128333Y-17192000D01*
X2128333Y-17192000D02*
X2118810Y-17182476D01*
X2118810Y-17182476D02*
X2109286Y-17163429D01*
X2109286Y-17163429D02*
X2099762Y-17125333D01*
X2099762Y-17125333D02*
X2099762Y-17077714D01*
X2099762Y-17077714D02*
X2109286Y-17039619D01*
X2109286Y-17039619D02*
X2118810Y-17020571D01*
X2118810Y-17020571D02*
X2128333Y-17011048D01*
X2128333Y-17011048D02*
X2147381Y-17001524D01*
X2299762Y-17201524D02*
X2299762Y-17068190D01*
X2299762Y-17087238D02*
X2309286Y-17077714D01*
X2309286Y-17077714D02*
X2328333Y-17068190D01*
X2328333Y-17068190D02*
X2356905Y-17068190D01*
X2356905Y-17068190D02*
X2375952Y-17077714D01*
X2375952Y-17077714D02*
X2385476Y-17096762D01*
X2385476Y-17096762D02*
X2385476Y-17201524D01*
X2385476Y-17096762D02*
X2395000Y-17077714D01*
X2395000Y-17077714D02*
X2414048Y-17068190D01*
X2414048Y-17068190D02*
X2442619Y-17068190D01*
X2442619Y-17068190D02*
X2461667Y-17077714D01*
X2461667Y-17077714D02*
X2471191Y-17096762D01*
X2471191Y-17096762D02*
X2471191Y-17201524D01*
X2566429Y-17201524D02*
X2566429Y-17068190D01*
X2566429Y-17087238D02*
X2575952Y-17077714D01*
X2575952Y-17077714D02*
X2595000Y-17068190D01*
X2595000Y-17068190D02*
X2623572Y-17068190D01*
X2623572Y-17068190D02*
X2642619Y-17077714D01*
X2642619Y-17077714D02*
X2652143Y-17096762D01*
X2652143Y-17096762D02*
X2652143Y-17201524D01*
X2652143Y-17096762D02*
X2661667Y-17077714D01*
X2661667Y-17077714D02*
X2680714Y-17068190D01*
X2680714Y-17068190D02*
X2709286Y-17068190D01*
X2709286Y-17068190D02*
X2728333Y-17077714D01*
X2728333Y-17077714D02*
X2737857Y-17096762D01*
X2737857Y-17096762D02*
X2737857Y-17201524D01*
X3128333Y-16992000D02*
X2956905Y-17249143D01*
X3385476Y-17001524D02*
X3404524Y-17001524D01*
X3404524Y-17001524D02*
X3423572Y-17011048D01*
X3423572Y-17011048D02*
X3433095Y-17020571D01*
X3433095Y-17020571D02*
X3442619Y-17039619D01*
X3442619Y-17039619D02*
X3452143Y-17077714D01*
X3452143Y-17077714D02*
X3452143Y-17125333D01*
X3452143Y-17125333D02*
X3442619Y-17163429D01*
X3442619Y-17163429D02*
X3433095Y-17182476D01*
X3433095Y-17182476D02*
X3423572Y-17192000D01*
X3423572Y-17192000D02*
X3404524Y-17201524D01*
X3404524Y-17201524D02*
X3385476Y-17201524D01*
X3385476Y-17201524D02*
X3366429Y-17192000D01*
X3366429Y-17192000D02*
X3356905Y-17182476D01*
X3356905Y-17182476D02*
X3347381Y-17163429D01*
X3347381Y-17163429D02*
X3337857Y-17125333D01*
X3337857Y-17125333D02*
X3337857Y-17077714D01*
X3337857Y-17077714D02*
X3347381Y-17039619D01*
X3347381Y-17039619D02*
X3356905Y-17020571D01*
X3356905Y-17020571D02*
X3366429Y-17011048D01*
X3366429Y-17011048D02*
X3385476Y-17001524D01*
X3537857Y-17182476D02*
X3547381Y-17192000D01*
X3547381Y-17192000D02*
X3537857Y-17201524D01*
X3537857Y-17201524D02*
X3528333Y-17192000D01*
X3528333Y-17192000D02*
X3537857Y-17182476D01*
X3537857Y-17182476D02*
X3537857Y-17201524D01*
X3671191Y-17001524D02*
X3690238Y-17001524D01*
X3690238Y-17001524D02*
X3709286Y-17011048D01*
X3709286Y-17011048D02*
X3718810Y-17020571D01*
X3718810Y-17020571D02*
X3728333Y-17039619D01*
X3728333Y-17039619D02*
X3737857Y-17077714D01*
X3737857Y-17077714D02*
X3737857Y-17125333D01*
X3737857Y-17125333D02*
X3728333Y-17163429D01*
X3728333Y-17163429D02*
X3718810Y-17182476D01*
X3718810Y-17182476D02*
X3709286Y-17192000D01*
X3709286Y-17192000D02*
X3690238Y-17201524D01*
X3690238Y-17201524D02*
X3671191Y-17201524D01*
X3671191Y-17201524D02*
X3652143Y-17192000D01*
X3652143Y-17192000D02*
X3642619Y-17182476D01*
X3642619Y-17182476D02*
X3633095Y-17163429D01*
X3633095Y-17163429D02*
X3623572Y-17125333D01*
X3623572Y-17125333D02*
X3623572Y-17077714D01*
X3623572Y-17077714D02*
X3633095Y-17039619D01*
X3633095Y-17039619D02*
X3642619Y-17020571D01*
X3642619Y-17020571D02*
X3652143Y-17011048D01*
X3652143Y-17011048D02*
X3671191Y-17001524D01*
X3852143Y-17087238D02*
X3833095Y-17077714D01*
X3833095Y-17077714D02*
X3823572Y-17068190D01*
X3823572Y-17068190D02*
X3814048Y-17049143D01*
X3814048Y-17049143D02*
X3814048Y-17039619D01*
X3814048Y-17039619D02*
X3823572Y-17020571D01*
X3823572Y-17020571D02*
X3833095Y-17011048D01*
X3833095Y-17011048D02*
X3852143Y-17001524D01*
X3852143Y-17001524D02*
X3890238Y-17001524D01*
X3890238Y-17001524D02*
X3909286Y-17011048D01*
X3909286Y-17011048D02*
X3918810Y-17020571D01*
X3918810Y-17020571D02*
X3928333Y-17039619D01*
X3928333Y-17039619D02*
X3928333Y-17049143D01*
X3928333Y-17049143D02*
X3918810Y-17068190D01*
X3918810Y-17068190D02*
X3909286Y-17077714D01*
X3909286Y-17077714D02*
X3890238Y-17087238D01*
X3890238Y-17087238D02*
X3852143Y-17087238D01*
X3852143Y-17087238D02*
X3833095Y-17096762D01*
X3833095Y-17096762D02*
X3823572Y-17106286D01*
X3823572Y-17106286D02*
X3814048Y-17125333D01*
X3814048Y-17125333D02*
X3814048Y-17163429D01*
X3814048Y-17163429D02*
X3823572Y-17182476D01*
X3823572Y-17182476D02*
X3833095Y-17192000D01*
X3833095Y-17192000D02*
X3852143Y-17201524D01*
X3852143Y-17201524D02*
X3890238Y-17201524D01*
X3890238Y-17201524D02*
X3909286Y-17192000D01*
X3909286Y-17192000D02*
X3918810Y-17182476D01*
X3918810Y-17182476D02*
X3928333Y-17163429D01*
X3928333Y-17163429D02*
X3928333Y-17125333D01*
X3928333Y-17125333D02*
X3918810Y-17106286D01*
X3918810Y-17106286D02*
X3909286Y-17096762D01*
X3909286Y-17096762D02*
X3890238Y-17087238D01*
X4099762Y-17001524D02*
X4061667Y-17001524D01*
X4061667Y-17001524D02*
X4042619Y-17011048D01*
X4042619Y-17011048D02*
X4033095Y-17020571D01*
X4033095Y-17020571D02*
X4014048Y-17049143D01*
X4014048Y-17049143D02*
X4004524Y-17087238D01*
X4004524Y-17087238D02*
X4004524Y-17163429D01*
X4004524Y-17163429D02*
X4014048Y-17182476D01*
X4014048Y-17182476D02*
X4023572Y-17192000D01*
X4023572Y-17192000D02*
X4042619Y-17201524D01*
X4042619Y-17201524D02*
X4080714Y-17201524D01*
X4080714Y-17201524D02*
X4099762Y-17192000D01*
X4099762Y-17192000D02*
X4109286Y-17182476D01*
X4109286Y-17182476D02*
X4118810Y-17163429D01*
X4118810Y-17163429D02*
X4118810Y-17115810D01*
X4118810Y-17115810D02*
X4109286Y-17096762D01*
X4109286Y-17096762D02*
X4099762Y-17087238D01*
X4099762Y-17087238D02*
X4080714Y-17077714D01*
X4080714Y-17077714D02*
X4042619Y-17077714D01*
X4042619Y-17077714D02*
X4023572Y-17087238D01*
X4023572Y-17087238D02*
X4014048Y-17096762D01*
X4014048Y-17096762D02*
X4004524Y-17115810D01*
X4290238Y-17001524D02*
X4252143Y-17001524D01*
X4252143Y-17001524D02*
X4233095Y-17011048D01*
X4233095Y-17011048D02*
X4223572Y-17020571D01*
X4223572Y-17020571D02*
X4204524Y-17049143D01*
X4204524Y-17049143D02*
X4195000Y-17087238D01*
X4195000Y-17087238D02*
X4195000Y-17163429D01*
X4195000Y-17163429D02*
X4204524Y-17182476D01*
X4204524Y-17182476D02*
X4214048Y-17192000D01*
X4214048Y-17192000D02*
X4233095Y-17201524D01*
X4233095Y-17201524D02*
X4271191Y-17201524D01*
X4271191Y-17201524D02*
X4290238Y-17192000D01*
X4290238Y-17192000D02*
X4299762Y-17182476D01*
X4299762Y-17182476D02*
X4309286Y-17163429D01*
X4309286Y-17163429D02*
X4309286Y-17115810D01*
X4309286Y-17115810D02*
X4299762Y-17096762D01*
X4299762Y-17096762D02*
X4290238Y-17087238D01*
X4290238Y-17087238D02*
X4271191Y-17077714D01*
X4271191Y-17077714D02*
X4233095Y-17077714D01*
X4233095Y-17077714D02*
X4214048Y-17087238D01*
X4214048Y-17087238D02*
X4204524Y-17096762D01*
X4204524Y-17096762D02*
X4195000Y-17115810D01*
X4385476Y-17001524D02*
X4385476Y-17039619D01*
X4461667Y-17001524D02*
X4461667Y-17039619D01*
X4756905Y-17277714D02*
X4747381Y-17268190D01*
X4747381Y-17268190D02*
X4728334Y-17239619D01*
X4728334Y-17239619D02*
X4718810Y-17220571D01*
X4718810Y-17220571D02*
X4709286Y-17192000D01*
X4709286Y-17192000D02*
X4699762Y-17144381D01*
X4699762Y-17144381D02*
X4699762Y-17106286D01*
X4699762Y-17106286D02*
X4709286Y-17058667D01*
X4709286Y-17058667D02*
X4718810Y-17030095D01*
X4718810Y-17030095D02*
X4728334Y-17011048D01*
X4728334Y-17011048D02*
X4747381Y-16982476D01*
X4747381Y-16982476D02*
X4756905Y-16972952D01*
X4861667Y-17087238D02*
X4842619Y-17077714D01*
X4842619Y-17077714D02*
X4833096Y-17068190D01*
X4833096Y-17068190D02*
X4823572Y-17049143D01*
X4823572Y-17049143D02*
X4823572Y-17039619D01*
X4823572Y-17039619D02*
X4833096Y-17020571D01*
X4833096Y-17020571D02*
X4842619Y-17011048D01*
X4842619Y-17011048D02*
X4861667Y-17001524D01*
X4861667Y-17001524D02*
X4899762Y-17001524D01*
X4899762Y-17001524D02*
X4918810Y-17011048D01*
X4918810Y-17011048D02*
X4928334Y-17020571D01*
X4928334Y-17020571D02*
X4937857Y-17039619D01*
X4937857Y-17039619D02*
X4937857Y-17049143D01*
X4937857Y-17049143D02*
X4928334Y-17068190D01*
X4928334Y-17068190D02*
X4918810Y-17077714D01*
X4918810Y-17077714D02*
X4899762Y-17087238D01*
X4899762Y-17087238D02*
X4861667Y-17087238D01*
X4861667Y-17087238D02*
X4842619Y-17096762D01*
X4842619Y-17096762D02*
X4833096Y-17106286D01*
X4833096Y-17106286D02*
X4823572Y-17125333D01*
X4823572Y-17125333D02*
X4823572Y-17163429D01*
X4823572Y-17163429D02*
X4833096Y-17182476D01*
X4833096Y-17182476D02*
X4842619Y-17192000D01*
X4842619Y-17192000D02*
X4861667Y-17201524D01*
X4861667Y-17201524D02*
X4899762Y-17201524D01*
X4899762Y-17201524D02*
X4918810Y-17192000D01*
X4918810Y-17192000D02*
X4928334Y-17182476D01*
X4928334Y-17182476D02*
X4937857Y-17163429D01*
X4937857Y-17163429D02*
X4937857Y-17125333D01*
X4937857Y-17125333D02*
X4928334Y-17106286D01*
X4928334Y-17106286D02*
X4918810Y-17096762D01*
X4918810Y-17096762D02*
X4899762Y-17087238D01*
X5175953Y-17201524D02*
X5175953Y-17001524D01*
X5261667Y-17201524D02*
X5261667Y-17096762D01*
X5261667Y-17096762D02*
X5252143Y-17077714D01*
X5252143Y-17077714D02*
X5233096Y-17068190D01*
X5233096Y-17068190D02*
X5204524Y-17068190D01*
X5204524Y-17068190D02*
X5185477Y-17077714D01*
X5185477Y-17077714D02*
X5175953Y-17087238D01*
X5385477Y-17201524D02*
X5366429Y-17192000D01*
X5366429Y-17192000D02*
X5356905Y-17182476D01*
X5356905Y-17182476D02*
X5347381Y-17163429D01*
X5347381Y-17163429D02*
X5347381Y-17106286D01*
X5347381Y-17106286D02*
X5356905Y-17087238D01*
X5356905Y-17087238D02*
X5366429Y-17077714D01*
X5366429Y-17077714D02*
X5385477Y-17068190D01*
X5385477Y-17068190D02*
X5414048Y-17068190D01*
X5414048Y-17068190D02*
X5433096Y-17077714D01*
X5433096Y-17077714D02*
X5442619Y-17087238D01*
X5442619Y-17087238D02*
X5452143Y-17106286D01*
X5452143Y-17106286D02*
X5452143Y-17163429D01*
X5452143Y-17163429D02*
X5442619Y-17182476D01*
X5442619Y-17182476D02*
X5433096Y-17192000D01*
X5433096Y-17192000D02*
X5414048Y-17201524D01*
X5414048Y-17201524D02*
X5385477Y-17201524D01*
X5566429Y-17201524D02*
X5547381Y-17192000D01*
X5547381Y-17192000D02*
X5537858Y-17172952D01*
X5537858Y-17172952D02*
X5537858Y-17001524D01*
X5718810Y-17192000D02*
X5699762Y-17201524D01*
X5699762Y-17201524D02*
X5661667Y-17201524D01*
X5661667Y-17201524D02*
X5642619Y-17192000D01*
X5642619Y-17192000D02*
X5633096Y-17172952D01*
X5633096Y-17172952D02*
X5633096Y-17096762D01*
X5633096Y-17096762D02*
X5642619Y-17077714D01*
X5642619Y-17077714D02*
X5661667Y-17068190D01*
X5661667Y-17068190D02*
X5699762Y-17068190D01*
X5699762Y-17068190D02*
X5718810Y-17077714D01*
X5718810Y-17077714D02*
X5728334Y-17096762D01*
X5728334Y-17096762D02*
X5728334Y-17115810D01*
X5728334Y-17115810D02*
X5633096Y-17134857D01*
X5804524Y-17192000D02*
X5823572Y-17201524D01*
X5823572Y-17201524D02*
X5861667Y-17201524D01*
X5861667Y-17201524D02*
X5880715Y-17192000D01*
X5880715Y-17192000D02*
X5890238Y-17172952D01*
X5890238Y-17172952D02*
X5890238Y-17163429D01*
X5890238Y-17163429D02*
X5880715Y-17144381D01*
X5880715Y-17144381D02*
X5861667Y-17134857D01*
X5861667Y-17134857D02*
X5833096Y-17134857D01*
X5833096Y-17134857D02*
X5814048Y-17125333D01*
X5814048Y-17125333D02*
X5804524Y-17106286D01*
X5804524Y-17106286D02*
X5804524Y-17096762D01*
X5804524Y-17096762D02*
X5814048Y-17077714D01*
X5814048Y-17077714D02*
X5833096Y-17068190D01*
X5833096Y-17068190D02*
X5861667Y-17068190D01*
X5861667Y-17068190D02*
X5880715Y-17077714D01*
X5956905Y-17277714D02*
X5966429Y-17268190D01*
X5966429Y-17268190D02*
X5985477Y-17239619D01*
X5985477Y-17239619D02*
X5995000Y-17220571D01*
X5995000Y-17220571D02*
X6004524Y-17192000D01*
X6004524Y-17192000D02*
X6014048Y-17144381D01*
X6014048Y-17144381D02*
X6014048Y-17106286D01*
X6014048Y-17106286D02*
X6004524Y-17058667D01*
X6004524Y-17058667D02*
X5995000Y-17030095D01*
X5995000Y-17030095D02*
X5985477Y-17011048D01*
X5985477Y-17011048D02*
X5966429Y-16982476D01*
X5966429Y-16982476D02*
X5956905Y-16972952D01*
X6318810Y-17277714D02*
X6309286Y-17268190D01*
X6309286Y-17268190D02*
X6290238Y-17239619D01*
X6290238Y-17239619D02*
X6280715Y-17220571D01*
X6280715Y-17220571D02*
X6271191Y-17192000D01*
X6271191Y-17192000D02*
X6261667Y-17144381D01*
X6261667Y-17144381D02*
X6261667Y-17106286D01*
X6261667Y-17106286D02*
X6271191Y-17058667D01*
X6271191Y-17058667D02*
X6280715Y-17030095D01*
X6280715Y-17030095D02*
X6290238Y-17011048D01*
X6290238Y-17011048D02*
X6309286Y-16982476D01*
X6309286Y-16982476D02*
X6318810Y-16972952D01*
X6395000Y-17068190D02*
X6395000Y-17201524D01*
X6395000Y-17087238D02*
X6404524Y-17077714D01*
X6404524Y-17077714D02*
X6423572Y-17068190D01*
X6423572Y-17068190D02*
X6452143Y-17068190D01*
X6452143Y-17068190D02*
X6471191Y-17077714D01*
X6471191Y-17077714D02*
X6480715Y-17096762D01*
X6480715Y-17096762D02*
X6480715Y-17201524D01*
X6604524Y-17201524D02*
X6585477Y-17192000D01*
X6585477Y-17192000D02*
X6575953Y-17182476D01*
X6575953Y-17182476D02*
X6566429Y-17163429D01*
X6566429Y-17163429D02*
X6566429Y-17106286D01*
X6566429Y-17106286D02*
X6575953Y-17087238D01*
X6575953Y-17087238D02*
X6585477Y-17077714D01*
X6585477Y-17077714D02*
X6604524Y-17068190D01*
X6604524Y-17068190D02*
X6633096Y-17068190D01*
X6633096Y-17068190D02*
X6652143Y-17077714D01*
X6652143Y-17077714D02*
X6661667Y-17087238D01*
X6661667Y-17087238D02*
X6671191Y-17106286D01*
X6671191Y-17106286D02*
X6671191Y-17163429D01*
X6671191Y-17163429D02*
X6661667Y-17182476D01*
X6661667Y-17182476D02*
X6652143Y-17192000D01*
X6652143Y-17192000D02*
X6633096Y-17201524D01*
X6633096Y-17201524D02*
X6604524Y-17201524D01*
X6728334Y-17068190D02*
X6804524Y-17068190D01*
X6756905Y-17001524D02*
X6756905Y-17172952D01*
X6756905Y-17172952D02*
X6766429Y-17192000D01*
X6766429Y-17192000D02*
X6785477Y-17201524D01*
X6785477Y-17201524D02*
X6804524Y-17201524D01*
X7023572Y-17068190D02*
X7023572Y-17268190D01*
X7023572Y-17077714D02*
X7042619Y-17068190D01*
X7042619Y-17068190D02*
X7080715Y-17068190D01*
X7080715Y-17068190D02*
X7099762Y-17077714D01*
X7099762Y-17077714D02*
X7109286Y-17087238D01*
X7109286Y-17087238D02*
X7118810Y-17106286D01*
X7118810Y-17106286D02*
X7118810Y-17163429D01*
X7118810Y-17163429D02*
X7109286Y-17182476D01*
X7109286Y-17182476D02*
X7099762Y-17192000D01*
X7099762Y-17192000D02*
X7080715Y-17201524D01*
X7080715Y-17201524D02*
X7042619Y-17201524D01*
X7042619Y-17201524D02*
X7023572Y-17192000D01*
X7233096Y-17201524D02*
X7214048Y-17192000D01*
X7214048Y-17192000D02*
X7204524Y-17172952D01*
X7204524Y-17172952D02*
X7204524Y-17001524D01*
X7395000Y-17201524D02*
X7395000Y-17096762D01*
X7395000Y-17096762D02*
X7385477Y-17077714D01*
X7385477Y-17077714D02*
X7366429Y-17068190D01*
X7366429Y-17068190D02*
X7328334Y-17068190D01*
X7328334Y-17068190D02*
X7309286Y-17077714D01*
X7395000Y-17192000D02*
X7375953Y-17201524D01*
X7375953Y-17201524D02*
X7328334Y-17201524D01*
X7328334Y-17201524D02*
X7309286Y-17192000D01*
X7309286Y-17192000D02*
X7299762Y-17172952D01*
X7299762Y-17172952D02*
X7299762Y-17153905D01*
X7299762Y-17153905D02*
X7309286Y-17134857D01*
X7309286Y-17134857D02*
X7328334Y-17125333D01*
X7328334Y-17125333D02*
X7375953Y-17125333D01*
X7375953Y-17125333D02*
X7395000Y-17115810D01*
X7461667Y-17068190D02*
X7537858Y-17068190D01*
X7490239Y-17001524D02*
X7490239Y-17172952D01*
X7490239Y-17172952D02*
X7499762Y-17192000D01*
X7499762Y-17192000D02*
X7518810Y-17201524D01*
X7518810Y-17201524D02*
X7537858Y-17201524D01*
X7680715Y-17192000D02*
X7661667Y-17201524D01*
X7661667Y-17201524D02*
X7623572Y-17201524D01*
X7623572Y-17201524D02*
X7604524Y-17192000D01*
X7604524Y-17192000D02*
X7595000Y-17172952D01*
X7595000Y-17172952D02*
X7595000Y-17096762D01*
X7595000Y-17096762D02*
X7604524Y-17077714D01*
X7604524Y-17077714D02*
X7623572Y-17068190D01*
X7623572Y-17068190D02*
X7661667Y-17068190D01*
X7661667Y-17068190D02*
X7680715Y-17077714D01*
X7680715Y-17077714D02*
X7690239Y-17096762D01*
X7690239Y-17096762D02*
X7690239Y-17115810D01*
X7690239Y-17115810D02*
X7595000Y-17134857D01*
X7861667Y-17201524D02*
X7861667Y-17001524D01*
X7861667Y-17192000D02*
X7842620Y-17201524D01*
X7842620Y-17201524D02*
X7804524Y-17201524D01*
X7804524Y-17201524D02*
X7785477Y-17192000D01*
X7785477Y-17192000D02*
X7775953Y-17182476D01*
X7775953Y-17182476D02*
X7766429Y-17163429D01*
X7766429Y-17163429D02*
X7766429Y-17106286D01*
X7766429Y-17106286D02*
X7775953Y-17087238D01*
X7775953Y-17087238D02*
X7785477Y-17077714D01*
X7785477Y-17077714D02*
X7804524Y-17068190D01*
X7804524Y-17068190D02*
X7842620Y-17068190D01*
X7842620Y-17068190D02*
X7861667Y-17077714D01*
X7937858Y-17277714D02*
X7947381Y-17268190D01*
X7947381Y-17268190D02*
X7966429Y-17239619D01*
X7966429Y-17239619D02*
X7975953Y-17220571D01*
X7975953Y-17220571D02*
X7985477Y-17192000D01*
X7985477Y-17192000D02*
X7995000Y-17144381D01*
X7995000Y-17144381D02*
X7995000Y-17106286D01*
X7995000Y-17106286D02*
X7985477Y-17058667D01*
X7985477Y-17058667D02*
X7975953Y-17030095D01*
X7975953Y-17030095D02*
X7966429Y-17011048D01*
X7966429Y-17011048D02*
X7947381Y-16982476D01*
X7947381Y-16982476D02*
X7937858Y-16972952D01*
M02*
