M48
; DRILL file {KiCad 7.0.1} date Thu Apr 13 13:13:10 2023
; FORMAT={-:-/ absolute / inch / decimal}
; #@! TF.CreationDate,2023-04-13T13:13:10+09:00
; #@! TF.GenerationSoftware,Kicad,Pcbnew,7.0.1
; #@! TF.FileFunction,Plated,1,2,PTH
FMAT,2
INCH
; #@! TA.AperFunction,Plated,PTH,ViaDrill
T1C0.0118
; #@! TA.AperFunction,Plated,PTH,ComponentDrill
T2C0.0276
; #@! TA.AperFunction,Plated,PTH,ComponentDrill
T3C0.0295
; #@! TA.AperFunction,Plated,PTH,ComponentDrill
T4C0.0315
; #@! TA.AperFunction,Plated,PTH,ComponentDrill
T5C0.0394
; #@! TA.AperFunction,Plated,PTH,ComponentDrill
T6C0.0433
; #@! TA.AperFunction,Plated,PTH,ComponentDrill
T7C0.0550
; #@! TA.AperFunction,Plated,PTH,ComponentDrill
T8C0.0591
; #@! TA.AperFunction,Plated,PTH,ComponentDrill
T9C0.0787
%
G90
G05
T1
X0.5591Y-5.3566
X0.6063Y-5.1676
X0.622Y-2.4983
X0.7362Y-5.1676
X0.8858Y-1.4077
X0.8898Y-2.6558
X0.8933Y-3.2569
X0.8976Y-3.0573
X0.8976Y-5.3881
X0.9055Y-2.7849
X0.9055Y-3.1676
X0.9173Y-1.3605
X0.9685Y-2.7975
X1.0079Y-3.1203
X1.0116Y-5.2344
X1.0236Y-5.3014
X1.1181Y-1.3723
X1.1654Y-2.4904
X1.2598Y-1.3723
X1.3307Y-2.1125
X1.3386Y-3.2569
X1.3465Y-3.081
X1.3543Y-5.3723
X1.3622Y-3.1676
X1.4646Y-3.1203
X1.4777Y-5.2279
X1.4803Y-5.3014
X1.4873Y-2.0976
X1.5512Y-2.3339
X1.5788Y-1.1361
X1.5827Y-2.0967
X1.6142Y-1.1361
X1.6496Y-1.1361
X1.6535Y-2.3374
X1.685Y-1.1361
X1.7235Y-2.3339
X1.7717Y-1.1833
X1.811Y-3.0731
X1.811Y-3.2621
X1.8189Y-3.1676
X1.8189Y-5.3802
X1.8425Y-1.6873
X1.8425Y-1.8054
X1.9291Y-3.1282
X1.9307Y-5.2344
X1.937Y-5.3093
X1.9843Y-1.3802
X2.1654Y-2.0967
X2.2598Y-5.3644
X2.2677Y-3.2569
X2.2677Y-1.4983
X2.2756Y-3.1755
X2.2913Y-1.5455
X2.3465Y-1.577
X2.3718Y-5.3025
X2.3858Y-3.1282
X2.3903Y-5.2344
X2.6299Y-2.018
X2.6378Y-2.0573
X2.7087Y-3.1676
X2.7287Y-3.2541
X2.7323Y-5.3723
X2.8346Y-3.1282
X2.8425Y-5.3014
X2.8481Y-5.2362
X2.874Y-0.8605
X2.874Y-2.018
X2.9528Y-2.0573
X3.1811Y-3.1676
X3.1811Y-5.3644
X3.1839Y-3.2569
X3.2047Y-2.5377
X3.252Y-2.2227
X3.2913Y-2.1203
X3.2992Y-2.1597
X3.2992Y-3.1282
X3.3071Y-5.3093
X3.3094Y-5.2344
X3.4488Y-2.2148
X3.5984Y-2.5377
X3.6378Y-3.2569
X3.6378Y-5.3644
X3.6535Y-3.1676
X3.7638Y-3.1282
X3.769Y-5.2344
X3.7717Y-5.3014
X3.7795Y-1.9471
X3.9843Y-2.5377
X4.0996Y-3.2569
X4.1024Y-3.1833
X4.1024Y-5.3723
X4.2283Y-3.1282
X4.2285Y-5.2344
X4.2362Y-5.3014
X4.4724Y-2.5377
X4.5583Y-3.2569
X4.5669Y-3.1676
X4.5669Y-5.3723
X4.685Y-3.1203
X4.685Y-5.3093
X4.6881Y-5.2344
X4.9449Y-2.5377
X5.0157Y-5.3644
X5.0164Y-3.2569
X5.0315Y-3.1755
X5.0787Y-2.4747
X5.1417Y-3.1203
X5.1417Y-5.3093
X5.1496Y-5.2384
X5.1535Y-2.1873
X5.2047Y-1.5692
X5.2087Y-2.2087
X5.2126Y-1.5219
X5.2126Y-1.8211
X5.2756Y-1.8999
X5.2963Y-5.2333
X5.3071Y-2.2857
X5.3858Y-2.5377
X5.4016Y-2.3959
X5.4094Y-2.0101
X5.4104Y-1.5276
X5.4264Y-2.2371
X5.4331Y-2.5377
X5.437Y-2.2033
X5.4567Y-2.4077
X5.4614Y-1.9019
X5.4676Y-1.8585
X5.4724Y-5.1732
X5.4746Y-3.2569
X5.4803Y-5.3723
X5.4882Y-3.1676
X5.5079Y-2.3521
X5.5112Y-2.551
X5.5387Y-2.5785
X5.5472Y-1.5967
X5.5726Y-2.5888
X5.5827Y-1.8605
X5.5866Y-2.0945
X5.6047Y-5.2369
X5.6063Y-3.1282
X5.6063Y-5.3172
X5.6226Y-2.6133
X5.626Y-2.0945
X5.6575Y-2.6073
X5.6594Y-2.5669
X5.6614Y-2.9213
X5.6654Y-2.0945
X5.6988Y-2.5689
X5.7053Y-2.0955
X5.725Y-2.5376
X5.748Y-2.0945
X5.7625Y-2.5787
X5.7871Y-2.5366
X5.7874Y-2.0984
X5.8213Y-2.5271
X5.8268Y-2.0669
X5.8287Y-2.4567
X5.874Y-2.9213
X5.9006Y-3.3327
X5.9154Y-1.2894
X5.9291Y-3.2559
X5.9449Y-5.3644
X5.9518Y-0.8753
X5.9528Y-2.5465
X6.0157Y-1.0416
X6.0157Y-1.144
X6.0236Y-1.207
X6.0315Y-5.2982
X6.0335Y-1.4567
X6.0335Y-1.5157
X6.0335Y-4.1053
X6.0344Y-5.5965
X6.0354Y-1.7244
X6.0354Y-2.3189
X6.0354Y-2.6181
X6.0364Y-3.8081
X6.0374Y-5.003
X6.0374Y-5.8996
X6.0384Y-4.4075
X6.0394Y-1.0888
X6.0394Y-2.0236
X6.0394Y-4.6909
X6.0433Y-3.2126
X6.0433Y-2.9154
X6.0512Y-3.5118
X6.0787Y-1.0416
X6.0787Y-1.144
X6.0925Y-6.0827
X6.0925Y-6.1516
X6.1024Y-1.4567
X6.1024Y-1.5157
X6.1102Y-1.0888
X6.1181Y-1.1991
X6.1417Y-1.0416
X6.1575Y-1.144
X6.1614Y-1.5157
X6.1732Y-1.0888
X6.1969Y-1.207
X6.2047Y-1.0416
X6.2224Y-2.2717
X6.2224Y-2.565
X6.2244Y-1.6713
X6.2244Y-1.7736
X6.2244Y-1.9744
X6.2244Y-2.0669
X6.2244Y-2.3661
X6.2244Y-2.6634
X6.2244Y-2.8602
X6.2244Y-2.9646
X6.2244Y-3.1752
X6.2244Y-3.252
X6.2244Y-3.4724
X6.2244Y-3.5866
X6.2244Y-3.7323
X6.2244Y-3.8701
X6.2244Y-4.0197
X6.2244Y-4.1811
X6.2244Y-4.315
X6.2244Y-4.4843
X6.2244Y-4.626
X6.2244Y-4.7913
X6.2244Y-4.9213
X6.2244Y-5.0748
X6.2244Y-5.2244
X6.2244Y-5.3701
X6.2244Y-5.5197
X6.2244Y-5.6654
X6.2244Y-5.811
X6.2244Y-5.9724
X6.2283Y-1.144
X6.2486Y-0.8211
X6.2638Y-1.5157
X6.2992Y-1.4567
X6.2992Y-1.5157
X6.4567Y-1.2227
X6.4724Y-1.5157
X6.5217Y-1.6811
X6.5217Y-2.2717
X6.5217Y-2.565
X6.5217Y-3.8484
X6.5217Y-5.0433
X6.5217Y-5.9449
X6.5236Y-1.7736
X6.5236Y-1.9744
X6.5236Y-2.0669
X6.5236Y-2.3661
X6.5236Y-2.6634
X6.5236Y-2.8602
X6.5236Y-2.9646
X6.5236Y-3.1752
X6.5236Y-3.252
X6.5236Y-3.4724
X6.5236Y-3.5492
X6.5236Y-3.7677
X6.5236Y-4.0728
X6.5236Y-4.1476
X6.5236Y-4.3661
X6.5236Y-4.4469
X6.5236Y-4.6654
X6.5236Y-4.7441
X6.5236Y-4.9606
X6.5236Y-5.2618
X6.5236Y-5.3366
X6.5236Y-5.6358
X6.5256Y-5.5571
X6.5256Y-5.8563
X6.565Y-1.2402
X6.565Y-1.4075
X6.5748Y-1.5157
X6.6043Y-1.4469
X6.6043Y-1.5059
X6.6063Y-1.1046
X6.7618Y-6.0827
X6.7618Y-6.1516
X6.7677Y-1.5256
X6.8169Y-2.2697
X6.8169Y-2.563
X6.8169Y-3.8465
X6.8169Y-5.0413
X6.8189Y-1.7717
X6.8189Y-1.9724
X6.8189Y-2.065
X6.8189Y-2.3642
X6.8189Y-2.6614
X6.8189Y-2.8583
X6.8189Y-2.9626
X6.8189Y-3.1732
X6.8189Y-3.25
X6.8189Y-3.4705
X6.8189Y-3.5472
X6.8189Y-3.7657
X6.8189Y-4.0709
X6.8189Y-4.1457
X6.8189Y-4.3642
X6.8189Y-4.4449
X6.8189Y-4.6634
X6.8189Y-4.7421
X6.8189Y-4.9587
X6.8189Y-5.2598
X6.8189Y-5.3346
X6.8189Y-5.6339
X6.8209Y-1.6772
X6.8209Y-5.5551
X6.8209Y-5.8543
X6.8209Y-5.9429
X6.8307Y-1.2402
X6.8307Y-1.4075
X6.8701Y-1.5256
X6.9173Y-0.8211
X6.998Y-1.4469
X6.998Y-1.5157
X7.0728Y-1.5256
X7.1161Y-2.2697
X7.1161Y-2.563
X7.1161Y-3.8465
X7.1161Y-5.0413
X7.1181Y-1.6811
X7.1181Y-1.7717
X7.1181Y-1.9724
X7.1181Y-2.065
X7.1181Y-2.3642
X7.1181Y-2.6614
X7.1181Y-2.8583
X7.1181Y-2.9626
X7.1181Y-3.1732
X7.1181Y-3.25
X7.1181Y-3.4705
X7.1181Y-3.5472
X7.1181Y-3.7657
X7.1181Y-4.0709
X7.1181Y-4.1457
X7.1181Y-4.3642
X7.1181Y-4.4449
X7.1181Y-4.6634
X7.1181Y-4.7421
X7.1181Y-4.9587
X7.1181Y-5.2598
X7.1181Y-5.3346
X7.1181Y-5.6339
X7.1181Y-5.9429
X7.1201Y-5.5551
X7.1201Y-5.8543
X7.1457Y-1.25
X7.1457Y-1.4173
X7.1752Y-1.5256
X7.2047Y-1.437
X7.2047Y-1.5157
X7.3582Y-1.5157
X7.4154Y-2.2697
X7.4154Y-2.563
X7.4154Y-3.8465
X7.4154Y-5.0413
X7.4163Y-1.6781
X7.4163Y-5.9518
X7.4173Y-1.7717
X7.4173Y-1.9724
X7.4173Y-2.065
X7.4173Y-2.3642
X7.4173Y-2.6614
X7.4173Y-2.8583
X7.4173Y-2.9626
X7.4173Y-3.1732
X7.4173Y-3.25
X7.4173Y-3.4705
X7.4173Y-3.5472
X7.4173Y-3.7657
X7.4173Y-4.0709
X7.4173Y-4.1457
X7.4173Y-4.3642
X7.4173Y-4.4449
X7.4173Y-4.6634
X7.4173Y-4.7421
X7.4173Y-4.9587
X7.4173Y-5.2598
X7.4173Y-5.3346
X7.4173Y-5.6339
X7.4193Y-5.5551
X7.4193Y-5.8543
X7.4213Y-1.2303
X7.4213Y-1.3976
X7.4331Y-1.0573
X7.4606Y-1.5157
X7.5Y-1.4272
X7.5Y-1.5059
X7.5295Y-6.0827
X7.5295Y-6.1516
X7.6535Y-1.5256
X7.7146Y-1.6811
X7.7146Y-2.2697
X7.7146Y-2.563
X7.7146Y-3.8465
X7.7146Y-5.0413
X7.7146Y-5.9478
X7.7165Y-1.7717
X7.7165Y-1.9724
X7.7165Y-2.065
X7.7165Y-2.3642
X7.7165Y-2.6614
X7.7165Y-2.8583
X7.7165Y-2.9626
X7.7165Y-3.1732
X7.7165Y-3.25
X7.7165Y-3.4705
X7.7165Y-3.5472
X7.7165Y-3.7657
X7.7165Y-4.0709
X7.7165Y-4.1457
X7.7165Y-4.3642
X7.7165Y-4.4449
X7.7165Y-4.6634
X7.7165Y-4.7421
X7.7165Y-4.9587
X7.7165Y-5.2598
X7.7165Y-5.3346
X7.7165Y-5.6339
X7.7185Y-5.5551
X7.7185Y-5.8543
X7.7559Y-1.5256
X7.7854Y-1.4272
X7.7854Y-1.5157
T2
X0.8898Y-1.7731
X0.8898Y-2.0731
X1.4799Y-0.9471
X1.4799Y-1.0259
X1.4799Y-1.1133
X1.7799Y-0.9471
X1.7799Y-1.0259
X1.7799Y-1.1133
X2.7268Y-0.6715
X2.7268Y-0.9715
X2.7268Y-1.0966
X2.7268Y-1.3966
X3.3421Y-1.3566
X3.35Y-1.644
X3.6421Y-1.3566
X3.65Y-1.644
X4.2717Y-1.4428
X4.2717Y-1.7428
X4.3701Y-1.4428
X4.3701Y-1.7428
X4.4917Y-1.7148
X4.4917Y-1.8133
X4.7917Y-1.7148
X4.7917Y-1.8133
X6.1055Y-0.7503
X6.4055Y-0.7503
X6.5232Y-0.7503
X6.8232Y-0.7503
T3
X7.6791Y-0.6496
X7.6791Y-0.7283
X7.6791Y-1.063
X7.6791Y-1.1417
T4
X0.6003Y-2.7849
X0.8124Y-2.997
X1.0593Y-2.7849
X1.2465Y-2.2179
X1.2465Y-2.5179
X1.2715Y-2.997
X1.3465Y-2.2179
X1.3465Y-2.5179
X1.4465Y-2.2179
X1.4465Y-2.5179
X1.5183Y-2.7849
X1.5465Y-2.2179
X1.5465Y-2.5179
X1.6465Y-2.2179
X1.6465Y-2.5179
X1.7305Y-2.997
X1.7465Y-2.2179
X1.7465Y-2.5179
X1.8465Y-2.2179
X1.8465Y-2.5179
X1.9465Y-2.2179
X1.9465Y-2.5179
X1.9774Y-2.7849
X2.1008Y-2.2159
X2.1008Y-2.5159
X2.1895Y-2.997
X2.2008Y-2.2159
X2.2008Y-2.5159
X2.3008Y-2.2159
X2.3008Y-2.5159
X2.4008Y-2.2159
X2.4008Y-2.5159
X2.4364Y-2.7849
X2.5008Y-2.2159
X2.5008Y-2.5159
X2.6008Y-2.2159
X2.6008Y-2.5159
X2.6485Y-2.997
X2.7008Y-2.2159
X2.7008Y-2.5159
X2.8008Y-2.2159
X2.8008Y-2.5159
X2.8954Y-2.7849
X3.1075Y-2.997
X3.3441Y-1.5022
X3.3544Y-2.7849
X3.5666Y-2.997
X3.6441Y-1.5022
X3.7079Y-1.7727
X3.7079Y-1.8727
X3.7079Y-1.9727
X3.8134Y-2.7849
X4.0079Y-1.7727
X4.0079Y-1.8727
X4.0079Y-1.9727
X4.0256Y-2.997
X4.2725Y-2.7849
X4.4846Y-2.997
X4.7315Y-2.7849
X4.9436Y-2.997
X5.1905Y-2.7849
X5.315Y-1.2424
X5.315Y-1.4392
X5.4026Y-2.997
X5.4606Y-1.2424
X5.4606Y-1.4392
X5.6201Y-1.5256
X5.622Y-1.392
X5.6495Y-2.7849
X5.8169Y-1.5256
X5.8189Y-1.392
X5.8616Y-2.997
T5
X0.6157Y-0.6836
X0.6157Y-1.2836
X0.7157Y-0.6836
X0.7157Y-1.2836
X0.8157Y-0.6836
X0.8157Y-1.2836
X0.9157Y-0.6836
X0.9157Y-1.2836
X1.0157Y-0.6836
X1.0157Y-1.2836
X1.1157Y-0.6836
X1.1157Y-1.2836
X1.2157Y-0.6836
X1.2157Y-1.2836
X1.3157Y-0.6836
X1.3157Y-1.2836
X1.4157Y-0.6836
X1.4157Y-1.2836
X1.5157Y-0.6836
X1.5157Y-1.2836
X1.6157Y-0.6836
X1.6157Y-1.2836
X1.7157Y-0.6836
X1.7157Y-1.2836
X1.8157Y-0.6836
X1.8157Y-1.2836
X1.9157Y-0.6836
X1.9157Y-1.2836
X1.9528Y-1.5361
X1.9528Y-1.6361
X1.9528Y-1.7361
X1.9528Y-1.8361
X2.0157Y-0.6836
X2.0157Y-1.2836
X2.1157Y-0.6836
X2.1157Y-1.2836
X2.1461Y-1.6281
X2.1461Y-1.825
X2.2157Y-0.6836
X2.2157Y-1.2836
X2.3157Y-0.6836
X2.3157Y-1.2836
X2.4157Y-0.6836
X2.4157Y-1.2836
X2.5157Y-0.6836
X2.5157Y-1.2836
X2.7169Y-1.6281
X2.7169Y-1.7265
X2.7169Y-1.825
X4.6535Y-2.0613
X4.7535Y-2.0613
X4.8535Y-2.0613
X4.9535Y-2.0613
X5.0535Y-2.0613
X5.1535Y-2.0613
T6
X0.5811Y-4.4726
X0.5811Y-4.6498
X0.5811Y-4.8269
X0.5811Y-5.0041
X0.5823Y-3.4194
X0.5823Y-3.5966
X0.5883Y-4.1281
X0.5883Y-4.3053
X0.5929Y-5.5356
X0.5929Y-5.7127
X0.65Y-2.2187
X0.65Y-2.3958
X0.837Y-4.4726
X0.837Y-4.6498
X0.837Y-4.8269
X0.837Y-5.0041
X0.8382Y-3.4194
X0.8382Y-3.5966
X0.8442Y-4.1281
X0.8442Y-4.3053
X0.8488Y-5.5356
X0.8488Y-5.7127
X0.9059Y-2.2187
X0.9059Y-2.3958
X1.0421Y-3.4194
X1.0421Y-3.5966
X1.0426Y-4.4726
X1.0426Y-4.6498
X1.0426Y-4.8269
X1.0426Y-5.0041
X1.0482Y-4.1281
X1.0482Y-4.3053
X1.0528Y-5.5356
X1.0528Y-5.7127
X1.298Y-3.4194
X1.298Y-3.5966
X1.2985Y-4.4726
X1.2985Y-4.6498
X1.2985Y-4.8269
X1.2985Y-5.0041
X1.3041Y-4.1281
X1.3041Y-4.3053
X1.3087Y-5.5356
X1.3087Y-5.7127
X1.5018Y-3.4194
X1.5018Y-3.5966
X1.5041Y-4.4726
X1.5041Y-4.6498
X1.5042Y-4.8269
X1.5042Y-5.0041
X1.5081Y-4.1281
X1.5081Y-4.3053
X1.5127Y-5.5356
X1.5127Y-5.7127
X1.7577Y-3.4194
X1.7577Y-3.5966
X1.76Y-4.4726
X1.76Y-4.6498
X1.7601Y-4.8269
X1.7601Y-5.0041
X1.764Y-4.1281
X1.764Y-4.3053
X1.7686Y-5.5356
X1.7686Y-5.7127
X1.9615Y-3.4194
X1.9615Y-3.5966
X1.9657Y-4.4726
X1.9657Y-4.6498
X1.9657Y-4.8269
X1.9657Y-5.0041
X1.968Y-4.1281
X1.968Y-4.3053
X1.9726Y-5.5356
X1.9726Y-5.7127
X2.2175Y-3.4194
X2.2175Y-3.5966
X2.2216Y-4.4726
X2.2216Y-4.6498
X2.2216Y-4.8269
X2.2216Y-5.0041
X2.2239Y-4.1281
X2.2239Y-4.3053
X2.2285Y-5.5356
X2.2285Y-5.7127
X2.4213Y-3.4194
X2.4213Y-3.5966
X2.4272Y-4.4726
X2.4272Y-4.6498
X2.4272Y-4.8269
X2.4272Y-5.0041
X2.4279Y-4.1281
X2.4279Y-4.3053
X2.4326Y-5.5356
X2.4326Y-5.7127
X2.6772Y-3.4194
X2.6772Y-3.5966
X2.6831Y-4.4726
X2.6831Y-4.6498
X2.6831Y-4.8269
X2.6831Y-5.0041
X2.6838Y-4.1281
X2.6838Y-4.3053
X2.6885Y-5.5356
X2.6885Y-5.7127
X2.881Y-3.4194
X2.881Y-3.5966
X2.8878Y-4.1281
X2.8878Y-4.3053
X2.8887Y-4.4726
X2.8887Y-4.6498
X2.8887Y-4.8269
X2.8887Y-5.0041
X2.9004Y-5.5356
X2.9004Y-5.7127
X3.1369Y-3.4194
X3.1369Y-3.5966
X3.1437Y-4.1281
X3.1437Y-4.3053
X3.1446Y-4.4726
X3.1446Y-4.6498
X3.1446Y-4.8269
X3.1446Y-5.0041
X3.1563Y-5.5356
X3.1563Y-5.7127
X3.3477Y-4.1281
X3.3477Y-4.3053
X3.3486Y-3.4194
X3.3486Y-3.5966
X3.3502Y-4.4726
X3.3502Y-4.6498
X3.3503Y-4.8269
X3.3503Y-5.0041
X3.3603Y-5.5356
X3.3603Y-5.7127
X3.6037Y-4.1281
X3.6037Y-4.3053
X3.6045Y-3.4194
X3.6045Y-3.5966
X3.6061Y-4.4726
X3.6061Y-4.6498
X3.6062Y-4.8269
X3.6062Y-5.0041
X3.6162Y-5.5356
X3.6162Y-5.7127
X3.8026Y-3.4194
X3.8026Y-3.5966
X3.8077Y-4.1281
X3.8077Y-4.3053
X3.8118Y-4.4726
X3.8118Y-4.6498
X3.8118Y-4.8269
X3.8118Y-5.0041
X3.8144Y-5.5356
X3.8144Y-5.7127
X4.0585Y-3.4194
X4.0585Y-3.5966
X4.0636Y-4.1281
X4.0636Y-4.3053
X4.0677Y-4.4726
X4.0677Y-4.6498
X4.0677Y-4.8269
X4.0677Y-5.0041
X4.0703Y-5.5356
X4.0703Y-5.7127
X4.2623Y-3.4194
X4.2623Y-3.5966
X4.2676Y-4.1281
X4.2676Y-4.3053
X4.2733Y-4.4726
X4.2733Y-4.6498
X4.2733Y-4.8269
X4.2733Y-5.0041
X4.2743Y-5.5356
X4.2743Y-5.7127
X4.5182Y-3.4194
X4.5182Y-3.5966
X4.5235Y-4.1281
X4.5235Y-4.3053
X4.5292Y-4.4726
X4.5292Y-4.6498
X4.5292Y-4.8269
X4.5292Y-5.0041
X4.5302Y-5.5356
X4.5302Y-5.7127
X4.7221Y-3.4194
X4.7221Y-3.5966
X4.7275Y-4.1281
X4.7275Y-4.3053
X4.7342Y-5.5356
X4.7342Y-5.7127
X4.7348Y-4.4726
X4.7348Y-4.6498
X4.7348Y-4.8269
X4.7348Y-5.0041
X4.978Y-3.4194
X4.978Y-3.5966
X4.9834Y-4.1281
X4.9834Y-4.3053
X4.9901Y-5.5356
X4.9901Y-5.7127
X4.9907Y-4.4726
X4.9907Y-4.6498
X4.9907Y-4.8269
X4.9907Y-5.0041
X5.1818Y-3.4194
X5.1818Y-3.5966
X5.1874Y-4.1281
X5.1874Y-4.3053
X5.1941Y-5.5356
X5.1941Y-5.7127
X5.1963Y-4.4726
X5.1963Y-4.6498
X5.1963Y-4.8269
X5.1963Y-5.0041
X5.4377Y-3.4194
X5.4377Y-3.5966
X5.4433Y-4.1281
X5.4433Y-4.3053
X5.4501Y-5.5356
X5.4501Y-5.7127
X5.4523Y-4.4726
X5.4523Y-4.6498
X5.4523Y-4.8269
X5.4523Y-5.0041
X5.6415Y-3.4194
X5.6415Y-3.5966
X5.6473Y-4.1281
X5.6473Y-4.3053
X5.6541Y-5.5356
X5.6541Y-5.7127
X5.6579Y-4.4726
X5.6579Y-4.6498
X5.6579Y-4.8269
X5.6579Y-5.0041
X5.8974Y-3.4194
X5.8974Y-3.5966
X5.9032Y-4.1281
X5.9032Y-4.3053
X5.91Y-5.5356
X5.91Y-5.7127
X5.9138Y-4.4726
X5.9138Y-4.6498
X5.9138Y-4.8269
X5.9138Y-5.0041
T7
X3.0418Y-1.0276
X3.1403Y-1.1261
X3.337Y-1.0277
X3.5337Y-1.1261
X3.6322Y-1.0276
X3.908Y-1.0276
X4.0065Y-1.1261
X4.2032Y-1.0277
X4.3999Y-1.1261
X4.4984Y-1.0276
T9
X5.0394Y-0.7364
X5.0394Y-0.9765
X5.0394Y-1.1931
X5.1181Y-0.8309
X5.1181Y-1.0474
X5.7087Y-0.7324
X5.7087Y-0.9726
X5.7087Y-1.1891
X5.7874Y-0.8269
X5.7874Y-1.0435
T8
G00X2.4472Y-1.5061
M15
G01X2.3961Y-1.5061
M16
G05
G00X2.4472Y-1.947
M15
G01X2.3961Y-1.947
M16
G05
T0
M30
