%TF.GenerationSoftware,KiCad,Pcbnew,7.0.2*%
%TF.CreationDate,2023-04-18T17:14:37+09:00*%
%TF.ProjectId,autoharpie,6175746f-6861-4727-9069-652e6b696361,rev?*%
%TF.SameCoordinates,Original*%
%TF.FileFunction,Paste,Top*%
%TF.FilePolarity,Positive*%
%FSLAX46Y46*%
G04 Gerber Fmt 4.6, Leading zero omitted, Abs format (unit mm)*
G04 Created by KiCad (PCBNEW 7.0.2) date 2023-04-18 17:14:37*
%MOMM*%
%LPD*%
G01*
G04 APERTURE LIST*
G04 Aperture macros list*
%AMRoundRect*
0 Rectangle with rounded corners*
0 $1 Rounding radius*
0 $2 $3 $4 $5 $6 $7 $8 $9 X,Y pos of 4 corners*
0 Add a 4 corners polygon primitive as box body*
4,1,4,$2,$3,$4,$5,$6,$7,$8,$9,$2,$3,0*
0 Add four circle primitives for the rounded corners*
1,1,$1+$1,$2,$3*
1,1,$1+$1,$4,$5*
1,1,$1+$1,$6,$7*
1,1,$1+$1,$8,$9*
0 Add four rect primitives between the rounded corners*
20,1,$1+$1,$2,$3,$4,$5,0*
20,1,$1+$1,$4,$5,$6,$7,0*
20,1,$1+$1,$6,$7,$8,$9,0*
20,1,$1+$1,$8,$9,$2,$3,0*%
G04 Aperture macros list end*
%ADD10C,0.100000*%
%ADD11RoundRect,0.140000X-0.170000X0.140000X-0.170000X-0.140000X0.170000X-0.140000X0.170000X0.140000X0*%
%ADD12RoundRect,0.225000X-0.250000X0.225000X-0.250000X-0.225000X0.250000X-0.225000X0.250000X0.225000X0*%
%ADD13RoundRect,0.225000X-0.225000X-0.250000X0.225000X-0.250000X0.225000X0.250000X-0.225000X0.250000X0*%
%ADD14R,1.500000X0.900000*%
%ADD15RoundRect,0.140000X-0.140000X-0.170000X0.140000X-0.170000X0.140000X0.170000X-0.140000X0.170000X0*%
%ADD16RoundRect,0.140000X0.170000X-0.140000X0.170000X0.140000X-0.170000X0.140000X-0.170000X-0.140000X0*%
%ADD17RoundRect,0.225000X0.225000X0.250000X-0.225000X0.250000X-0.225000X-0.250000X0.225000X-0.250000X0*%
%ADD18RoundRect,0.250000X0.325000X0.650000X-0.325000X0.650000X-0.325000X-0.650000X0.325000X-0.650000X0*%
%ADD19R,0.858799X0.254800*%
%ADD20R,0.254800X0.858799*%
%ADD21RoundRect,0.250000X-0.250000X-0.475000X0.250000X-0.475000X0.250000X0.475000X-0.250000X0.475000X0*%
%ADD22RoundRect,0.250000X0.850000X0.350000X-0.850000X0.350000X-0.850000X-0.350000X0.850000X-0.350000X0*%
%ADD23RoundRect,0.250000X1.275000X1.125000X-1.275000X1.125000X-1.275000X-1.125000X1.275000X-1.125000X0*%
%ADD24R,0.300000X0.850000*%
%ADD25R,0.850000X0.300000*%
%ADD26R,3.200000X3.200000*%
%ADD27RoundRect,0.225000X0.250000X-0.225000X0.250000X0.225000X-0.250000X0.225000X-0.250000X-0.225000X0*%
%ADD28RoundRect,0.250000X-0.300000X-0.300000X0.300000X-0.300000X0.300000X0.300000X-0.300000X0.300000X0*%
%ADD29RoundRect,0.150000X0.512500X0.150000X-0.512500X0.150000X-0.512500X-0.150000X0.512500X-0.150000X0*%
%ADD30RoundRect,0.140000X0.140000X0.170000X-0.140000X0.170000X-0.140000X-0.170000X0.140000X-0.170000X0*%
G04 APERTURE END LIST*
%TO.C,U7*%
D10*
X143127599Y-60894001D02*
X141905199Y-60894001D01*
X141905199Y-59697001D01*
X143127599Y-59697001D01*
X143127599Y-60894001D01*
G36*
X143127599Y-60894001D02*
G01*
X141905199Y-60894001D01*
X141905199Y-59697001D01*
X143127599Y-59697001D01*
X143127599Y-60894001D01*
G37*
X144549999Y-60894001D02*
X143327599Y-60894001D01*
X143327599Y-59697001D01*
X144549999Y-59697001D01*
X144549999Y-60894001D01*
G36*
X144549999Y-60894001D02*
G01*
X143327599Y-60894001D01*
X143327599Y-59697001D01*
X144549999Y-59697001D01*
X144549999Y-60894001D01*
G37*
X145972399Y-60894001D02*
X144749999Y-60894001D01*
X144749999Y-59697001D01*
X145972399Y-59697001D01*
X145972399Y-60894001D01*
G36*
X145972399Y-60894001D02*
G01*
X144749999Y-60894001D01*
X144749999Y-59697001D01*
X145972399Y-59697001D01*
X145972399Y-60894001D01*
G37*
X147394799Y-60894001D02*
X146172399Y-60894001D01*
X146172399Y-59697001D01*
X147394799Y-59697001D01*
X147394799Y-60894001D01*
G36*
X147394799Y-60894001D02*
G01*
X146172399Y-60894001D01*
X146172399Y-59697001D01*
X147394799Y-59697001D01*
X147394799Y-60894001D01*
G37*
X143127599Y-59497001D02*
X141905199Y-59497001D01*
X141905199Y-58300001D01*
X143127599Y-58300001D01*
X143127599Y-59497001D01*
G36*
X143127599Y-59497001D02*
G01*
X141905199Y-59497001D01*
X141905199Y-58300001D01*
X143127599Y-58300001D01*
X143127599Y-59497001D01*
G37*
X144549999Y-59497001D02*
X143327599Y-59497001D01*
X143327599Y-58300001D01*
X144549999Y-58300001D01*
X144549999Y-59497001D01*
G36*
X144549999Y-59497001D02*
G01*
X143327599Y-59497001D01*
X143327599Y-58300001D01*
X144549999Y-58300001D01*
X144549999Y-59497001D01*
G37*
X145972399Y-59497001D02*
X144749999Y-59497001D01*
X144749999Y-58300001D01*
X145972399Y-58300001D01*
X145972399Y-59497001D01*
G36*
X145972399Y-59497001D02*
G01*
X144749999Y-59497001D01*
X144749999Y-58300001D01*
X145972399Y-58300001D01*
X145972399Y-59497001D01*
G37*
X147394799Y-59497001D02*
X146172399Y-59497001D01*
X146172399Y-58300001D01*
X147394799Y-58300001D01*
X147394799Y-59497001D01*
G36*
X147394799Y-59497001D02*
G01*
X146172399Y-59497001D01*
X146172399Y-58300001D01*
X147394799Y-58300001D01*
X147394799Y-59497001D01*
G37*
X143127599Y-58100001D02*
X141905199Y-58100001D01*
X141905199Y-56903001D01*
X143127599Y-56903001D01*
X143127599Y-58100001D01*
G36*
X143127599Y-58100001D02*
G01*
X141905199Y-58100001D01*
X141905199Y-56903001D01*
X143127599Y-56903001D01*
X143127599Y-58100001D01*
G37*
X144549999Y-58100001D02*
X143327599Y-58100001D01*
X143327599Y-56903001D01*
X144549999Y-56903001D01*
X144549999Y-58100001D01*
G36*
X144549999Y-58100001D02*
G01*
X143327599Y-58100001D01*
X143327599Y-56903001D01*
X144549999Y-56903001D01*
X144549999Y-58100001D01*
G37*
X145972399Y-58100001D02*
X144749999Y-58100001D01*
X144749999Y-56903001D01*
X145972399Y-56903001D01*
X145972399Y-58100001D01*
G36*
X145972399Y-58100001D02*
G01*
X144749999Y-58100001D01*
X144749999Y-56903001D01*
X145972399Y-56903001D01*
X145972399Y-58100001D01*
G37*
X147394799Y-58100001D02*
X146172399Y-58100001D01*
X146172399Y-56903001D01*
X147394799Y-56903001D01*
X147394799Y-58100001D01*
G36*
X147394799Y-58100001D02*
G01*
X146172399Y-58100001D01*
X146172399Y-56903001D01*
X147394799Y-56903001D01*
X147394799Y-58100001D01*
G37*
X143127599Y-56703001D02*
X141905199Y-56703001D01*
X141905199Y-55506001D01*
X143127599Y-55506001D01*
X143127599Y-56703001D01*
G36*
X143127599Y-56703001D02*
G01*
X141905199Y-56703001D01*
X141905199Y-55506001D01*
X143127599Y-55506001D01*
X143127599Y-56703001D01*
G37*
X144549999Y-56703001D02*
X143327599Y-56703001D01*
X143327599Y-55506001D01*
X144549999Y-55506001D01*
X144549999Y-56703001D01*
G36*
X144549999Y-56703001D02*
G01*
X143327599Y-56703001D01*
X143327599Y-55506001D01*
X144549999Y-55506001D01*
X144549999Y-56703001D01*
G37*
X145972399Y-56703001D02*
X144749999Y-56703001D01*
X144749999Y-55506001D01*
X145972399Y-55506001D01*
X145972399Y-56703001D01*
G36*
X145972399Y-56703001D02*
G01*
X144749999Y-56703001D01*
X144749999Y-55506001D01*
X145972399Y-55506001D01*
X145972399Y-56703001D01*
G37*
X147394799Y-56703001D02*
X146172399Y-56703001D01*
X146172399Y-55506001D01*
X147394799Y-55506001D01*
X147394799Y-56703001D01*
G36*
X147394799Y-56703001D02*
G01*
X146172399Y-56703001D01*
X146172399Y-55506001D01*
X147394799Y-55506001D01*
X147394799Y-56703001D01*
G37*
%TD*%
D11*
%TO.C,C37*%
X13500000Y-134270000D03*
X13500000Y-135230000D03*
%TD*%
D12*
%TO.C,C38*%
X130000000Y-37225000D03*
X130000000Y-38775000D03*
%TD*%
D13*
%TO.C,C45*%
X129225000Y-21800000D03*
X130775000Y-21800000D03*
%TD*%
D14*
%TO.C,D34*%
X62618180Y-132975000D03*
X62618180Y-136275000D03*
X67518180Y-136275000D03*
X67518180Y-132975000D03*
%TD*%
D15*
%TO.C,C2*%
X53040000Y-51500000D03*
X54000000Y-51500000D03*
%TD*%
D16*
%TO.C,C17*%
X58909089Y-81416600D03*
X58909089Y-80456600D03*
%TD*%
D17*
%TO.C,C49*%
X190175000Y-20400000D03*
X188625000Y-20400000D03*
%TD*%
D14*
%TO.C,D15*%
X20825000Y-82775000D03*
X20825000Y-79475000D03*
X15925000Y-79475000D03*
X15925000Y-82775000D03*
%TD*%
D11*
%TO.C,C36*%
X141200000Y-134176600D03*
X141200000Y-135136600D03*
%TD*%
D14*
%TO.C,D28*%
X132395450Y-132975000D03*
X132395450Y-136275000D03*
X137295450Y-136275000D03*
X137295450Y-132975000D03*
%TD*%
%TO.C,D38*%
X16100000Y-132975000D03*
X16100000Y-136275000D03*
X21000000Y-136275000D03*
X21000000Y-132975000D03*
%TD*%
D16*
%TO.C,C18*%
X70545452Y-81416600D03*
X70545452Y-80456600D03*
%TD*%
%TO.C,C20*%
X93818178Y-81416600D03*
X93818178Y-80456600D03*
%TD*%
D12*
%TO.C,C39*%
X124200000Y-32825000D03*
X124200000Y-34375000D03*
%TD*%
D14*
%TO.C,D29*%
X120765905Y-132975000D03*
X120765905Y-136275000D03*
X125665905Y-136275000D03*
X125665905Y-132975000D03*
%TD*%
D16*
%TO.C,C21*%
X105454541Y-81416600D03*
X105454541Y-80456600D03*
%TD*%
D11*
%TO.C,C33*%
X106181816Y-134176600D03*
X106181816Y-135136600D03*
%TD*%
%TO.C,C29*%
X59490908Y-134176600D03*
X59490908Y-135136600D03*
%TD*%
D13*
%TO.C,C10*%
X149175000Y-63800000D03*
X150725000Y-63800000D03*
%TD*%
D18*
%TO.C,C43*%
X135475000Y-19600000D03*
X132525000Y-19600000D03*
%TD*%
D13*
%TO.C,C44*%
X129225000Y-23400000D03*
X130775000Y-23400000D03*
%TD*%
%TO.C,C48*%
X132725000Y-33250000D03*
X134275000Y-33250000D03*
%TD*%
D11*
%TO.C,C32*%
X94509089Y-134176600D03*
X94509089Y-135136600D03*
%TD*%
D14*
%TO.C,D23*%
X114006816Y-82775000D03*
X114006816Y-79475000D03*
X109106816Y-79475000D03*
X109106816Y-82775000D03*
%TD*%
D16*
%TO.C,C23*%
X128727267Y-81416600D03*
X128727267Y-80456600D03*
%TD*%
D11*
%TO.C,C28*%
X47818181Y-134176600D03*
X47818181Y-135136600D03*
%TD*%
D19*
%TO.C,U7*%
X141223399Y-60950001D03*
X141223399Y-60450002D03*
X141223399Y-59950000D03*
X141223399Y-59450001D03*
X141223399Y-58950002D03*
X141223399Y-58450001D03*
X141223399Y-57950001D03*
X141223399Y-57450000D03*
X141223399Y-56950001D03*
X141223399Y-56450002D03*
X141223399Y-55950000D03*
X141223399Y-55450001D03*
D20*
X141899999Y-54773401D03*
X142399998Y-54773401D03*
X142900000Y-54773401D03*
X143399999Y-54773401D03*
X143899998Y-54773401D03*
X144399999Y-54773401D03*
X144899999Y-54773401D03*
X145400000Y-54773401D03*
X145899999Y-54773401D03*
X146399998Y-54773401D03*
X146900000Y-54773401D03*
X147399999Y-54773401D03*
D19*
X148076599Y-55450001D03*
X148076599Y-55950000D03*
X148076599Y-56450002D03*
X148076599Y-56950001D03*
X148076599Y-57450000D03*
X148076599Y-57950001D03*
X148076599Y-58450001D03*
X148076599Y-58950002D03*
X148076599Y-59450001D03*
X148076599Y-59950000D03*
X148076599Y-60450002D03*
X148076599Y-60950001D03*
D20*
X147399999Y-61626601D03*
X146900000Y-61626601D03*
X146399998Y-61626601D03*
X145899999Y-61626601D03*
X145400000Y-61626601D03*
X144899999Y-61626601D03*
X144399999Y-61626601D03*
X143899998Y-61626601D03*
X143399999Y-61626601D03*
X142900000Y-61626601D03*
X142399998Y-61626601D03*
X141899999Y-61626601D03*
%TD*%
D15*
%TO.C,C1*%
X31860000Y-53583800D03*
X32820000Y-53583800D03*
%TD*%
D14*
%TO.C,D19*%
X67415908Y-82775000D03*
X67415908Y-79475000D03*
X62515908Y-79475000D03*
X62515908Y-82775000D03*
%TD*%
D21*
%TO.C,C47*%
X132050000Y-37000000D03*
X133950000Y-37000000D03*
%TD*%
D16*
%TO.C,C24*%
X140500000Y-81460000D03*
X140500000Y-80500000D03*
%TD*%
D14*
%TO.C,D24*%
X125654543Y-82775000D03*
X125654543Y-79475000D03*
X120754543Y-79475000D03*
X120754543Y-82775000D03*
%TD*%
D22*
%TO.C,U4*%
X161800000Y-30780000D03*
D23*
X157175000Y-30025000D03*
X157175000Y-26975000D03*
X153825000Y-30025000D03*
X153825000Y-26975000D03*
D22*
X161800000Y-26220000D03*
%TD*%
D24*
%TO.C,U8*%
X126500000Y-32700000D03*
X127000000Y-32700000D03*
X127500000Y-32700000D03*
X128000000Y-32700000D03*
X128500000Y-32700000D03*
X129000000Y-32700000D03*
X129500000Y-32700000D03*
X130000000Y-32700000D03*
D25*
X130700000Y-32000000D03*
X130700000Y-31500000D03*
X130700000Y-31000000D03*
X130700000Y-30500000D03*
X130700000Y-30000000D03*
X130700000Y-29500000D03*
X130700000Y-29000000D03*
X130700000Y-28500000D03*
D24*
X130000000Y-27800000D03*
X129500000Y-27800000D03*
X129000000Y-27800000D03*
X128500000Y-27800000D03*
X128000000Y-27800000D03*
X127500000Y-27800000D03*
X127000000Y-27800000D03*
X126500000Y-27800000D03*
D25*
X125800000Y-28500000D03*
X125800000Y-29000000D03*
X125800000Y-29500000D03*
X125800000Y-30000000D03*
X125800000Y-30500000D03*
X125800000Y-31000000D03*
X125800000Y-31500000D03*
X125800000Y-32000000D03*
D26*
X128250000Y-30250000D03*
%TD*%
D27*
%TO.C,C41*%
X124000000Y-28525000D03*
X124000000Y-26975000D03*
%TD*%
D16*
%TO.C,C15*%
X35636363Y-81416600D03*
X35636363Y-80456600D03*
%TD*%
D11*
%TO.C,C26*%
X24472727Y-134176600D03*
X24472727Y-135136600D03*
%TD*%
D14*
%TO.C,D18*%
X55768181Y-82775000D03*
X55768181Y-79475000D03*
X50868181Y-79475000D03*
X50868181Y-82775000D03*
%TD*%
D16*
%TO.C,C19*%
X82181815Y-81416600D03*
X82181815Y-80456600D03*
%TD*%
D14*
%TO.C,D30*%
X109136360Y-132975000D03*
X109136360Y-136275000D03*
X114036360Y-136275000D03*
X114036360Y-132975000D03*
%TD*%
D16*
%TO.C,C16*%
X47272726Y-81416600D03*
X47272726Y-80456600D03*
%TD*%
D11*
%TO.C,C27*%
X36145454Y-134176600D03*
X36145454Y-135136600D03*
%TD*%
%TO.C,C30*%
X71163635Y-134176600D03*
X71163635Y-135136600D03*
%TD*%
D16*
%TO.C,C22*%
X117090904Y-81416600D03*
X117090904Y-80456600D03*
%TD*%
D14*
%TO.C,D26*%
X148950000Y-82775000D03*
X148950000Y-79475000D03*
X144050000Y-79475000D03*
X144050000Y-82775000D03*
%TD*%
D13*
%TO.C,C3*%
X165025000Y-28100000D03*
X166575000Y-28100000D03*
%TD*%
D27*
%TO.C,C5*%
X147175000Y-37325000D03*
X147175000Y-35775000D03*
%TD*%
D17*
%TO.C,C40*%
X125175000Y-25000000D03*
X123625000Y-25000000D03*
%TD*%
D14*
%TO.C,D32*%
X85877270Y-132975000D03*
X85877270Y-136275000D03*
X90777270Y-136275000D03*
X90777270Y-132975000D03*
%TD*%
D11*
%TO.C,C34*%
X117854543Y-134176600D03*
X117854543Y-135136600D03*
%TD*%
D14*
%TO.C,D25*%
X137302270Y-82775000D03*
X137302270Y-79475000D03*
X132402270Y-79475000D03*
X132402270Y-82775000D03*
%TD*%
D11*
%TO.C,C35*%
X129527270Y-134176600D03*
X129527270Y-135136600D03*
%TD*%
D14*
%TO.C,D35*%
X50988635Y-132975000D03*
X50988635Y-136275000D03*
X55888635Y-136275000D03*
X55888635Y-132975000D03*
%TD*%
%TO.C,D17*%
X44120454Y-82775000D03*
X44120454Y-79475000D03*
X39220454Y-79475000D03*
X39220454Y-82775000D03*
%TD*%
D28*
%TO.C,D13*%
X183100000Y-26956600D03*
X185900000Y-26956600D03*
%TD*%
D15*
%TO.C,C13*%
X131620000Y-55225000D03*
X132580000Y-55225000D03*
%TD*%
D16*
%TO.C,C14*%
X24000000Y-81416600D03*
X24000000Y-80456600D03*
%TD*%
D13*
%TO.C,C46*%
X132725000Y-35000000D03*
X134275000Y-35000000D03*
%TD*%
D29*
%TO.C,U5*%
X145062500Y-37500000D03*
X145062500Y-36550000D03*
X145062500Y-35600000D03*
X142787500Y-35600000D03*
X142787500Y-37500000D03*
%TD*%
D14*
%TO.C,D22*%
X102359089Y-82775000D03*
X102359089Y-79475000D03*
X97459089Y-79475000D03*
X97459089Y-82775000D03*
%TD*%
%TO.C,D31*%
X97506815Y-132975000D03*
X97506815Y-136275000D03*
X102406815Y-136275000D03*
X102406815Y-132975000D03*
%TD*%
%TO.C,D20*%
X79063635Y-82775000D03*
X79063635Y-79475000D03*
X74163635Y-79475000D03*
X74163635Y-82775000D03*
%TD*%
%TO.C,D21*%
X90711362Y-82775000D03*
X90711362Y-79475000D03*
X85811362Y-79475000D03*
X85811362Y-82775000D03*
%TD*%
%TO.C,D36*%
X39359090Y-132975000D03*
X39359090Y-136275000D03*
X44259090Y-136275000D03*
X44259090Y-132975000D03*
%TD*%
D27*
%TO.C,C6*%
X140925000Y-37350000D03*
X140925000Y-35800000D03*
%TD*%
D11*
%TO.C,C31*%
X82836362Y-134176600D03*
X82836362Y-135136600D03*
%TD*%
D15*
%TO.C,C9*%
X149520000Y-66000000D03*
X150480000Y-66000000D03*
%TD*%
D17*
%TO.C,C12*%
X135525000Y-55750000D03*
X133975000Y-55750000D03*
%TD*%
%TO.C,C8*%
X137225000Y-58350000D03*
X135675000Y-58350000D03*
%TD*%
D30*
%TO.C,C7*%
X137105000Y-57075000D03*
X136145000Y-57075000D03*
%TD*%
D14*
%TO.C,D16*%
X32472727Y-82775000D03*
X32472727Y-79475000D03*
X27572727Y-79475000D03*
X27572727Y-82775000D03*
%TD*%
D11*
%TO.C,C25*%
X151500000Y-83520000D03*
X151500000Y-84480000D03*
%TD*%
D14*
%TO.C,D37*%
X27729545Y-132975000D03*
X27729545Y-136275000D03*
X32629545Y-136275000D03*
X32629545Y-132975000D03*
%TD*%
D30*
%TO.C,C11*%
X134730000Y-57000000D03*
X133770000Y-57000000D03*
%TD*%
D27*
%TO.C,C4*%
X152800000Y-23831600D03*
X152800000Y-22281600D03*
%TD*%
D14*
%TO.C,D33*%
X74247725Y-132975000D03*
X74247725Y-136275000D03*
X79147725Y-136275000D03*
X79147725Y-132975000D03*
%TD*%
%TO.C,D27*%
X144025000Y-132975000D03*
X144025000Y-136275000D03*
X148925000Y-136275000D03*
X148925000Y-132975000D03*
%TD*%
D18*
%TO.C,C42*%
X135875000Y-25600000D03*
X132925000Y-25600000D03*
%TD*%
M02*
