%TF.GenerationSoftware,KiCad,Pcbnew,7.0.2*%
%TF.CreationDate,2023-04-17T18:08:40+09:00*%
%TF.ProjectId,autoharpie,6175746f-6861-4727-9069-652e6b696361,rev?*%
%TF.SameCoordinates,Original*%
%TF.FileFunction,Drillmap*%
%TF.FilePolarity,Positive*%
%FSLAX45Y45*%
G04 Gerber Fmt 4.5, Leading zero omitted, Abs format (unit mm)*
G04 Created by KiCad (PCBNEW 7.0.2) date 2023-04-17 18:08:40*
%MOMM*%
%LPD*%
G01*
G04 APERTURE LIST*
%ADD10C,0.100000*%
%ADD11C,0.200000*%
G04 APERTURE END LIST*
D10*
X1200000Y-1200000D02*
X20200000Y-1200000D01*
X20200000Y-16200000D01*
X1200000Y-16200000D01*
X1200000Y-1200000D01*
D11*
X1442619Y-16517524D02*
X1442619Y-16317524D01*
X1442619Y-16317524D02*
X1490238Y-16317524D01*
X1490238Y-16317524D02*
X1518809Y-16327048D01*
X1518809Y-16327048D02*
X1537857Y-16346095D01*
X1537857Y-16346095D02*
X1547381Y-16365143D01*
X1547381Y-16365143D02*
X1556905Y-16403238D01*
X1556905Y-16403238D02*
X1556905Y-16431809D01*
X1556905Y-16431809D02*
X1547381Y-16469905D01*
X1547381Y-16469905D02*
X1537857Y-16488952D01*
X1537857Y-16488952D02*
X1518809Y-16508000D01*
X1518809Y-16508000D02*
X1490238Y-16517524D01*
X1490238Y-16517524D02*
X1442619Y-16517524D01*
X1642619Y-16517524D02*
X1642619Y-16384190D01*
X1642619Y-16422286D02*
X1652143Y-16403238D01*
X1652143Y-16403238D02*
X1661667Y-16393714D01*
X1661667Y-16393714D02*
X1680714Y-16384190D01*
X1680714Y-16384190D02*
X1699762Y-16384190D01*
X1766428Y-16517524D02*
X1766428Y-16384190D01*
X1766428Y-16317524D02*
X1756905Y-16327048D01*
X1756905Y-16327048D02*
X1766428Y-16336571D01*
X1766428Y-16336571D02*
X1775952Y-16327048D01*
X1775952Y-16327048D02*
X1766428Y-16317524D01*
X1766428Y-16317524D02*
X1766428Y-16336571D01*
X1890238Y-16517524D02*
X1871190Y-16508000D01*
X1871190Y-16508000D02*
X1861667Y-16488952D01*
X1861667Y-16488952D02*
X1861667Y-16317524D01*
X1995000Y-16517524D02*
X1975952Y-16508000D01*
X1975952Y-16508000D02*
X1966428Y-16488952D01*
X1966428Y-16488952D02*
X1966428Y-16317524D01*
X2223571Y-16517524D02*
X2223571Y-16317524D01*
X2223571Y-16317524D02*
X2290238Y-16460381D01*
X2290238Y-16460381D02*
X2356905Y-16317524D01*
X2356905Y-16317524D02*
X2356905Y-16517524D01*
X2537857Y-16517524D02*
X2537857Y-16412762D01*
X2537857Y-16412762D02*
X2528333Y-16393714D01*
X2528333Y-16393714D02*
X2509286Y-16384190D01*
X2509286Y-16384190D02*
X2471190Y-16384190D01*
X2471190Y-16384190D02*
X2452143Y-16393714D01*
X2537857Y-16508000D02*
X2518810Y-16517524D01*
X2518810Y-16517524D02*
X2471190Y-16517524D01*
X2471190Y-16517524D02*
X2452143Y-16508000D01*
X2452143Y-16508000D02*
X2442619Y-16488952D01*
X2442619Y-16488952D02*
X2442619Y-16469905D01*
X2442619Y-16469905D02*
X2452143Y-16450857D01*
X2452143Y-16450857D02*
X2471190Y-16441333D01*
X2471190Y-16441333D02*
X2518810Y-16441333D01*
X2518810Y-16441333D02*
X2537857Y-16431809D01*
X2633095Y-16384190D02*
X2633095Y-16584190D01*
X2633095Y-16393714D02*
X2652143Y-16384190D01*
X2652143Y-16384190D02*
X2690238Y-16384190D01*
X2690238Y-16384190D02*
X2709286Y-16393714D01*
X2709286Y-16393714D02*
X2718810Y-16403238D01*
X2718810Y-16403238D02*
X2728333Y-16422286D01*
X2728333Y-16422286D02*
X2728333Y-16479428D01*
X2728333Y-16479428D02*
X2718810Y-16498476D01*
X2718810Y-16498476D02*
X2709286Y-16508000D01*
X2709286Y-16508000D02*
X2690238Y-16517524D01*
X2690238Y-16517524D02*
X2652143Y-16517524D01*
X2652143Y-16517524D02*
X2633095Y-16508000D01*
X2814048Y-16498476D02*
X2823571Y-16508000D01*
X2823571Y-16508000D02*
X2814048Y-16517524D01*
X2814048Y-16517524D02*
X2804524Y-16508000D01*
X2804524Y-16508000D02*
X2814048Y-16498476D01*
X2814048Y-16498476D02*
X2814048Y-16517524D01*
X2814048Y-16393714D02*
X2823571Y-16403238D01*
X2823571Y-16403238D02*
X2814048Y-16412762D01*
X2814048Y-16412762D02*
X2804524Y-16403238D01*
X2804524Y-16403238D02*
X2814048Y-16393714D01*
X2814048Y-16393714D02*
X2814048Y-16412762D01*
M02*
