%TF.GenerationSoftware,KiCad,Pcbnew,7.0.2*%
%TF.CreationDate,2023-04-18T11:23:10+09:00*%
%TF.ProjectId,autoharpie,6175746f-6861-4727-9069-652e6b696361,rev?*%
%TF.SameCoordinates,Original*%
%TF.FileFunction,Soldermask,Bot*%
%TF.FilePolarity,Negative*%
%FSLAX46Y46*%
G04 Gerber Fmt 4.6, Leading zero omitted, Abs format (unit mm)*
G04 Created by KiCad (PCBNEW 7.0.2) date 2023-04-18 11:23:10*
%MOMM*%
%LPD*%
G01*
G04 APERTURE LIST*
G04 Aperture macros list*
%AMRoundRect*
0 Rectangle with rounded corners*
0 $1 Rounding radius*
0 $2 $3 $4 $5 $6 $7 $8 $9 X,Y pos of 4 corners*
0 Add a 4 corners polygon primitive as box body*
4,1,4,$2,$3,$4,$5,$6,$7,$8,$9,$2,$3,0*
0 Add four circle primitives for the rounded corners*
1,1,$1+$1,$2,$3*
1,1,$1+$1,$4,$5*
1,1,$1+$1,$6,$7*
1,1,$1+$1,$8,$9*
0 Add four rect primitives between the rounded corners*
20,1,$1+$1,$2,$3,$4,$5,0*
20,1,$1+$1,$4,$5,$6,$7,0*
20,1,$1+$1,$6,$7,$8,$9,0*
20,1,$1+$1,$8,$9,$2,$3,0*%
%AMHorizOval*
0 Thick line with rounded ends*
0 $1 width*
0 $2 $3 position (X,Y) of the first rounded end (center of the circle)*
0 $4 $5 position (X,Y) of the second rounded end (center of the circle)*
0 Add line between two ends*
20,1,$1,$2,$3,$4,$5,0*
0 Add two circle primitives to create the rounded ends*
1,1,$1,$2,$3*
1,1,$1,$4,$5*%
%AMRotRect*
0 Rectangle, with rotation*
0 The origin of the aperture is its center*
0 $1 length*
0 $2 width*
0 $3 Rotation angle, in degrees counterclockwise*
0 Add horizontal line*
21,1,$1,$2,0,0,$3*%
G04 Aperture macros list end*
%ADD10C,1.400000*%
%ADD11O,1.400000X1.400000*%
%ADD12R,1.600000X1.600000*%
%ADD13O,1.600000X1.600000*%
%ADD14RotRect,1.600000X1.600000X135.000000*%
%ADD15HorizOval,1.600000X0.000000X0.000000X0.000000X0.000000X0*%
%ADD16C,3.800000*%
%ADD17C,2.000000*%
%ADD18C,1.950000*%
%ADD19C,3.600000*%
%ADD20C,1.524000*%
%ADD21O,3.000000X2.900000*%
%ADD22R,1.700000X1.700000*%
%ADD23C,1.700000*%
%ADD24O,1.700000X1.700000*%
%ADD25HorizOval,2.400000X0.212132X0.212132X-0.212132X-0.212132X0*%
%ADD26R,1.050000X1.500000*%
%ADD27O,1.050000X1.500000*%
%ADD28RoundRect,0.250000X0.625000X-0.350000X0.625000X0.350000X-0.625000X0.350000X-0.625000X-0.350000X0*%
%ADD29O,1.750000X1.200000*%
G04 APERTURE END LIST*
D10*
%TO.C,R3*%
X32190000Y-26600000D03*
D11*
X39810000Y-26600000D03*
%TD*%
D10*
%TO.C,R2*%
X32190000Y-29100000D03*
D11*
X39810000Y-29100000D03*
%TD*%
D12*
%TO.C,U1*%
X31660000Y-63953800D03*
D13*
X34200000Y-63953800D03*
X36740000Y-63953800D03*
X39280000Y-63953800D03*
X41820000Y-63953800D03*
X44360000Y-63953800D03*
X46900000Y-63953800D03*
X49440000Y-63953800D03*
X49440000Y-56333800D03*
X46900000Y-56333800D03*
X44360000Y-56333800D03*
X41820000Y-56333800D03*
X39280000Y-56333800D03*
X36740000Y-56333800D03*
X34200000Y-56333800D03*
X31660000Y-56333800D03*
%TD*%
D14*
%TO.C,D4*%
X55613155Y-76123801D03*
D15*
X50225001Y-70735647D03*
%TD*%
D16*
%TO.C,H8*%
X106000000Y-100250000D03*
%TD*%
%TO.C,H7*%
X109000000Y-52800000D03*
%TD*%
D17*
%TO.C,SW14*%
X143294913Y-86853800D03*
X149794913Y-86853800D03*
X143294913Y-91353800D03*
X149794913Y-91353800D03*
%TD*%
%TO.C,SW13*%
X131617633Y-86853800D03*
X138117633Y-86853800D03*
X131617633Y-91353800D03*
X138117633Y-91353800D03*
%TD*%
%TO.C,SW54*%
X50120454Y-140600000D03*
X56620454Y-140600000D03*
X50120454Y-145100000D03*
X56620454Y-145100000D03*
%TD*%
D18*
%TO.C,J2*%
X78400000Y-25200000D03*
X85900000Y-25200000D03*
X93400000Y-25200000D03*
X80900000Y-27700000D03*
X90900000Y-27700000D03*
X83400000Y-15200000D03*
X88400000Y-15200000D03*
D19*
X78400000Y-20200000D03*
X93400000Y-20200000D03*
%TD*%
D17*
%TO.C,SW62*%
X143475000Y-140625000D03*
X149975000Y-140625000D03*
X143475000Y-145125000D03*
X149975000Y-145125000D03*
%TD*%
D14*
%TO.C,D7*%
X90590425Y-76123801D03*
D15*
X85202271Y-70735647D03*
%TD*%
D17*
%TO.C,SW34*%
X96834313Y-113600000D03*
X103334313Y-113600000D03*
X96834313Y-118100000D03*
X103334313Y-118100000D03*
%TD*%
%TO.C,SW6*%
X49831816Y-86853800D03*
X56331816Y-86853800D03*
X49831816Y-91353800D03*
X56331816Y-91353800D03*
%TD*%
%TO.C,SW22*%
X96688959Y-104850000D03*
X103188959Y-104850000D03*
X96688959Y-109350000D03*
X103188959Y-109350000D03*
%TD*%
D10*
%TO.C,R13*%
X30850000Y-49185000D03*
D11*
X30850000Y-41565000D03*
%TD*%
D10*
%TO.C,R6*%
X85090000Y-41756600D03*
D11*
X92710000Y-41756600D03*
%TD*%
D16*
%TO.C,H9*%
X22000000Y-99600000D03*
%TD*%
D17*
%TO.C,SW3*%
X14800000Y-86853800D03*
X21300000Y-86853800D03*
X14800000Y-91353800D03*
X21300000Y-91353800D03*
%TD*%
D10*
%TO.C,R5*%
X22435000Y-52475000D03*
D11*
X14815000Y-52475000D03*
%TD*%
D16*
%TO.C,H2*%
X151000000Y-158000000D03*
%TD*%
D20*
%TO.C,SW2*%
X69025000Y-46350000D03*
X69025000Y-41350000D03*
X69025000Y-43850000D03*
X54525000Y-46350000D03*
X54525000Y-41350000D03*
D21*
X61525000Y-50450000D03*
X61525000Y-37250000D03*
%TD*%
D17*
%TO.C,SW53*%
X38438636Y-140600000D03*
X44938636Y-140600000D03*
X38438636Y-145100000D03*
X44938636Y-145100000D03*
%TD*%
%TO.C,SW48*%
X120279865Y-122600000D03*
X126779865Y-122600000D03*
X120279865Y-127100000D03*
X126779865Y-127100000D03*
%TD*%
%TO.C,SW5*%
X38154544Y-86853800D03*
X44654544Y-86853800D03*
X38154544Y-91353800D03*
X44654544Y-91353800D03*
%TD*%
D14*
%TO.C,D1*%
X20635885Y-76123801D03*
D15*
X15247731Y-70735647D03*
%TD*%
D17*
%TO.C,SW57*%
X85219355Y-140600000D03*
X91719355Y-140600000D03*
X85219355Y-145100000D03*
X91719355Y-145100000D03*
%TD*%
%TO.C,SW51*%
X15075000Y-140600000D03*
X21575000Y-140600000D03*
X15075000Y-145100000D03*
X21575000Y-145100000D03*
%TD*%
%TO.C,SW35*%
X108557072Y-113600000D03*
X115057072Y-113600000D03*
X108557072Y-118100000D03*
X115057072Y-118100000D03*
%TD*%
%TO.C,SW60*%
X120264809Y-140600000D03*
X126764809Y-140600000D03*
X120264809Y-145100000D03*
X126764809Y-145100000D03*
%TD*%
D14*
%TO.C,D6*%
X78931335Y-76123801D03*
D15*
X73543181Y-70735647D03*
%TD*%
D12*
%TO.C,D14*%
X92560000Y-38156600D03*
D13*
X84940000Y-38156600D03*
%TD*%
D14*
%TO.C,D9*%
X113908605Y-76123801D03*
D15*
X108520451Y-70735647D03*
%TD*%
D17*
%TO.C,SW21*%
X85007141Y-104850000D03*
X91507141Y-104850000D03*
X85007141Y-109350000D03*
X91507141Y-109350000D03*
%TD*%
%TO.C,SW46*%
X96834411Y-122600000D03*
X103334411Y-122600000D03*
X96834411Y-127100000D03*
X103334411Y-127100000D03*
%TD*%
D16*
%TO.C,H3*%
X196000000Y-158000000D03*
%TD*%
D17*
%TO.C,SW26*%
X143475000Y-104875000D03*
X149975000Y-104875000D03*
X143475000Y-109375000D03*
X149975000Y-109375000D03*
%TD*%
%TO.C,SW45*%
X85111684Y-122600000D03*
X91611684Y-122600000D03*
X85111684Y-127100000D03*
X91611684Y-127100000D03*
%TD*%
%TO.C,SW28*%
X26497759Y-113600000D03*
X32997759Y-113600000D03*
X26497759Y-118100000D03*
X32997759Y-118100000D03*
%TD*%
D10*
%TO.C,R9*%
X111000000Y-41790000D03*
D11*
X111000000Y-49410000D03*
%TD*%
D22*
%TO.C,U2*%
X15640000Y-32603800D03*
D23*
X18180000Y-32603800D03*
X20720000Y-32603800D03*
X23260000Y-32603800D03*
X25800000Y-32603800D03*
X28340000Y-32603800D03*
X30880000Y-32603800D03*
X33420000Y-32603800D03*
X35960000Y-32603800D03*
X38500000Y-32603800D03*
X41040000Y-32603800D03*
X43580000Y-32603800D03*
X46120000Y-32603800D03*
X48660000Y-32603800D03*
X51200000Y-32603800D03*
X53740000Y-32603800D03*
X56280000Y-32603800D03*
X58820000Y-32603800D03*
X61360000Y-32603800D03*
X63900000Y-32603800D03*
X63900000Y-17363800D03*
X61360000Y-17363800D03*
X58820000Y-17363800D03*
X56280000Y-17363800D03*
X53740000Y-17363800D03*
X51200000Y-17363800D03*
X48660000Y-17363800D03*
X46120000Y-17363800D03*
X43580000Y-17363800D03*
X41040000Y-17363800D03*
X38500000Y-17363800D03*
X35960000Y-17363800D03*
X33420000Y-17363800D03*
X30880000Y-17363800D03*
X28340000Y-17363800D03*
X25800000Y-17363800D03*
X23260000Y-17363800D03*
X20720000Y-17363800D03*
X18180000Y-17363800D03*
X15640000Y-17363800D03*
%TD*%
D17*
%TO.C,SW9*%
X84917079Y-86853800D03*
X91417079Y-86853800D03*
X84917079Y-91353800D03*
X91417079Y-91353800D03*
%TD*%
%TO.C,SW50*%
X143475000Y-122625000D03*
X149975000Y-122625000D03*
X143475000Y-127125000D03*
X149975000Y-127125000D03*
%TD*%
D10*
%TO.C,R11*%
X44380000Y-19980000D03*
D11*
X52000000Y-19980000D03*
%TD*%
D14*
%TO.C,D8*%
X102249515Y-76123801D03*
D15*
X96861361Y-70735647D03*
%TD*%
D17*
%TO.C,SW41*%
X38220776Y-122600000D03*
X44720776Y-122600000D03*
X38220776Y-127100000D03*
X44720776Y-127100000D03*
%TD*%
%TO.C,SW47*%
X108557138Y-122600000D03*
X115057138Y-122600000D03*
X108557138Y-127100000D03*
X115057138Y-127100000D03*
%TD*%
%TO.C,SW59*%
X108582991Y-140600000D03*
X115082991Y-140600000D03*
X108582991Y-145100000D03*
X115082991Y-145100000D03*
%TD*%
%TO.C,SW27*%
X14775000Y-113600000D03*
X21275000Y-113600000D03*
X14775000Y-118100000D03*
X21275000Y-118100000D03*
%TD*%
%TO.C,SW17*%
X38279869Y-104850000D03*
X44779869Y-104850000D03*
X38279869Y-109350000D03*
X44779869Y-109350000D03*
%TD*%
D10*
%TO.C,R10*%
X44380000Y-21980000D03*
D11*
X52000000Y-21980000D03*
%TD*%
D22*
%TO.C,J4*%
X49600000Y-39016600D03*
D24*
X49600000Y-41556600D03*
X49600000Y-44096600D03*
X49600000Y-46636600D03*
%TD*%
D17*
%TO.C,SW16*%
X26598051Y-104850000D03*
X33098051Y-104850000D03*
X26598051Y-109350000D03*
X33098051Y-109350000D03*
%TD*%
%TO.C,SW8*%
X73386714Y-86853800D03*
X79886714Y-86853800D03*
X73386714Y-91353800D03*
X79886714Y-91353800D03*
%TD*%
%TO.C,SW31*%
X61666036Y-113600000D03*
X68166036Y-113600000D03*
X61666036Y-118100000D03*
X68166036Y-118100000D03*
%TD*%
D25*
%TO.C,J6*%
X147000000Y-25500000D03*
X145000000Y-23700000D03*
X145000000Y-17600000D03*
X147000000Y-20000000D03*
X145000000Y-29200000D03*
%TD*%
D14*
%TO.C,D3*%
X43954065Y-76123801D03*
D15*
X38565911Y-70735647D03*
%TD*%
D17*
%TO.C,SW30*%
X49943277Y-113600000D03*
X56443277Y-113600000D03*
X49943277Y-118100000D03*
X56443277Y-118100000D03*
%TD*%
D10*
%TO.C,R16*%
X162700000Y-19056600D03*
D11*
X155080000Y-19056600D03*
%TD*%
D17*
%TO.C,SW11*%
X108275000Y-86850000D03*
X114775000Y-86850000D03*
X108275000Y-91350000D03*
X114775000Y-91350000D03*
%TD*%
%TO.C,SW33*%
X85111554Y-113600000D03*
X91611554Y-113600000D03*
X85111554Y-118100000D03*
X91611554Y-118100000D03*
%TD*%
%TO.C,SW25*%
X131734415Y-104850000D03*
X138234415Y-104850000D03*
X131734415Y-109350000D03*
X138234415Y-109350000D03*
%TD*%
%TO.C,SW10*%
X96594351Y-86853800D03*
X103094351Y-86853800D03*
X96594351Y-91353800D03*
X103094351Y-91353800D03*
%TD*%
%TO.C,SW1*%
X23025000Y-60875000D03*
X16525000Y-60875000D03*
X23025000Y-56375000D03*
X16525000Y-56375000D03*
%TD*%
D26*
%TO.C,Q1*%
X28220000Y-45365000D03*
D27*
X26950000Y-45365000D03*
X25680000Y-45365000D03*
%TD*%
D17*
%TO.C,SW36*%
X120279831Y-113600000D03*
X126779831Y-113600000D03*
X120279831Y-118100000D03*
X126779831Y-118100000D03*
%TD*%
D28*
%TO.C,J7*%
X195050000Y-18500000D03*
D29*
X195050000Y-16500000D03*
%TD*%
D17*
%TO.C,SW20*%
X73325323Y-104850000D03*
X79825323Y-104850000D03*
X73325323Y-109350000D03*
X79825323Y-109350000D03*
%TD*%
%TO.C,SW56*%
X73684444Y-140600000D03*
X80184444Y-140600000D03*
X73684444Y-145100000D03*
X80184444Y-145100000D03*
%TD*%
%TO.C,SW58*%
X96901173Y-140600000D03*
X103401173Y-140600000D03*
X96901173Y-145100000D03*
X103401173Y-145100000D03*
%TD*%
D10*
%TO.C,R7*%
X84890000Y-34456600D03*
D11*
X92510000Y-34456600D03*
%TD*%
D10*
%TO.C,R12*%
X44380000Y-24200000D03*
D11*
X52000000Y-24200000D03*
%TD*%
D10*
%TO.C,R1*%
X69260000Y-17056600D03*
D11*
X69260000Y-24676600D03*
%TD*%
D17*
%TO.C,SW18*%
X49961687Y-104850000D03*
X56461687Y-104850000D03*
X49961687Y-109350000D03*
X56461687Y-109350000D03*
%TD*%
%TO.C,SW19*%
X61643505Y-104850000D03*
X68143505Y-104850000D03*
X61643505Y-109350000D03*
X68143505Y-109350000D03*
%TD*%
%TO.C,SW23*%
X108370777Y-104850000D03*
X114870777Y-104850000D03*
X108370777Y-109350000D03*
X114870777Y-109350000D03*
%TD*%
D10*
%TO.C,R4*%
X69260000Y-27853800D03*
D11*
X69260000Y-35473800D03*
%TD*%
D14*
%TO.C,D5*%
X67272245Y-76123801D03*
D15*
X61884091Y-70735647D03*
%TD*%
D17*
%TO.C,SW12*%
X119940361Y-86853800D03*
X126440361Y-86853800D03*
X119940361Y-91353800D03*
X126440361Y-91353800D03*
%TD*%
D24*
%TO.C,J5*%
X134560000Y-48400000D03*
X132020000Y-48400000D03*
X129480000Y-48400000D03*
X126940000Y-48400000D03*
X124400000Y-48400000D03*
D22*
X121860000Y-48400000D03*
%TD*%
D17*
%TO.C,SW39*%
X14775322Y-122600000D03*
X21275322Y-122600000D03*
X14775322Y-127100000D03*
X21275322Y-127100000D03*
%TD*%
%TO.C,SW29*%
X38220518Y-113600000D03*
X44720518Y-113600000D03*
X38220518Y-118100000D03*
X44720518Y-118100000D03*
%TD*%
D14*
%TO.C,D12*%
X148885885Y-76123801D03*
D15*
X143497731Y-70735647D03*
%TD*%
D17*
%TO.C,SW32*%
X73388795Y-113600000D03*
X79888795Y-113600000D03*
X73388795Y-118100000D03*
X79888795Y-118100000D03*
%TD*%
D16*
%TO.C,H5*%
X125400000Y-17800000D03*
%TD*%
D17*
%TO.C,SW7*%
X61509088Y-86853800D03*
X68009088Y-86853800D03*
X61509088Y-91353800D03*
X68009088Y-91353800D03*
%TD*%
D14*
%TO.C,D2*%
X32294975Y-76123801D03*
D15*
X26906821Y-70735647D03*
%TD*%
D10*
%TO.C,R14*%
X22500000Y-41940000D03*
D11*
X22500000Y-49560000D03*
%TD*%
D17*
%TO.C,SW42*%
X49943503Y-122600000D03*
X56443503Y-122600000D03*
X49943503Y-127100000D03*
X56443503Y-127100000D03*
%TD*%
%TO.C,SW15*%
X14916233Y-104850000D03*
X21416233Y-104850000D03*
X14916233Y-109350000D03*
X21416233Y-109350000D03*
%TD*%
%TO.C,SW40*%
X26498049Y-122600000D03*
X32998049Y-122600000D03*
X26498049Y-127100000D03*
X32998049Y-127100000D03*
%TD*%
D16*
%TO.C,H4*%
X181000000Y-15000000D03*
%TD*%
D17*
%TO.C,SW52*%
X26756818Y-140600000D03*
X33256818Y-140600000D03*
X26756818Y-145100000D03*
X33256818Y-145100000D03*
%TD*%
D28*
%TO.C,J1*%
X195050000Y-29000000D03*
D29*
X195050000Y-27000000D03*
%TD*%
D12*
%TO.C,U3*%
X53360000Y-63903800D03*
D13*
X55900000Y-63903800D03*
X58440000Y-63903800D03*
X60980000Y-63903800D03*
X63520000Y-63903800D03*
X66060000Y-63903800D03*
X68600000Y-63903800D03*
X71140000Y-63903800D03*
X71140000Y-56283800D03*
X68600000Y-56283800D03*
X66060000Y-56283800D03*
X63520000Y-56283800D03*
X60980000Y-56283800D03*
X58440000Y-56283800D03*
X55900000Y-56283800D03*
X53360000Y-56283800D03*
%TD*%
D14*
%TO.C,D11*%
X137226785Y-76123801D03*
D15*
X131838631Y-70735647D03*
%TD*%
D18*
%TO.C,J3*%
X101600000Y-25200000D03*
X109100000Y-25200000D03*
X116600000Y-25200000D03*
X104100000Y-27700000D03*
X114100000Y-27700000D03*
X106600000Y-15200000D03*
X111600000Y-15200000D03*
D19*
X101600000Y-20200000D03*
X116600000Y-20200000D03*
%TD*%
D17*
%TO.C,SW43*%
X61666230Y-122600000D03*
X68166230Y-122600000D03*
X61666230Y-127100000D03*
X68166230Y-127100000D03*
%TD*%
%TO.C,SW44*%
X73388957Y-122600000D03*
X79888957Y-122600000D03*
X73388957Y-127100000D03*
X79888957Y-127100000D03*
%TD*%
%TO.C,SW38*%
X143475000Y-113625000D03*
X149975000Y-113625000D03*
X143475000Y-118125000D03*
X149975000Y-118125000D03*
%TD*%
D10*
%TO.C,R8*%
X108500000Y-44266600D03*
D11*
X108500000Y-36646600D03*
%TD*%
D17*
%TO.C,SW4*%
X26477272Y-86853800D03*
X32977272Y-86853800D03*
X26477272Y-91353800D03*
X32977272Y-91353800D03*
%TD*%
D10*
%TO.C,R15*%
X173310000Y-19056600D03*
D11*
X165690000Y-19056600D03*
%TD*%
D12*
%TO.C,U6*%
X101820000Y-50080000D03*
D13*
X101820000Y-47540000D03*
X101820000Y-45000000D03*
X94200000Y-45000000D03*
X94200000Y-47540000D03*
X94200000Y-50080000D03*
%TD*%
D17*
%TO.C,SW37*%
X132002595Y-113600000D03*
X138502595Y-113600000D03*
X132002595Y-118100000D03*
X138502595Y-118100000D03*
%TD*%
%TO.C,SW61*%
X131808536Y-140600000D03*
X138308536Y-140600000D03*
X131808536Y-145100000D03*
X138308536Y-145100000D03*
%TD*%
%TO.C,SW24*%
X120052595Y-104850000D03*
X126552595Y-104850000D03*
X120052595Y-109350000D03*
X126552595Y-109350000D03*
%TD*%
D16*
%TO.C,H1*%
X16000000Y-158000000D03*
%TD*%
D17*
%TO.C,SW55*%
X62002626Y-140600000D03*
X68502626Y-140600000D03*
X62002626Y-145100000D03*
X68502626Y-145100000D03*
%TD*%
D16*
%TO.C,H6*%
X16200000Y-25100000D03*
%TD*%
D14*
%TO.C,D10*%
X125567695Y-76123801D03*
D15*
X120179541Y-70735647D03*
%TD*%
D17*
%TO.C,SW49*%
X132002595Y-122600000D03*
X138502595Y-122600000D03*
X132002595Y-127100000D03*
X138502595Y-127100000D03*
%TD*%
M02*
